%TF.GenerationSoftware,KiCad,Pcbnew,10.0.6-1.fc44*%
%TF.CreationDate,2026-09-12T20:33:14+02:00*%
%TF.ProjectId,hdmi2c,68646d69-3263-42e6-9b69-6361645f7063,rev2*%
%TF.SameCoordinates,Original*%
%TF.FileFunction,Copper,L2,Bot*%
%TF.FilePolarity,Positive*%
%FSLAX46Y46*%
G04 Gerber Fmt 4.6, Leading zero omitted, Abs format (unit mm)*
G04 Created by KiCad (PCBNEW 10.0.6-1.fc44) date 2026-09-12 20:33:14*
%MOMM*%
%LPD*%
G01*
G04 APERTURE LIST*
%TA.AperFunction,ComponentPad*%
%ADD10O,3.300000X1.500000*%
%TD*%
%TA.AperFunction,ComponentPad*%
%ADD11O,2.700000X1.500000*%
%TD*%
%TA.AperFunction,SMDPad,CuDef*%
%ADD12C,1.000000*%
%TD*%
%TA.AperFunction,ViaPad*%
%ADD13C,0.600000*%
%TD*%
%TA.AperFunction,Conductor*%
%ADD14C,0.200000*%
%TD*%
G04 APERTURE END LIST*
D10*
%TO.P,J7,SH,SH_SH*%
%TO.N,/GND*%
X83350000Y-69250000D03*
D11*
X89350000Y-69250000D03*
D10*
X83350000Y-54750000D03*
D11*
X89350000Y-54750000D03*
%TD*%
D12*
%TO.P,TP3,1,1_1*%
%TO.N,/HDMI_SCL*%
X76500000Y-70000000D03*
%TD*%
%TO.P,TP4,1,1_1*%
%TO.N,/HDMI_SDA*%
X79500000Y-70000000D03*
%TD*%
%TO.P,TP1,1,1_1*%
%TO.N,/HDMI_5V*%
X70500000Y-70000000D03*
%TD*%
%TO.P,TP2,1,1_1*%
%TO.N,/GND*%
X73500000Y-70000000D03*
%TD*%
D13*
%TO.N,/BUTTON1*%
X70935000Y-67531500D03*
X74265800Y-52000000D03*
X75500000Y-56657900D03*
%TO.N,/GND*%
X79900000Y-54925000D03*
X71200000Y-61675000D03*
X79800000Y-61675000D03*
X79800000Y-64925000D03*
X74400000Y-68500000D03*
X79950000Y-68500000D03*
%TO.N,/+3V3*%
X72634400Y-57426600D03*
X74882100Y-53703300D03*
%TO.N,/BUTTON2*%
X80320200Y-51823900D03*
X70906700Y-64983700D03*
%TO.N,/DDC_EN*%
X74203200Y-61023400D03*
X50953700Y-55457000D03*
%TO.N,/HDMI_5V_EN*%
X71348400Y-57006000D03*
X74484700Y-66421200D03*
X51425000Y-51507000D03*
%TO.N,/HDMI_SCL*%
X80681700Y-64500000D03*
X76500000Y-68969600D03*
%TO.N,/HDMI_SDA*%
X75732600Y-63748600D03*
X84319000Y-65000000D03*
%TO.N,/HDMI_5V*%
X77825000Y-67037500D03*
%TO.N,/HDMI_HPD_5V*%
X75741000Y-64837500D03*
X81856400Y-67143600D03*
%TO.N,/I2C_SCL*%
X51161900Y-64483700D03*
X74177100Y-59903800D03*
%TO.N,/I2C_SDA*%
X51180500Y-61887900D03*
X70895800Y-59688500D03*
%TO.N,/HDMI_HPD*%
X71680600Y-60290200D03*
X50944300Y-57997000D03*
%TO.N,/VBUS*%
X71324600Y-53768000D03*
X74313100Y-64925000D03*
%TD*%
%TO.N,/BUTTON1*%
D14*
X75500000Y-56657900D02*
X75500000Y-53234200D01*
X75698700Y-61145200D02*
X70935000Y-65908900D01*
X70935000Y-65908900D02*
X70935000Y-67531500D01*
X75500000Y-56657900D02*
X75698700Y-56856600D01*
X75500000Y-53234200D02*
X74265800Y-52000000D01*
X75698700Y-56856600D02*
X75698700Y-61145200D01*
%TO.N,/GND*%
X79800000Y-64925000D02*
X79800000Y-61675000D01*
X74933900Y-67966100D02*
X74400000Y-68500000D01*
X79900000Y-54925000D02*
X81223300Y-54925000D01*
X81223300Y-54925000D02*
X81398300Y-54750000D01*
X79800000Y-67966100D02*
X74933900Y-67966100D01*
X79950000Y-68500000D02*
X79800000Y-68350000D01*
X74400000Y-68500000D02*
X73500000Y-69400000D01*
X83350000Y-54750000D02*
X81398300Y-54750000D01*
X73500000Y-69400000D02*
X73500000Y-70000000D01*
X79800000Y-67966100D02*
X79800000Y-64925000D01*
X79800000Y-68350000D02*
X79800000Y-67966100D01*
%TO.N,/+3V3*%
X72634400Y-55951000D02*
X72634400Y-57426600D01*
X74882100Y-53703300D02*
X72634400Y-55951000D01*
%TO.N,/BUTTON2*%
X74437500Y-65706400D02*
X75130700Y-65013200D01*
X71909100Y-68133300D02*
X74336000Y-65706400D01*
X76983600Y-55160500D02*
X80320200Y-51823900D01*
X75130700Y-65013200D02*
X75130700Y-62923000D01*
X70906700Y-64983700D02*
X70322200Y-65568200D01*
X70685900Y-68133300D02*
X71909100Y-68133300D01*
X70322200Y-67769600D02*
X70685900Y-68133300D01*
X76983600Y-61070100D02*
X76983600Y-55160500D01*
X75130700Y-62923000D02*
X76983600Y-61070100D01*
X74336000Y-65706400D02*
X74437500Y-65706400D01*
X70322200Y-65568200D02*
X70322200Y-67769600D01*
%TO.N,/DDC_EN*%
X50953700Y-55457000D02*
X68779800Y-55457000D01*
X74780400Y-59649800D02*
X74780400Y-60446200D01*
X74780400Y-60446200D02*
X74203200Y-61023400D01*
X72610600Y-59287800D02*
X74418400Y-59287800D01*
X68779800Y-55457000D02*
X72610600Y-59287800D01*
X74418400Y-59287800D02*
X74780400Y-59649800D01*
%TO.N,/HDMI_5V_EN*%
X70484500Y-68553500D02*
X72352400Y-68553500D01*
X69915800Y-67984800D02*
X70484500Y-68553500D01*
X71796900Y-64337500D02*
X70691700Y-64337500D01*
X51425000Y-51507000D02*
X65849400Y-51507000D01*
X72352400Y-68553500D02*
X74484700Y-66421200D01*
X75226600Y-59511300D02*
X75226600Y-60907800D01*
X69915800Y-65113400D02*
X69915800Y-67984800D01*
X73037900Y-58695500D02*
X74410800Y-58695500D01*
X74410800Y-58695500D02*
X75226600Y-59511300D01*
X71348400Y-57006000D02*
X73037900Y-58695500D01*
X70691700Y-64337500D02*
X69915800Y-65113400D01*
X75226600Y-60907800D02*
X71796900Y-64337500D01*
X65849400Y-51507000D02*
X71348400Y-57006000D01*
%TO.N,/HDMI_SCL*%
X76500000Y-70000000D02*
X76500000Y-68969600D01*
X80681700Y-64500000D02*
X80681700Y-69968400D01*
X77328400Y-70828400D02*
X76500000Y-70000000D01*
X79821700Y-70828400D02*
X77328400Y-70828400D01*
X80681700Y-69968400D02*
X79821700Y-70828400D01*
%TO.N,/HDMI_SDA*%
X75732600Y-63748600D02*
X78867400Y-60613800D01*
X81314900Y-68589000D02*
X81314900Y-69903200D01*
X84319000Y-64721500D02*
X84319000Y-65000000D01*
X76621500Y-71260700D02*
X75650500Y-70289700D01*
X79957400Y-71260700D02*
X76621500Y-71260700D01*
X78867400Y-60613800D02*
X80211300Y-60613800D01*
X76233600Y-68367800D02*
X77867800Y-68367800D01*
X75650500Y-70289700D02*
X75650500Y-68950900D01*
X80211300Y-60613800D02*
X84319000Y-64721500D01*
X84319000Y-65000000D02*
X84319000Y-65584900D01*
X81314900Y-69903200D02*
X79957400Y-71260700D01*
X77867800Y-68367800D02*
X79500000Y-70000000D01*
X75650500Y-68950900D02*
X76233600Y-68367800D01*
X84319000Y-65584900D02*
X81314900Y-68589000D01*
%TO.N,/HDMI_5V*%
X74622000Y-67037500D02*
X77825000Y-67037500D01*
X70500000Y-70000000D02*
X71659500Y-70000000D01*
X71659500Y-70000000D02*
X74622000Y-67037500D01*
%TO.N,/HDMI_HPD_5V*%
X80042200Y-61047200D02*
X79531300Y-61047200D01*
X81856400Y-67143600D02*
X81856400Y-62861400D01*
X81856400Y-62861400D02*
X80042200Y-61047200D01*
X79531300Y-61047200D02*
X75741000Y-64837500D01*
%TO.N,/I2C_SCL*%
X74177100Y-59903800D02*
X69597200Y-64483700D01*
X69597200Y-64483700D02*
X51161900Y-64483700D01*
%TO.N,/I2C_SDA*%
X53379900Y-59688500D02*
X70895800Y-59688500D01*
X51180500Y-61887900D02*
X53379900Y-59688500D01*
%TO.N,/HDMI_HPD*%
X50944300Y-57997000D02*
X70061100Y-57997000D01*
X70061100Y-57997000D02*
X71680600Y-59616500D01*
X71680600Y-59616500D02*
X71680600Y-60290200D01*
%TO.N,/VBUS*%
X73696600Y-51396000D02*
X74512900Y-51396000D01*
X74512900Y-51396000D02*
X76150500Y-53033600D01*
X71324600Y-53768000D02*
X73696600Y-51396000D01*
X76150500Y-53033600D02*
X76150500Y-61298200D01*
X74313100Y-63135600D02*
X74313100Y-64925000D01*
X76150500Y-61298200D02*
X74313100Y-63135600D01*
%TD*%
%TA.AperFunction,Conductor*%
%TO.N,/GND*%
G36*
X91004842Y-50300976D02*
G01*
X91126764Y-50312985D01*
X91145795Y-50316771D01*
X91166117Y-50322935D01*
X91258360Y-50350916D01*
X91276277Y-50358337D01*
X91380026Y-50413792D01*
X91396157Y-50424571D01*
X91487083Y-50499193D01*
X91500806Y-50512916D01*
X91575428Y-50603842D01*
X91586208Y-50619976D01*
X91641659Y-50723718D01*
X91649084Y-50741643D01*
X91683228Y-50854204D01*
X91687014Y-50873237D01*
X91699023Y-50995157D01*
X91699500Y-51004861D01*
X91699500Y-72995138D01*
X91699023Y-73004842D01*
X91687014Y-73126762D01*
X91683228Y-73145795D01*
X91649084Y-73258356D01*
X91641657Y-73276288D01*
X91586210Y-73380021D01*
X91575428Y-73396157D01*
X91500806Y-73487083D01*
X91487083Y-73500806D01*
X91396157Y-73575428D01*
X91380021Y-73586210D01*
X91328154Y-73613933D01*
X91276285Y-73641658D01*
X91258356Y-73649084D01*
X91145795Y-73683228D01*
X91126763Y-73687014D01*
X91020719Y-73697459D01*
X91004841Y-73699023D01*
X90995139Y-73699500D01*
X68004861Y-73699500D01*
X67995157Y-73699023D01*
X67873237Y-73687014D01*
X67854204Y-73683228D01*
X67741643Y-73649084D01*
X67723718Y-73641659D01*
X67619976Y-73586208D01*
X67603842Y-73575428D01*
X67512916Y-73500806D01*
X67499193Y-73487083D01*
X67424571Y-73396157D01*
X67413792Y-73380026D01*
X67358337Y-73276277D01*
X67350916Y-73258360D01*
X67316771Y-73145795D01*
X67312985Y-73126762D01*
X67300977Y-73004842D01*
X67300500Y-72995138D01*
X67300500Y-67397644D01*
X67300305Y-67395165D01*
X67300000Y-67387402D01*
X67300000Y-66200001D01*
X67300000Y-66200000D01*
X67299999Y-66200000D01*
X66112598Y-66200000D01*
X66104835Y-66199695D01*
X66102356Y-66199500D01*
X66102351Y-66199500D01*
X66039562Y-66199500D01*
X55847595Y-66199500D01*
X55800000Y-66199500D01*
X55697649Y-66199500D01*
X55697644Y-66199500D01*
X55695165Y-66199695D01*
X55687402Y-66200000D01*
X54500000Y-66200000D01*
X54500000Y-66200001D01*
X54500000Y-67387402D01*
X54499695Y-67395165D01*
X54499500Y-67397644D01*
X54499500Y-72995138D01*
X54499023Y-73004842D01*
X54487014Y-73126762D01*
X54483228Y-73145795D01*
X54449084Y-73258356D01*
X54441657Y-73276288D01*
X54386210Y-73380021D01*
X54375428Y-73396157D01*
X54300806Y-73487083D01*
X54287083Y-73500806D01*
X54196157Y-73575428D01*
X54180021Y-73586210D01*
X54128154Y-73613933D01*
X54076285Y-73641658D01*
X54058356Y-73649084D01*
X53945795Y-73683228D01*
X53926763Y-73687014D01*
X53820719Y-73697459D01*
X53804841Y-73699023D01*
X53795139Y-73699500D01*
X51004861Y-73699500D01*
X50995157Y-73699023D01*
X50873237Y-73687014D01*
X50854204Y-73683228D01*
X50741643Y-73649084D01*
X50723718Y-73641659D01*
X50619976Y-73586208D01*
X50603842Y-73575428D01*
X50512916Y-73500806D01*
X50499193Y-73487083D01*
X50424571Y-73396157D01*
X50413792Y-73380026D01*
X50358337Y-73276277D01*
X50350916Y-73258360D01*
X50316771Y-73145795D01*
X50312985Y-73126762D01*
X50300977Y-73004842D01*
X50300500Y-72995138D01*
X50300500Y-58252379D01*
X50319407Y-58194188D01*
X50368907Y-58158224D01*
X50430093Y-58158224D01*
X50479593Y-58194188D01*
X50485230Y-58202869D01*
X50543800Y-58304314D01*
X50636986Y-58397500D01*
X50636988Y-58397501D01*
X50636990Y-58397503D01*
X50751110Y-58463390D01*
X50751108Y-58463390D01*
X50751112Y-58463391D01*
X50751114Y-58463392D01*
X50878408Y-58497500D01*
X50878410Y-58497500D01*
X51010190Y-58497500D01*
X51010192Y-58497500D01*
X51137486Y-58463392D01*
X51137488Y-58463390D01*
X51137490Y-58463390D01*
X51251609Y-58397503D01*
X51251609Y-58397502D01*
X51251614Y-58397500D01*
X51322619Y-58326494D01*
X51377134Y-58298719D01*
X51392621Y-58297500D01*
X69895621Y-58297500D01*
X69953812Y-58316407D01*
X69965625Y-58326496D01*
X70711946Y-59072817D01*
X70739723Y-59127334D01*
X70730152Y-59187766D01*
X70691442Y-59228557D01*
X70588490Y-59287996D01*
X70588489Y-59287997D01*
X70588486Y-59287999D01*
X70588486Y-59288000D01*
X70517480Y-59359005D01*
X70462966Y-59386781D01*
X70447479Y-59388000D01*
X53340335Y-59388000D01*
X53263911Y-59408478D01*
X53263907Y-59408480D01*
X53195391Y-59448038D01*
X51285024Y-61358404D01*
X51230507Y-61386181D01*
X51215020Y-61387400D01*
X51114608Y-61387400D01*
X51036700Y-61408275D01*
X50987309Y-61421509D01*
X50873190Y-61487396D01*
X50779996Y-61580590D01*
X50714109Y-61694709D01*
X50714108Y-61694714D01*
X50680000Y-61822008D01*
X50680000Y-61953792D01*
X50710079Y-62066051D01*
X50714109Y-62081090D01*
X50779996Y-62195209D01*
X50779998Y-62195211D01*
X50780000Y-62195214D01*
X50873186Y-62288400D01*
X50873188Y-62288401D01*
X50873190Y-62288403D01*
X50987310Y-62354290D01*
X50987308Y-62354290D01*
X50987312Y-62354291D01*
X50987314Y-62354292D01*
X51114608Y-62388400D01*
X51114610Y-62388400D01*
X51246390Y-62388400D01*
X51246392Y-62388400D01*
X51373686Y-62354292D01*
X51373688Y-62354290D01*
X51373690Y-62354290D01*
X51487809Y-62288403D01*
X51487809Y-62288402D01*
X51487814Y-62288400D01*
X51581000Y-62195214D01*
X51646892Y-62081086D01*
X51681000Y-61953792D01*
X51681000Y-61853378D01*
X51699907Y-61795187D01*
X51709996Y-61783374D01*
X53475375Y-60017996D01*
X53529892Y-59990219D01*
X53545379Y-59989000D01*
X70447479Y-59989000D01*
X70505670Y-60007907D01*
X70517476Y-60017990D01*
X70588486Y-60089000D01*
X70588488Y-60089001D01*
X70588490Y-60089003D01*
X70702610Y-60154890D01*
X70702608Y-60154890D01*
X70702612Y-60154891D01*
X70702614Y-60154892D01*
X70829908Y-60189000D01*
X70829910Y-60189000D01*
X70961690Y-60189000D01*
X70961692Y-60189000D01*
X71055478Y-60163870D01*
X71116579Y-60167073D01*
X71164128Y-60205578D01*
X71180100Y-60259497D01*
X71180100Y-60356092D01*
X71193017Y-60404300D01*
X71214209Y-60483390D01*
X71280096Y-60597509D01*
X71280098Y-60597511D01*
X71280100Y-60597514D01*
X71373286Y-60690700D01*
X71373288Y-60690701D01*
X71373290Y-60690703D01*
X71487410Y-60756590D01*
X71487408Y-60756590D01*
X71487412Y-60756591D01*
X71487414Y-60756592D01*
X71614708Y-60790700D01*
X71614710Y-60790700D01*
X71746490Y-60790700D01*
X71746492Y-60790700D01*
X71873786Y-60756592D01*
X71873788Y-60756590D01*
X71873790Y-60756590D01*
X71987909Y-60690703D01*
X71987909Y-60690702D01*
X71987914Y-60690700D01*
X72081100Y-60597514D01*
X72146992Y-60483386D01*
X72181100Y-60356092D01*
X72181100Y-60224308D01*
X72146992Y-60097014D01*
X72146990Y-60097011D01*
X72146990Y-60097009D01*
X72081103Y-59982890D01*
X72081101Y-59982888D01*
X72081100Y-59982886D01*
X72010094Y-59911880D01*
X71982319Y-59857366D01*
X71981100Y-59841879D01*
X71981100Y-59576937D01*
X71981099Y-59576935D01*
X71978656Y-59567819D01*
X71960621Y-59500511D01*
X71921060Y-59431989D01*
X71897549Y-59408478D01*
X71865111Y-59376039D01*
X71865111Y-59376040D01*
X70245611Y-57756540D01*
X70206421Y-57733914D01*
X70206420Y-57733913D01*
X70206420Y-57733912D01*
X70206418Y-57733912D01*
X70196183Y-57728003D01*
X70177090Y-57716979D01*
X70177088Y-57716978D01*
X70100664Y-57696500D01*
X70100662Y-57696500D01*
X51392621Y-57696500D01*
X51334430Y-57677593D01*
X51322623Y-57667509D01*
X51251614Y-57596500D01*
X51251611Y-57596498D01*
X51251609Y-57596496D01*
X51137489Y-57530609D01*
X51137491Y-57530609D01*
X51088099Y-57517375D01*
X51010192Y-57496500D01*
X50878408Y-57496500D01*
X50800500Y-57517375D01*
X50751109Y-57530609D01*
X50636990Y-57596496D01*
X50543796Y-57689690D01*
X50485236Y-57791120D01*
X50439767Y-57832061D01*
X50378917Y-57838457D01*
X50325929Y-57807864D01*
X50301042Y-57751968D01*
X50300500Y-57741620D01*
X50300500Y-55696098D01*
X50319407Y-55637907D01*
X50368907Y-55601943D01*
X50430093Y-55601943D01*
X50479593Y-55637907D01*
X50485237Y-55646598D01*
X50487307Y-55650184D01*
X50487308Y-55650186D01*
X50553200Y-55764314D01*
X50646386Y-55857500D01*
X50646388Y-55857501D01*
X50646390Y-55857503D01*
X50760510Y-55923390D01*
X50760508Y-55923390D01*
X50760512Y-55923391D01*
X50760514Y-55923392D01*
X50887808Y-55957500D01*
X50887810Y-55957500D01*
X51019590Y-55957500D01*
X51019592Y-55957500D01*
X51146886Y-55923392D01*
X51146888Y-55923390D01*
X51146890Y-55923390D01*
X51261009Y-55857503D01*
X51261009Y-55857502D01*
X51261014Y-55857500D01*
X51332019Y-55786494D01*
X51386534Y-55758719D01*
X51402021Y-55757500D01*
X68614321Y-55757500D01*
X68672512Y-55776407D01*
X68684325Y-55786496D01*
X72370140Y-59472311D01*
X72370139Y-59472311D01*
X72426089Y-59528260D01*
X72494607Y-59567819D01*
X72494611Y-59567821D01*
X72571035Y-59588299D01*
X72571037Y-59588300D01*
X72571038Y-59588300D01*
X72650162Y-59588300D01*
X73614463Y-59588300D01*
X73672654Y-59607207D01*
X73708618Y-59656707D01*
X73710089Y-59712920D01*
X73682778Y-59814851D01*
X73676600Y-59837909D01*
X73676600Y-59938320D01*
X73657693Y-59996511D01*
X73647604Y-60008324D01*
X69501725Y-64154204D01*
X69447208Y-64181981D01*
X69431721Y-64183200D01*
X51610221Y-64183200D01*
X51552030Y-64164293D01*
X51540223Y-64154209D01*
X51469214Y-64083200D01*
X51469211Y-64083198D01*
X51469209Y-64083196D01*
X51355089Y-64017309D01*
X51355091Y-64017309D01*
X51288625Y-63999500D01*
X51227792Y-63983200D01*
X51096008Y-63983200D01*
X51035175Y-63999500D01*
X50968709Y-64017309D01*
X50854590Y-64083196D01*
X50761396Y-64176390D01*
X50695509Y-64290509D01*
X50695508Y-64290514D01*
X50661400Y-64417808D01*
X50661400Y-64549592D01*
X50679647Y-64617690D01*
X50695509Y-64676890D01*
X50761396Y-64791009D01*
X50761398Y-64791011D01*
X50761400Y-64791014D01*
X50854586Y-64884200D01*
X50854588Y-64884201D01*
X50854590Y-64884203D01*
X50968710Y-64950090D01*
X50968708Y-64950090D01*
X50968712Y-64950091D01*
X50968714Y-64950092D01*
X51096008Y-64984200D01*
X51096010Y-64984200D01*
X51227790Y-64984200D01*
X51227792Y-64984200D01*
X51355086Y-64950092D01*
X51355088Y-64950090D01*
X51355090Y-64950090D01*
X51469209Y-64884203D01*
X51469209Y-64884202D01*
X51469214Y-64884200D01*
X51540219Y-64813194D01*
X51594734Y-64785419D01*
X51610221Y-64784200D01*
X69587404Y-64784200D01*
X69645595Y-64803107D01*
X69681559Y-64852607D01*
X69681559Y-64913793D01*
X69673142Y-64932694D01*
X69664121Y-64948321D01*
X69635778Y-64997411D01*
X69615300Y-65073835D01*
X69615300Y-68024364D01*
X69635778Y-68100788D01*
X69635780Y-68100792D01*
X69651108Y-68127340D01*
X69675340Y-68169311D01*
X70244040Y-68738011D01*
X70244039Y-68738011D01*
X70299989Y-68793960D01*
X70368507Y-68833519D01*
X70368511Y-68833521D01*
X70444935Y-68853999D01*
X70444937Y-68854000D01*
X70444938Y-68854000D01*
X70524062Y-68854000D01*
X72141521Y-68854000D01*
X72199712Y-68872907D01*
X72235676Y-68922407D01*
X72235676Y-68983593D01*
X72211525Y-69023004D01*
X71564025Y-69670504D01*
X71509508Y-69698281D01*
X71494021Y-69699500D01*
X71194613Y-69699500D01*
X71136422Y-69680593D01*
X71112298Y-69655502D01*
X71081954Y-69610090D01*
X71044114Y-69553458D01*
X70946542Y-69455886D01*
X70946541Y-69455885D01*
X70831817Y-69379228D01*
X70831806Y-69379222D01*
X70704328Y-69326420D01*
X70568995Y-69299500D01*
X70568993Y-69299500D01*
X70431007Y-69299500D01*
X70431004Y-69299500D01*
X70295672Y-69326420D01*
X70295670Y-69326420D01*
X70168193Y-69379222D01*
X70168182Y-69379228D01*
X70053458Y-69455885D01*
X69955885Y-69553458D01*
X69879228Y-69668182D01*
X69879222Y-69668193D01*
X69826420Y-69795670D01*
X69826420Y-69795672D01*
X69799500Y-69931004D01*
X69799500Y-70068995D01*
X69826420Y-70204327D01*
X69826420Y-70204329D01*
X69879222Y-70331806D01*
X69879228Y-70331817D01*
X69955885Y-70446541D01*
X70053458Y-70544114D01*
X70168182Y-70620771D01*
X70168193Y-70620777D01*
X70215283Y-70640282D01*
X70295672Y-70673580D01*
X70431007Y-70700500D01*
X70431008Y-70700500D01*
X70568992Y-70700500D01*
X70568993Y-70700500D01*
X70704328Y-70673580D01*
X70831811Y-70620775D01*
X70845653Y-70611526D01*
X73065250Y-70611526D01*
X73144743Y-70664641D01*
X73281229Y-70721176D01*
X73281235Y-70721178D01*
X73426128Y-70749999D01*
X73426132Y-70750000D01*
X73573868Y-70750000D01*
X73573871Y-70749999D01*
X73718764Y-70721178D01*
X73718770Y-70721176D01*
X73855257Y-70664641D01*
X73934748Y-70611526D01*
X73499999Y-70176777D01*
X73065250Y-70611526D01*
X70845653Y-70611526D01*
X70946542Y-70544114D01*
X71044114Y-70446542D01*
X71104864Y-70355623D01*
X71112298Y-70344498D01*
X71160348Y-70306619D01*
X71194613Y-70300500D01*
X71699063Y-70300500D01*
X71699063Y-70300499D01*
X71775489Y-70280021D01*
X71844011Y-70240460D01*
X71899960Y-70184511D01*
X72158343Y-69926128D01*
X72750000Y-69926128D01*
X72750000Y-70073871D01*
X72778821Y-70218764D01*
X72778823Y-70218770D01*
X72835358Y-70355256D01*
X72835362Y-70355265D01*
X72888472Y-70434748D01*
X73323221Y-69999999D01*
X73676777Y-69999999D01*
X74111526Y-70434748D01*
X74164641Y-70355257D01*
X74221176Y-70218770D01*
X74221178Y-70218764D01*
X74249999Y-70073871D01*
X74250000Y-70073867D01*
X74250000Y-69926132D01*
X74249999Y-69926128D01*
X74221178Y-69781235D01*
X74221176Y-69781229D01*
X74164641Y-69644743D01*
X74111526Y-69565250D01*
X73676777Y-69999999D01*
X73323221Y-69999999D01*
X72888472Y-69565250D01*
X72835358Y-69644742D01*
X72778823Y-69781229D01*
X72778821Y-69781235D01*
X72750000Y-69926128D01*
X72158343Y-69926128D01*
X72695999Y-69388472D01*
X73065250Y-69388472D01*
X73499999Y-69823221D01*
X73934748Y-69388472D01*
X73855265Y-69335362D01*
X73855256Y-69335358D01*
X73718770Y-69278823D01*
X73718764Y-69278821D01*
X73573871Y-69250000D01*
X73426128Y-69250000D01*
X73281235Y-69278821D01*
X73281229Y-69278823D01*
X73144742Y-69335358D01*
X73065250Y-69388472D01*
X72695999Y-69388472D01*
X74717475Y-67366996D01*
X74771992Y-67339219D01*
X74787479Y-67338000D01*
X77376679Y-67338000D01*
X77434870Y-67356907D01*
X77446676Y-67366990D01*
X77517686Y-67438000D01*
X77517688Y-67438001D01*
X77517690Y-67438003D01*
X77631810Y-67503890D01*
X77631808Y-67503890D01*
X77631812Y-67503891D01*
X77631814Y-67503892D01*
X77759108Y-67538000D01*
X77759110Y-67538000D01*
X77890890Y-67538000D01*
X77890892Y-67538000D01*
X78018186Y-67503892D01*
X78018188Y-67503890D01*
X78018190Y-67503890D01*
X78132309Y-67438003D01*
X78132309Y-67438002D01*
X78132314Y-67438000D01*
X78225500Y-67344814D01*
X78291392Y-67230686D01*
X78325500Y-67103392D01*
X78325500Y-66971608D01*
X78291392Y-66844314D01*
X78291390Y-66844311D01*
X78291390Y-66844309D01*
X78225503Y-66730190D01*
X78225501Y-66730188D01*
X78225500Y-66730186D01*
X78132314Y-66637000D01*
X78132311Y-66636998D01*
X78132309Y-66636996D01*
X78018189Y-66571109D01*
X78018191Y-66571109D01*
X77968799Y-66557875D01*
X77890892Y-66537000D01*
X77759108Y-66537000D01*
X77681200Y-66557875D01*
X77631809Y-66571109D01*
X77517690Y-66636996D01*
X77517689Y-66636997D01*
X77517686Y-66636999D01*
X77517686Y-66637000D01*
X77446680Y-66708005D01*
X77392166Y-66735781D01*
X77376679Y-66737000D01*
X75047257Y-66737000D01*
X74989066Y-66718093D01*
X74953102Y-66668593D01*
X74951630Y-66612377D01*
X74971827Y-66537000D01*
X74985200Y-66487092D01*
X74985200Y-66355308D01*
X74951092Y-66228014D01*
X74951090Y-66228011D01*
X74951090Y-66228009D01*
X74885203Y-66113890D01*
X74885201Y-66113888D01*
X74885200Y-66113886D01*
X74792014Y-66020700D01*
X74749155Y-65995955D01*
X74708216Y-65950487D01*
X74701820Y-65889637D01*
X74728650Y-65840220D01*
X75314791Y-65254079D01*
X75369304Y-65226305D01*
X75429736Y-65235876D01*
X75434291Y-65238350D01*
X75547810Y-65303890D01*
X75547808Y-65303890D01*
X75547812Y-65303891D01*
X75547814Y-65303892D01*
X75675108Y-65338000D01*
X75675110Y-65338000D01*
X75806890Y-65338000D01*
X75806892Y-65338000D01*
X75934186Y-65303892D01*
X75934188Y-65303890D01*
X75934190Y-65303890D01*
X76048309Y-65238003D01*
X76048309Y-65238002D01*
X76048314Y-65238000D01*
X76141500Y-65144814D01*
X76141503Y-65144809D01*
X76207390Y-65030690D01*
X76207390Y-65030688D01*
X76207392Y-65030686D01*
X76241500Y-64903392D01*
X76241500Y-64802978D01*
X76260407Y-64744787D01*
X76270496Y-64732974D01*
X79626775Y-61376696D01*
X79681292Y-61348919D01*
X79696779Y-61347700D01*
X79876721Y-61347700D01*
X79934912Y-61366607D01*
X79946725Y-61376696D01*
X81526904Y-62956875D01*
X81554681Y-63011392D01*
X81555900Y-63026879D01*
X81555900Y-66695279D01*
X81536993Y-66753470D01*
X81526909Y-66765276D01*
X81455900Y-66836286D01*
X81455897Y-66836289D01*
X81455896Y-66836290D01*
X81390009Y-66950409D01*
X81390008Y-66950414D01*
X81355900Y-67077708D01*
X81355900Y-67209492D01*
X81361579Y-67230686D01*
X81390009Y-67336790D01*
X81455896Y-67450909D01*
X81455898Y-67450911D01*
X81455900Y-67450914D01*
X81549086Y-67544100D01*
X81549088Y-67544101D01*
X81549090Y-67544103D01*
X81663210Y-67609990D01*
X81663211Y-67609990D01*
X81663214Y-67609992D01*
X81663216Y-67609992D01*
X81669206Y-67612474D01*
X81668324Y-67614601D01*
X81711145Y-67642408D01*
X81733072Y-67699530D01*
X81717237Y-67758630D01*
X81704212Y-67774716D01*
X81151204Y-68327725D01*
X81096687Y-68355502D01*
X81036255Y-68345931D01*
X80992990Y-68302666D01*
X80982200Y-68257721D01*
X80982200Y-64948321D01*
X81001107Y-64890130D01*
X81011190Y-64878323D01*
X81082200Y-64807314D01*
X81084629Y-64803107D01*
X81148090Y-64693190D01*
X81148090Y-64693188D01*
X81148092Y-64693186D01*
X81182200Y-64565892D01*
X81182200Y-64434108D01*
X81148092Y-64306814D01*
X81148090Y-64306811D01*
X81148090Y-64306809D01*
X81082203Y-64192690D01*
X81082201Y-64192688D01*
X81082200Y-64192686D01*
X80989014Y-64099500D01*
X80989011Y-64099498D01*
X80989009Y-64099496D01*
X80874889Y-64033609D01*
X80874891Y-64033609D01*
X80825499Y-64020375D01*
X80747592Y-63999500D01*
X80615808Y-63999500D01*
X80537900Y-64020375D01*
X80488509Y-64033609D01*
X80374390Y-64099496D01*
X80281196Y-64192690D01*
X80215309Y-64306809D01*
X80215308Y-64306814D01*
X80181200Y-64434108D01*
X80181200Y-64565892D01*
X80210940Y-64676886D01*
X80215309Y-64693190D01*
X80281196Y-64807309D01*
X80281198Y-64807311D01*
X80281200Y-64807314D01*
X80352205Y-64878319D01*
X80379981Y-64932834D01*
X80381200Y-64948321D01*
X80381200Y-69802921D01*
X80362293Y-69861112D01*
X80352197Y-69872931D01*
X80346993Y-69878134D01*
X80292474Y-69905907D01*
X80232042Y-69896329D01*
X80188782Y-69853061D01*
X80179898Y-69827437D01*
X80179059Y-69823221D01*
X80173580Y-69795672D01*
X80133952Y-69700000D01*
X80120777Y-69668193D01*
X80120771Y-69668182D01*
X80044114Y-69553458D01*
X79946541Y-69455885D01*
X79831817Y-69379228D01*
X79831806Y-69379222D01*
X79704328Y-69326420D01*
X79568995Y-69299500D01*
X79568993Y-69299500D01*
X79431007Y-69299500D01*
X79431004Y-69299500D01*
X79310638Y-69323443D01*
X79249877Y-69316251D01*
X79221320Y-69296349D01*
X78638442Y-68713471D01*
X78052311Y-68127340D01*
X78052308Y-68127338D01*
X77983792Y-68087780D01*
X77983788Y-68087778D01*
X77907364Y-68067300D01*
X77907362Y-68067300D01*
X76194038Y-68067300D01*
X76194035Y-68067300D01*
X76117611Y-68087778D01*
X76117607Y-68087780D01*
X76049091Y-68127338D01*
X75465989Y-68710440D01*
X75465988Y-68710439D01*
X75410039Y-68766389D01*
X75370480Y-68834907D01*
X75370478Y-68834911D01*
X75350000Y-68911335D01*
X75350000Y-70329264D01*
X75370478Y-70405688D01*
X75370480Y-70405692D01*
X75394065Y-70446542D01*
X75410040Y-70474211D01*
X76381040Y-71445211D01*
X76381039Y-71445211D01*
X76436989Y-71501160D01*
X76505507Y-71540719D01*
X76505511Y-71540721D01*
X76581935Y-71561199D01*
X76581937Y-71561200D01*
X76581938Y-71561200D01*
X79996963Y-71561200D01*
X79996963Y-71561199D01*
X80073389Y-71540721D01*
X80141911Y-71501160D01*
X80197860Y-71445211D01*
X81555360Y-70087711D01*
X81557278Y-70084389D01*
X81594921Y-70019189D01*
X81594928Y-70019161D01*
X81594938Y-70019146D01*
X81597404Y-70013194D01*
X81598506Y-70013650D01*
X81628246Y-69967846D01*
X81685366Y-69945914D01*
X81744468Y-69961745D01*
X81760560Y-69974774D01*
X81812533Y-70026747D01*
X81812537Y-70026750D01*
X81976314Y-70136185D01*
X81976326Y-70136191D01*
X82158310Y-70211570D01*
X82351506Y-70249999D01*
X82351510Y-70250000D01*
X83224999Y-70250000D01*
X83225000Y-70249999D01*
X83225000Y-69700000D01*
X83475000Y-69700000D01*
X83475000Y-70249999D01*
X83475001Y-70250000D01*
X84348490Y-70250000D01*
X84348493Y-70249999D01*
X84541688Y-70211570D01*
X84541690Y-70211570D01*
X84723673Y-70136191D01*
X84723685Y-70136185D01*
X84887462Y-70026750D01*
X84887466Y-70026747D01*
X85026747Y-69887466D01*
X85026750Y-69887462D01*
X85136185Y-69723685D01*
X85136191Y-69723673D01*
X85211570Y-69541690D01*
X85211571Y-69541687D01*
X85244727Y-69375000D01*
X84682381Y-69375000D01*
X84700000Y-69309244D01*
X84700000Y-69190756D01*
X84682381Y-69125000D01*
X85244726Y-69125000D01*
X85244726Y-69124999D01*
X87755273Y-69124999D01*
X87755274Y-69125000D01*
X88317619Y-69125000D01*
X88300000Y-69190756D01*
X88300000Y-69309244D01*
X88317619Y-69375000D01*
X87755273Y-69375000D01*
X87788428Y-69541687D01*
X87788429Y-69541690D01*
X87863808Y-69723673D01*
X87863814Y-69723685D01*
X87973249Y-69887462D01*
X87973252Y-69887466D01*
X88112533Y-70026747D01*
X88112537Y-70026750D01*
X88276314Y-70136185D01*
X88276326Y-70136191D01*
X88458310Y-70211570D01*
X88651506Y-70249999D01*
X88651510Y-70250000D01*
X89224999Y-70250000D01*
X89225000Y-70249999D01*
X89225000Y-69700000D01*
X89475000Y-69700000D01*
X89475000Y-70249999D01*
X89475001Y-70250000D01*
X90048490Y-70250000D01*
X90048493Y-70249999D01*
X90241688Y-70211570D01*
X90241690Y-70211570D01*
X90423673Y-70136191D01*
X90423685Y-70136185D01*
X90587462Y-70026750D01*
X90587466Y-70026747D01*
X90726747Y-69887466D01*
X90726750Y-69887462D01*
X90836185Y-69723685D01*
X90836191Y-69723673D01*
X90911570Y-69541690D01*
X90911571Y-69541687D01*
X90944727Y-69375000D01*
X90382381Y-69375000D01*
X90400000Y-69309244D01*
X90400000Y-69190756D01*
X90382381Y-69125000D01*
X90944726Y-69125000D01*
X90944726Y-69124999D01*
X90911571Y-68958312D01*
X90911570Y-68958309D01*
X90836191Y-68776326D01*
X90836185Y-68776314D01*
X90726750Y-68612537D01*
X90726747Y-68612533D01*
X90587466Y-68473252D01*
X90587462Y-68473249D01*
X90423685Y-68363814D01*
X90423673Y-68363808D01*
X90241689Y-68288429D01*
X90048493Y-68250000D01*
X89475001Y-68250000D01*
X89475000Y-68250001D01*
X89475000Y-68800000D01*
X89225000Y-68800000D01*
X89225000Y-68250001D01*
X89224999Y-68250000D01*
X88651506Y-68250000D01*
X88458311Y-68288429D01*
X88458309Y-68288429D01*
X88276326Y-68363808D01*
X88276314Y-68363814D01*
X88112537Y-68473249D01*
X88112533Y-68473252D01*
X87973252Y-68612533D01*
X87973249Y-68612537D01*
X87863814Y-68776314D01*
X87863808Y-68776326D01*
X87788429Y-68958309D01*
X87788428Y-68958312D01*
X87755273Y-69124999D01*
X85244726Y-69124999D01*
X85211571Y-68958312D01*
X85211570Y-68958309D01*
X85136191Y-68776326D01*
X85136185Y-68776314D01*
X85026750Y-68612537D01*
X85026747Y-68612533D01*
X84887466Y-68473252D01*
X84887462Y-68473249D01*
X84723685Y-68363814D01*
X84723673Y-68363808D01*
X84541689Y-68288429D01*
X84348493Y-68250000D01*
X83475001Y-68250000D01*
X83475000Y-68250001D01*
X83475000Y-68800000D01*
X83225000Y-68800000D01*
X83225000Y-68250001D01*
X83224999Y-68250000D01*
X82351510Y-68250000D01*
X82351496Y-68250001D01*
X82331259Y-68254026D01*
X82270498Y-68246833D01*
X82225570Y-68205298D01*
X82213636Y-68145288D01*
X82239254Y-68089724D01*
X82241895Y-68086975D01*
X84559460Y-65769411D01*
X84585453Y-65724389D01*
X84599021Y-65700889D01*
X84619500Y-65624462D01*
X84619500Y-65448321D01*
X84638407Y-65390130D01*
X84648490Y-65378323D01*
X84719500Y-65307314D01*
X84753093Y-65249129D01*
X84785390Y-65193190D01*
X84785390Y-65193188D01*
X84785392Y-65193186D01*
X84819500Y-65065892D01*
X84819500Y-64934108D01*
X84785392Y-64806814D01*
X84785390Y-64806811D01*
X84785390Y-64806809D01*
X84719503Y-64692690D01*
X84719501Y-64692688D01*
X84719500Y-64692686D01*
X84626314Y-64599500D01*
X84603141Y-64586121D01*
X84566905Y-64549885D01*
X84566735Y-64549590D01*
X84559460Y-64536989D01*
X84543036Y-64520565D01*
X84503511Y-64481039D01*
X84503511Y-64481040D01*
X80395811Y-60373340D01*
X80365936Y-60356092D01*
X80365935Y-60356091D01*
X80365934Y-60356091D01*
X80327289Y-60333779D01*
X80327286Y-60333778D01*
X80250864Y-60313300D01*
X80250862Y-60313300D01*
X78906962Y-60313300D01*
X78827838Y-60313300D01*
X78781061Y-60325833D01*
X78751407Y-60333779D01*
X78682893Y-60373336D01*
X78682892Y-60373337D01*
X75837124Y-63219104D01*
X75782607Y-63246881D01*
X75767120Y-63248100D01*
X75666708Y-63248100D01*
X75636213Y-63256271D01*
X75555822Y-63277811D01*
X75494721Y-63274608D01*
X75447171Y-63236103D01*
X75431200Y-63182184D01*
X75431200Y-63088478D01*
X75450107Y-63030287D01*
X75460190Y-63018480D01*
X77224060Y-61254611D01*
X77237281Y-61231711D01*
X77263621Y-61186089D01*
X77284100Y-61109662D01*
X77284100Y-55325978D01*
X77303007Y-55267787D01*
X77313090Y-55255980D01*
X77944071Y-54624999D01*
X81455273Y-54624999D01*
X81455274Y-54625000D01*
X82017619Y-54625000D01*
X82000000Y-54690756D01*
X82000000Y-54809244D01*
X82017619Y-54875000D01*
X81455273Y-54875000D01*
X81488428Y-55041687D01*
X81488429Y-55041690D01*
X81563808Y-55223673D01*
X81563814Y-55223685D01*
X81673249Y-55387462D01*
X81673252Y-55387466D01*
X81812533Y-55526747D01*
X81812537Y-55526750D01*
X81976314Y-55636185D01*
X81976326Y-55636191D01*
X82158310Y-55711570D01*
X82351506Y-55749999D01*
X82351510Y-55750000D01*
X83224999Y-55750000D01*
X83225000Y-55749999D01*
X83225000Y-55200000D01*
X83475000Y-55200000D01*
X83475000Y-55749999D01*
X83475001Y-55750000D01*
X84348490Y-55750000D01*
X84348493Y-55749999D01*
X84541688Y-55711570D01*
X84541690Y-55711570D01*
X84723673Y-55636191D01*
X84723685Y-55636185D01*
X84887462Y-55526750D01*
X84887466Y-55526747D01*
X85026747Y-55387466D01*
X85026750Y-55387462D01*
X85136185Y-55223685D01*
X85136191Y-55223673D01*
X85211570Y-55041690D01*
X85211571Y-55041687D01*
X85244727Y-54875000D01*
X84682381Y-54875000D01*
X84700000Y-54809244D01*
X84700000Y-54690756D01*
X84682381Y-54625000D01*
X85244726Y-54625000D01*
X85244726Y-54624999D01*
X87755273Y-54624999D01*
X87755274Y-54625000D01*
X88317619Y-54625000D01*
X88300000Y-54690756D01*
X88300000Y-54809244D01*
X88317619Y-54875000D01*
X87755273Y-54875000D01*
X87788428Y-55041687D01*
X87788429Y-55041690D01*
X87863808Y-55223673D01*
X87863814Y-55223685D01*
X87973249Y-55387462D01*
X87973252Y-55387466D01*
X88112533Y-55526747D01*
X88112537Y-55526750D01*
X88276314Y-55636185D01*
X88276326Y-55636191D01*
X88458310Y-55711570D01*
X88651506Y-55749999D01*
X88651510Y-55750000D01*
X89224999Y-55750000D01*
X89225000Y-55749999D01*
X89225000Y-55200000D01*
X89475000Y-55200000D01*
X89475000Y-55749999D01*
X89475001Y-55750000D01*
X90048490Y-55750000D01*
X90048493Y-55749999D01*
X90241688Y-55711570D01*
X90241690Y-55711570D01*
X90423673Y-55636191D01*
X90423685Y-55636185D01*
X90587462Y-55526750D01*
X90587466Y-55526747D01*
X90726747Y-55387466D01*
X90726750Y-55387462D01*
X90836185Y-55223685D01*
X90836191Y-55223673D01*
X90911570Y-55041690D01*
X90911571Y-55041687D01*
X90944727Y-54875000D01*
X90382381Y-54875000D01*
X90400000Y-54809244D01*
X90400000Y-54690756D01*
X90382381Y-54625000D01*
X90944726Y-54625000D01*
X90944726Y-54624999D01*
X90911571Y-54458312D01*
X90911570Y-54458309D01*
X90836191Y-54276326D01*
X90836185Y-54276314D01*
X90726750Y-54112537D01*
X90726747Y-54112533D01*
X90587466Y-53973252D01*
X90587462Y-53973249D01*
X90423685Y-53863814D01*
X90423673Y-53863808D01*
X90241689Y-53788429D01*
X90048493Y-53750000D01*
X89475001Y-53750000D01*
X89475000Y-53750001D01*
X89475000Y-54300000D01*
X89225000Y-54300000D01*
X89225000Y-53750001D01*
X89224999Y-53750000D01*
X88651506Y-53750000D01*
X88458311Y-53788429D01*
X88458309Y-53788429D01*
X88276326Y-53863808D01*
X88276314Y-53863814D01*
X88112537Y-53973249D01*
X88112533Y-53973252D01*
X87973252Y-54112533D01*
X87973249Y-54112537D01*
X87863814Y-54276314D01*
X87863808Y-54276326D01*
X87788429Y-54458309D01*
X87788428Y-54458312D01*
X87755273Y-54624999D01*
X85244726Y-54624999D01*
X85211571Y-54458312D01*
X85211570Y-54458309D01*
X85136191Y-54276326D01*
X85136185Y-54276314D01*
X85026750Y-54112537D01*
X85026747Y-54112533D01*
X84887466Y-53973252D01*
X84887462Y-53973249D01*
X84723685Y-53863814D01*
X84723673Y-53863808D01*
X84541689Y-53788429D01*
X84348493Y-53750000D01*
X83475001Y-53750000D01*
X83475000Y-53750001D01*
X83475000Y-54300000D01*
X83225000Y-54300000D01*
X83225000Y-53750001D01*
X83224999Y-53750000D01*
X82351506Y-53750000D01*
X82158311Y-53788429D01*
X82158309Y-53788429D01*
X81976326Y-53863808D01*
X81976314Y-53863814D01*
X81812537Y-53973249D01*
X81812533Y-53973252D01*
X81673252Y-54112533D01*
X81673249Y-54112537D01*
X81563814Y-54276314D01*
X81563808Y-54276326D01*
X81488429Y-54458309D01*
X81488428Y-54458312D01*
X81455273Y-54624999D01*
X77944071Y-54624999D01*
X80215674Y-52353395D01*
X80270191Y-52325619D01*
X80285678Y-52324400D01*
X80386090Y-52324400D01*
X80386092Y-52324400D01*
X80513386Y-52290292D01*
X80513388Y-52290290D01*
X80513390Y-52290290D01*
X80627509Y-52224403D01*
X80627509Y-52224402D01*
X80627514Y-52224400D01*
X80720700Y-52131214D01*
X80786592Y-52017086D01*
X80820700Y-51889792D01*
X80820700Y-51758008D01*
X80786592Y-51630714D01*
X80786590Y-51630711D01*
X80786590Y-51630709D01*
X80720703Y-51516590D01*
X80720701Y-51516588D01*
X80720700Y-51516586D01*
X80627514Y-51423400D01*
X80627511Y-51423398D01*
X80627509Y-51423396D01*
X80513389Y-51357509D01*
X80513391Y-51357509D01*
X80463999Y-51344275D01*
X80386092Y-51323400D01*
X80254308Y-51323400D01*
X80176400Y-51344275D01*
X80127009Y-51357509D01*
X80012890Y-51423396D01*
X79919696Y-51516590D01*
X79853809Y-51630709D01*
X79819700Y-51758009D01*
X79819700Y-51858420D01*
X79800793Y-51916611D01*
X79790704Y-51928424D01*
X76799089Y-54920040D01*
X76799088Y-54920039D01*
X76743139Y-54975989D01*
X76703580Y-55044507D01*
X76703578Y-55044511D01*
X76683100Y-55120935D01*
X76683100Y-60904621D01*
X76664193Y-60962812D01*
X76654104Y-60974625D01*
X76620004Y-61008725D01*
X76565487Y-61036502D01*
X76505055Y-61026931D01*
X76461790Y-60983666D01*
X76451000Y-60938721D01*
X76451000Y-52994037D01*
X76450999Y-52994035D01*
X76430521Y-52917611D01*
X76430519Y-52917607D01*
X76390960Y-52849089D01*
X76335011Y-52793139D01*
X76335011Y-52793140D01*
X74697411Y-51155540D01*
X74693368Y-51153206D01*
X74667247Y-51138124D01*
X74667247Y-51138125D01*
X74628889Y-51115979D01*
X74628888Y-51115978D01*
X74628887Y-51115978D01*
X74552464Y-51095500D01*
X74552462Y-51095500D01*
X73736162Y-51095500D01*
X73657038Y-51095500D01*
X73616000Y-51106496D01*
X73580607Y-51115979D01*
X73512093Y-51155536D01*
X73512092Y-51155537D01*
X71429124Y-53238504D01*
X71374607Y-53266281D01*
X71359120Y-53267500D01*
X71258708Y-53267500D01*
X71180800Y-53288375D01*
X71131409Y-53301609D01*
X71017290Y-53367496D01*
X70924096Y-53460690D01*
X70858209Y-53574809D01*
X70858208Y-53574814D01*
X70824100Y-53702108D01*
X70824100Y-53833892D01*
X70854179Y-53946151D01*
X70858209Y-53961190D01*
X70924096Y-54075309D01*
X70924098Y-54075311D01*
X70924100Y-54075314D01*
X71017286Y-54168500D01*
X71017288Y-54168501D01*
X71017290Y-54168503D01*
X71131410Y-54234390D01*
X71131408Y-54234390D01*
X71131412Y-54234391D01*
X71131414Y-54234392D01*
X71258708Y-54268500D01*
X71258710Y-54268500D01*
X71390490Y-54268500D01*
X71390492Y-54268500D01*
X71517786Y-54234392D01*
X71517788Y-54234390D01*
X71517790Y-54234390D01*
X71631909Y-54168503D01*
X71631909Y-54168502D01*
X71631914Y-54168500D01*
X71725100Y-54075314D01*
X71784026Y-53973252D01*
X71790990Y-53961190D01*
X71790990Y-53961188D01*
X71790992Y-53961186D01*
X71825100Y-53833892D01*
X71825100Y-53733478D01*
X71844007Y-53675287D01*
X71854096Y-53663474D01*
X72724431Y-52793139D01*
X73596297Y-51921273D01*
X73650813Y-51893497D01*
X73711245Y-51903068D01*
X73754510Y-51946333D01*
X73765300Y-51991278D01*
X73765300Y-52065892D01*
X73782803Y-52131214D01*
X73799409Y-52193190D01*
X73865296Y-52307309D01*
X73865298Y-52307311D01*
X73865300Y-52307314D01*
X73958486Y-52400500D01*
X73958488Y-52400501D01*
X73958490Y-52400503D01*
X74072610Y-52466390D01*
X74072608Y-52466390D01*
X74072612Y-52466391D01*
X74072614Y-52466392D01*
X74199908Y-52500500D01*
X74199910Y-52500500D01*
X74300321Y-52500500D01*
X74358512Y-52519407D01*
X74370325Y-52529496D01*
X74875218Y-53034389D01*
X74902995Y-53088906D01*
X74893424Y-53149338D01*
X74850159Y-53192603D01*
X74818139Y-53202546D01*
X74816209Y-53202800D01*
X74816208Y-53202800D01*
X74760078Y-53217839D01*
X74688909Y-53236909D01*
X74574790Y-53302796D01*
X74481596Y-53395990D01*
X74415709Y-53510109D01*
X74381600Y-53637409D01*
X74381600Y-53737820D01*
X74362693Y-53796011D01*
X74352604Y-53807824D01*
X72449889Y-55710540D01*
X72449888Y-55710539D01*
X72393939Y-55766489D01*
X72354380Y-55835007D01*
X72354378Y-55835011D01*
X72333900Y-55911435D01*
X72333900Y-56978279D01*
X72314993Y-57036470D01*
X72304909Y-57048276D01*
X72242722Y-57110464D01*
X72233898Y-57119288D01*
X72171309Y-57227695D01*
X72125839Y-57268635D01*
X72064989Y-57275030D01*
X72015569Y-57248198D01*
X71877896Y-57110525D01*
X71850119Y-57056008D01*
X71848900Y-57040521D01*
X71848900Y-56940109D01*
X71846863Y-56932507D01*
X71814792Y-56812814D01*
X71814790Y-56812811D01*
X71814790Y-56812809D01*
X71748903Y-56698690D01*
X71748901Y-56698688D01*
X71748900Y-56698686D01*
X71655714Y-56605500D01*
X71655711Y-56605498D01*
X71655709Y-56605496D01*
X71541589Y-56539609D01*
X71541591Y-56539609D01*
X71492199Y-56526375D01*
X71414292Y-56505500D01*
X71313879Y-56505500D01*
X71255688Y-56486593D01*
X71243875Y-56476504D01*
X68728557Y-53961186D01*
X66033911Y-51266540D01*
X66033908Y-51266538D01*
X65965392Y-51226980D01*
X65965388Y-51226978D01*
X65888964Y-51206500D01*
X65888962Y-51206500D01*
X51873321Y-51206500D01*
X51815130Y-51187593D01*
X51803323Y-51177509D01*
X51732314Y-51106500D01*
X51732311Y-51106498D01*
X51732309Y-51106496D01*
X51618189Y-51040609D01*
X51618191Y-51040609D01*
X51568799Y-51027375D01*
X51490892Y-51006500D01*
X51359108Y-51006500D01*
X51281200Y-51027375D01*
X51231809Y-51040609D01*
X51117690Y-51106496D01*
X51024496Y-51199690D01*
X50958609Y-51313809D01*
X50958608Y-51313814D01*
X50924500Y-51441108D01*
X50924500Y-51572892D01*
X50939992Y-51630709D01*
X50958609Y-51700190D01*
X51024496Y-51814309D01*
X51024498Y-51814311D01*
X51024500Y-51814314D01*
X51117686Y-51907500D01*
X51117688Y-51907501D01*
X51117690Y-51907503D01*
X51231810Y-51973390D01*
X51231808Y-51973390D01*
X51231812Y-51973391D01*
X51231814Y-51973392D01*
X51359108Y-52007500D01*
X51359110Y-52007500D01*
X51490890Y-52007500D01*
X51490892Y-52007500D01*
X51618186Y-51973392D01*
X51618188Y-51973390D01*
X51618190Y-51973390D01*
X51732309Y-51907503D01*
X51732309Y-51907502D01*
X51732314Y-51907500D01*
X51803319Y-51836494D01*
X51857834Y-51808719D01*
X51873321Y-51807500D01*
X65683921Y-51807500D01*
X65742112Y-51826407D01*
X65753925Y-51836496D01*
X68906300Y-54988871D01*
X68934077Y-55043388D01*
X68924506Y-55103820D01*
X68881241Y-55147085D01*
X68823375Y-55157028D01*
X68819364Y-55156500D01*
X68819362Y-55156500D01*
X51402021Y-55156500D01*
X51343830Y-55137593D01*
X51332023Y-55127509D01*
X51261014Y-55056500D01*
X51261011Y-55056498D01*
X51261009Y-55056496D01*
X51146889Y-54990609D01*
X51146891Y-54990609D01*
X51097499Y-54977375D01*
X51019592Y-54956500D01*
X50887808Y-54956500D01*
X50809900Y-54977375D01*
X50760509Y-54990609D01*
X50646390Y-55056496D01*
X50553196Y-55149690D01*
X50485236Y-55267401D01*
X50439767Y-55308342D01*
X50378916Y-55314738D01*
X50325928Y-55284145D01*
X50301042Y-55228249D01*
X50300500Y-55217901D01*
X50300500Y-51004861D01*
X50300977Y-50995157D01*
X50312985Y-50873237D01*
X50316771Y-50854204D01*
X50350918Y-50741635D01*
X50358335Y-50723726D01*
X50413795Y-50619968D01*
X50424567Y-50603846D01*
X50499195Y-50512913D01*
X50512913Y-50499195D01*
X50603846Y-50424567D01*
X50619968Y-50413795D01*
X50723726Y-50358335D01*
X50741635Y-50350918D01*
X50854205Y-50316770D01*
X50873233Y-50312985D01*
X50995157Y-50300976D01*
X51004861Y-50300500D01*
X51047594Y-50300500D01*
X90952406Y-50300500D01*
X90995139Y-50300500D01*
X91004842Y-50300976D01*
G37*
%TD.AperFunction*%
%TD*%
M02*
