%TF.GenerationSoftware,KiCad,Pcbnew,10.0.6-1.fc44*%
%TF.CreationDate,2026-09-12T21:49:49+02:00*%
%TF.ProjectId,hdmi2c,68646d69-3263-42e6-9b69-6361645f7063,rev2*%
%TF.SameCoordinates,Original*%
%TF.FileFunction,Legend,Top*%
%TF.FilePolarity,Positive*%
%FSLAX46Y46*%
G04 Gerber Fmt 4.6, Leading zero omitted, Abs format (unit mm)*
G04 Created by KiCad (PCBNEW 10.0.6-1.fc44) date 2026-09-12 21:49:49*
%MOMM*%
%LPD*%
G01*
G04 APERTURE LIST*
%ADD10C,0.150000*%
G04 APERTURE END LIST*
D10*
X69152381Y-72454819D02*
X69152381Y-71454819D01*
X69152381Y-71931009D02*
X69723809Y-71931009D01*
X69723809Y-72454819D02*
X69723809Y-71454819D01*
X70200000Y-72454819D02*
X70200000Y-71454819D01*
X70200000Y-71454819D02*
X70438095Y-71454819D01*
X70438095Y-71454819D02*
X70580952Y-71502438D01*
X70580952Y-71502438D02*
X70676190Y-71597676D01*
X70676190Y-71597676D02*
X70723809Y-71692914D01*
X70723809Y-71692914D02*
X70771428Y-71883390D01*
X70771428Y-71883390D02*
X70771428Y-72026247D01*
X70771428Y-72026247D02*
X70723809Y-72216723D01*
X70723809Y-72216723D02*
X70676190Y-72311961D01*
X70676190Y-72311961D02*
X70580952Y-72407200D01*
X70580952Y-72407200D02*
X70438095Y-72454819D01*
X70438095Y-72454819D02*
X70200000Y-72454819D01*
X71200000Y-72454819D02*
X71200000Y-71454819D01*
X71200000Y-71454819D02*
X71533333Y-72169104D01*
X71533333Y-72169104D02*
X71866666Y-71454819D01*
X71866666Y-71454819D02*
X71866666Y-72454819D01*
X72342857Y-72454819D02*
X72342857Y-71454819D01*
X72771428Y-71550057D02*
X72819047Y-71502438D01*
X72819047Y-71502438D02*
X72914285Y-71454819D01*
X72914285Y-71454819D02*
X73152380Y-71454819D01*
X73152380Y-71454819D02*
X73247618Y-71502438D01*
X73247618Y-71502438D02*
X73295237Y-71550057D01*
X73295237Y-71550057D02*
X73342856Y-71645295D01*
X73342856Y-71645295D02*
X73342856Y-71740533D01*
X73342856Y-71740533D02*
X73295237Y-71883390D01*
X73295237Y-71883390D02*
X72723809Y-72454819D01*
X72723809Y-72454819D02*
X73342856Y-72454819D01*
X74342856Y-72359580D02*
X74295237Y-72407200D01*
X74295237Y-72407200D02*
X74152380Y-72454819D01*
X74152380Y-72454819D02*
X74057142Y-72454819D01*
X74057142Y-72454819D02*
X73914285Y-72407200D01*
X73914285Y-72407200D02*
X73819047Y-72311961D01*
X73819047Y-72311961D02*
X73771428Y-72216723D01*
X73771428Y-72216723D02*
X73723809Y-72026247D01*
X73723809Y-72026247D02*
X73723809Y-71883390D01*
X73723809Y-71883390D02*
X73771428Y-71692914D01*
X73771428Y-71692914D02*
X73819047Y-71597676D01*
X73819047Y-71597676D02*
X73914285Y-71502438D01*
X73914285Y-71502438D02*
X74057142Y-71454819D01*
X74057142Y-71454819D02*
X74152380Y-71454819D01*
X74152380Y-71454819D02*
X74295237Y-71502438D01*
X74295237Y-71502438D02*
X74342856Y-71550057D01*
X75533333Y-72454819D02*
X75533333Y-71788152D01*
X75533333Y-71978628D02*
X75580952Y-71883390D01*
X75580952Y-71883390D02*
X75628571Y-71835771D01*
X75628571Y-71835771D02*
X75723809Y-71788152D01*
X75723809Y-71788152D02*
X75819047Y-71788152D01*
X76533333Y-72407200D02*
X76438095Y-72454819D01*
X76438095Y-72454819D02*
X76247619Y-72454819D01*
X76247619Y-72454819D02*
X76152381Y-72407200D01*
X76152381Y-72407200D02*
X76104762Y-72311961D01*
X76104762Y-72311961D02*
X76104762Y-71931009D01*
X76104762Y-71931009D02*
X76152381Y-71835771D01*
X76152381Y-71835771D02*
X76247619Y-71788152D01*
X76247619Y-71788152D02*
X76438095Y-71788152D01*
X76438095Y-71788152D02*
X76533333Y-71835771D01*
X76533333Y-71835771D02*
X76580952Y-71931009D01*
X76580952Y-71931009D02*
X76580952Y-72026247D01*
X76580952Y-72026247D02*
X76104762Y-72121485D01*
X76914286Y-71788152D02*
X77152381Y-72454819D01*
X77152381Y-72454819D02*
X77390476Y-71788152D01*
X77723810Y-71550057D02*
X77771429Y-71502438D01*
X77771429Y-71502438D02*
X77866667Y-71454819D01*
X77866667Y-71454819D02*
X78104762Y-71454819D01*
X78104762Y-71454819D02*
X78200000Y-71502438D01*
X78200000Y-71502438D02*
X78247619Y-71550057D01*
X78247619Y-71550057D02*
X78295238Y-71645295D01*
X78295238Y-71645295D02*
X78295238Y-71740533D01*
X78295238Y-71740533D02*
X78247619Y-71883390D01*
X78247619Y-71883390D02*
X77676191Y-72454819D01*
X77676191Y-72454819D02*
X78295238Y-72454819D01*
X69766667Y-51307200D02*
X69909524Y-51354819D01*
X69909524Y-51354819D02*
X70147619Y-51354819D01*
X70147619Y-51354819D02*
X70242857Y-51307200D01*
X70242857Y-51307200D02*
X70290476Y-51259580D01*
X70290476Y-51259580D02*
X70338095Y-51164342D01*
X70338095Y-51164342D02*
X70338095Y-51069104D01*
X70338095Y-51069104D02*
X70290476Y-50973866D01*
X70290476Y-50973866D02*
X70242857Y-50926247D01*
X70242857Y-50926247D02*
X70147619Y-50878628D01*
X70147619Y-50878628D02*
X69957143Y-50831009D01*
X69957143Y-50831009D02*
X69861905Y-50783390D01*
X69861905Y-50783390D02*
X69814286Y-50735771D01*
X69814286Y-50735771D02*
X69766667Y-50640533D01*
X69766667Y-50640533D02*
X69766667Y-50545295D01*
X69766667Y-50545295D02*
X69814286Y-50450057D01*
X69814286Y-50450057D02*
X69861905Y-50402438D01*
X69861905Y-50402438D02*
X69957143Y-50354819D01*
X69957143Y-50354819D02*
X70195238Y-50354819D01*
X70195238Y-50354819D02*
X70338095Y-50402438D01*
X70671429Y-50354819D02*
X70909524Y-51354819D01*
X70909524Y-51354819D02*
X71100000Y-50640533D01*
X71100000Y-50640533D02*
X71290476Y-51354819D01*
X71290476Y-51354819D02*
X71528572Y-50354819D01*
X71861905Y-50450057D02*
X71909524Y-50402438D01*
X71909524Y-50402438D02*
X72004762Y-50354819D01*
X72004762Y-50354819D02*
X72242857Y-50354819D01*
X72242857Y-50354819D02*
X72338095Y-50402438D01*
X72338095Y-50402438D02*
X72385714Y-50450057D01*
X72385714Y-50450057D02*
X72433333Y-50545295D01*
X72433333Y-50545295D02*
X72433333Y-50640533D01*
X72433333Y-50640533D02*
X72385714Y-50783390D01*
X72385714Y-50783390D02*
X71814286Y-51354819D01*
X71814286Y-51354819D02*
X72433333Y-51354819D01*
X86266667Y-51907200D02*
X86409524Y-51954819D01*
X86409524Y-51954819D02*
X86647619Y-51954819D01*
X86647619Y-51954819D02*
X86742857Y-51907200D01*
X86742857Y-51907200D02*
X86790476Y-51859580D01*
X86790476Y-51859580D02*
X86838095Y-51764342D01*
X86838095Y-51764342D02*
X86838095Y-51669104D01*
X86838095Y-51669104D02*
X86790476Y-51573866D01*
X86790476Y-51573866D02*
X86742857Y-51526247D01*
X86742857Y-51526247D02*
X86647619Y-51478628D01*
X86647619Y-51478628D02*
X86457143Y-51431009D01*
X86457143Y-51431009D02*
X86361905Y-51383390D01*
X86361905Y-51383390D02*
X86314286Y-51335771D01*
X86314286Y-51335771D02*
X86266667Y-51240533D01*
X86266667Y-51240533D02*
X86266667Y-51145295D01*
X86266667Y-51145295D02*
X86314286Y-51050057D01*
X86314286Y-51050057D02*
X86361905Y-51002438D01*
X86361905Y-51002438D02*
X86457143Y-50954819D01*
X86457143Y-50954819D02*
X86695238Y-50954819D01*
X86695238Y-50954819D02*
X86838095Y-51002438D01*
X87171429Y-50954819D02*
X87409524Y-51954819D01*
X87409524Y-51954819D02*
X87600000Y-51240533D01*
X87600000Y-51240533D02*
X87790476Y-51954819D01*
X87790476Y-51954819D02*
X88028572Y-50954819D01*
X88314286Y-50954819D02*
X88933333Y-50954819D01*
X88933333Y-50954819D02*
X88600000Y-51335771D01*
X88600000Y-51335771D02*
X88742857Y-51335771D01*
X88742857Y-51335771D02*
X88838095Y-51383390D01*
X88838095Y-51383390D02*
X88885714Y-51431009D01*
X88885714Y-51431009D02*
X88933333Y-51526247D01*
X88933333Y-51526247D02*
X88933333Y-51764342D01*
X88933333Y-51764342D02*
X88885714Y-51859580D01*
X88885714Y-51859580D02*
X88838095Y-51907200D01*
X88838095Y-51907200D02*
X88742857Y-51954819D01*
X88742857Y-51954819D02*
X88457143Y-51954819D01*
X88457143Y-51954819D02*
X88361905Y-51907200D01*
X88361905Y-51907200D02*
X88314286Y-51859580D01*
X70438095Y-61454819D02*
X70438095Y-62264342D01*
X70438095Y-62264342D02*
X70485714Y-62359580D01*
X70485714Y-62359580D02*
X70533333Y-62407200D01*
X70533333Y-62407200D02*
X70628571Y-62454819D01*
X70628571Y-62454819D02*
X70819047Y-62454819D01*
X70819047Y-62454819D02*
X70914285Y-62407200D01*
X70914285Y-62407200D02*
X70961904Y-62359580D01*
X70961904Y-62359580D02*
X71009523Y-62264342D01*
X71009523Y-62264342D02*
X71009523Y-61454819D01*
X71914285Y-61788152D02*
X71914285Y-62454819D01*
X71676190Y-61407200D02*
X71438095Y-62121485D01*
X71438095Y-62121485D02*
X72057142Y-62121485D01*
X72833333Y-70359580D02*
X72785714Y-70407200D01*
X72785714Y-70407200D02*
X72642857Y-70454819D01*
X72642857Y-70454819D02*
X72547619Y-70454819D01*
X72547619Y-70454819D02*
X72404762Y-70407200D01*
X72404762Y-70407200D02*
X72309524Y-70311961D01*
X72309524Y-70311961D02*
X72261905Y-70216723D01*
X72261905Y-70216723D02*
X72214286Y-70026247D01*
X72214286Y-70026247D02*
X72214286Y-69883390D01*
X72214286Y-69883390D02*
X72261905Y-69692914D01*
X72261905Y-69692914D02*
X72309524Y-69597676D01*
X72309524Y-69597676D02*
X72404762Y-69502438D01*
X72404762Y-69502438D02*
X72547619Y-69454819D01*
X72547619Y-69454819D02*
X72642857Y-69454819D01*
X72642857Y-69454819D02*
X72785714Y-69502438D01*
X72785714Y-69502438D02*
X72833333Y-69550057D01*
X73785714Y-70454819D02*
X73214286Y-70454819D01*
X73500000Y-70454819D02*
X73500000Y-69454819D01*
X73500000Y-69454819D02*
X73404762Y-69597676D01*
X73404762Y-69597676D02*
X73309524Y-69692914D01*
X73309524Y-69692914D02*
X73214286Y-69740533D01*
X78433333Y-70359580D02*
X78385714Y-70407200D01*
X78385714Y-70407200D02*
X78242857Y-70454819D01*
X78242857Y-70454819D02*
X78147619Y-70454819D01*
X78147619Y-70454819D02*
X78004762Y-70407200D01*
X78004762Y-70407200D02*
X77909524Y-70311961D01*
X77909524Y-70311961D02*
X77861905Y-70216723D01*
X77861905Y-70216723D02*
X77814286Y-70026247D01*
X77814286Y-70026247D02*
X77814286Y-69883390D01*
X77814286Y-69883390D02*
X77861905Y-69692914D01*
X77861905Y-69692914D02*
X77909524Y-69597676D01*
X77909524Y-69597676D02*
X78004762Y-69502438D01*
X78004762Y-69502438D02*
X78147619Y-69454819D01*
X78147619Y-69454819D02*
X78242857Y-69454819D01*
X78242857Y-69454819D02*
X78385714Y-69502438D01*
X78385714Y-69502438D02*
X78433333Y-69550057D01*
X78766667Y-69454819D02*
X79385714Y-69454819D01*
X79385714Y-69454819D02*
X79052381Y-69835771D01*
X79052381Y-69835771D02*
X79195238Y-69835771D01*
X79195238Y-69835771D02*
X79290476Y-69883390D01*
X79290476Y-69883390D02*
X79338095Y-69931009D01*
X79338095Y-69931009D02*
X79385714Y-70026247D01*
X79385714Y-70026247D02*
X79385714Y-70264342D01*
X79385714Y-70264342D02*
X79338095Y-70359580D01*
X79338095Y-70359580D02*
X79290476Y-70407200D01*
X79290476Y-70407200D02*
X79195238Y-70454819D01*
X79195238Y-70454819D02*
X78909524Y-70454819D01*
X78909524Y-70454819D02*
X78814286Y-70407200D01*
X78814286Y-70407200D02*
X78766667Y-70359580D01*
%TO.C,SW2*%
X73350000Y-50600000D02*
X76650000Y-50600000D01*
X73350000Y-50900000D02*
X73350000Y-50600000D01*
X73350000Y-53100000D02*
X73350000Y-53400000D01*
X73350000Y-53400000D02*
X76650000Y-53400000D01*
X76650000Y-50600000D02*
X76650000Y-50900000D01*
X76650000Y-53400000D02*
X76650000Y-53100000D01*
%TO.C,R27*%
X78677500Y-52237258D02*
X78677500Y-51762742D01*
X79722500Y-52237258D02*
X79722500Y-51762742D01*
%TO.C,R25*%
X75262742Y-55477500D02*
X75737258Y-55477500D01*
X75262742Y-56522500D02*
X75737258Y-56522500D01*
%TO.C,SW3*%
X81350000Y-50600000D02*
X84650000Y-50600000D01*
X81350000Y-50900000D02*
X81350000Y-50600000D01*
X81350000Y-53100000D02*
X81350000Y-53400000D01*
X81350000Y-53400000D02*
X84650000Y-53400000D01*
X84650000Y-50600000D02*
X84650000Y-50900000D01*
X84650000Y-53400000D02*
X84650000Y-53100000D01*
%TO.C,R24*%
X72162742Y-55477500D02*
X72637258Y-55477500D01*
X72162742Y-56522500D02*
X72637258Y-56522500D01*
%TO.C,U4*%
X73490000Y-57965000D02*
X78110000Y-57965000D01*
X78110000Y-66035000D02*
X73490000Y-66035000D01*
X71940000Y-58420000D02*
X71610000Y-58660000D01*
X71610000Y-58180000D01*
X71940000Y-58420000D01*
G36*
X71940000Y-58420000D02*
G01*
X71610000Y-58660000D01*
X71610000Y-58180000D01*
X71940000Y-58420000D01*
G37*
%TO.C,R26*%
X74762742Y-53977500D02*
X75237258Y-53977500D01*
X74762742Y-55022500D02*
X75237258Y-55022500D01*
%TO.C,C1*%
X72859420Y-67990000D02*
X73140580Y-67990000D01*
X72859420Y-69010000D02*
X73140580Y-69010000D01*
%TO.C,C2*%
X78690000Y-55840580D02*
X78690000Y-55559420D01*
X79710000Y-55840580D02*
X79710000Y-55559420D01*
%TO.C,C3*%
X78459420Y-67990000D02*
X78740580Y-67990000D01*
X78459420Y-69010000D02*
X78740580Y-69010000D01*
%TD*%
M02*
