%TF.GenerationSoftware,KiCad,Pcbnew,10.0.6-1.fc44*%
%TF.CreationDate,2026-09-12T21:49:49+02:00*%
%TF.ProjectId,hdmi2c,68646d69-3263-42e6-9b69-6361645f7063,rev2*%
%TF.SameCoordinates,Original*%
%TF.FileFunction,Legend,Bot*%
%TF.FilePolarity,Positive*%
%FSLAX46Y46*%
G04 Gerber Fmt 4.6, Leading zero omitted, Abs format (unit mm)*
G04 Created by KiCad (PCBNEW 10.0.6-1.fc44) date 2026-09-12 21:49:49*
%MOMM*%
%LPD*%
G01*
G04 APERTURE LIST*
%ADD10C,0.150000*%
G04 APERTURE END LIST*
D10*
X67285715Y-65169104D02*
X66809525Y-65169104D01*
X67380953Y-65454819D02*
X67047620Y-64454819D01*
X67047620Y-64454819D02*
X66714287Y-65454819D01*
X66380953Y-64788152D02*
X66380953Y-65454819D01*
X66380953Y-64883390D02*
X66333334Y-64835771D01*
X66333334Y-64835771D02*
X66238096Y-64788152D01*
X66238096Y-64788152D02*
X66095239Y-64788152D01*
X66095239Y-64788152D02*
X66000001Y-64835771D01*
X66000001Y-64835771D02*
X65952382Y-64931009D01*
X65952382Y-64931009D02*
X65952382Y-65454819D01*
X65619048Y-64788152D02*
X65238096Y-64788152D01*
X65476191Y-64454819D02*
X65476191Y-65311961D01*
X65476191Y-65311961D02*
X65428572Y-65407200D01*
X65428572Y-65407200D02*
X65333334Y-65454819D01*
X65333334Y-65454819D02*
X65238096Y-65454819D01*
X64523810Y-65407200D02*
X64619048Y-65454819D01*
X64619048Y-65454819D02*
X64809524Y-65454819D01*
X64809524Y-65454819D02*
X64904762Y-65407200D01*
X64904762Y-65407200D02*
X64952381Y-65311961D01*
X64952381Y-65311961D02*
X64952381Y-64931009D01*
X64952381Y-64931009D02*
X64904762Y-64835771D01*
X64904762Y-64835771D02*
X64809524Y-64788152D01*
X64809524Y-64788152D02*
X64619048Y-64788152D01*
X64619048Y-64788152D02*
X64523810Y-64835771D01*
X64523810Y-64835771D02*
X64476191Y-64931009D01*
X64476191Y-64931009D02*
X64476191Y-65026247D01*
X64476191Y-65026247D02*
X64952381Y-65121485D01*
X64047619Y-64788152D02*
X64047619Y-65454819D01*
X64047619Y-64883390D02*
X64000000Y-64835771D01*
X64000000Y-64835771D02*
X63904762Y-64788152D01*
X63904762Y-64788152D02*
X63761905Y-64788152D01*
X63761905Y-64788152D02*
X63666667Y-64835771D01*
X63666667Y-64835771D02*
X63619048Y-64931009D01*
X63619048Y-64931009D02*
X63619048Y-65454819D01*
X63142857Y-64788152D02*
X63142857Y-65454819D01*
X63142857Y-64883390D02*
X63095238Y-64835771D01*
X63095238Y-64835771D02*
X63000000Y-64788152D01*
X63000000Y-64788152D02*
X62857143Y-64788152D01*
X62857143Y-64788152D02*
X62761905Y-64835771D01*
X62761905Y-64835771D02*
X62714286Y-64931009D01*
X62714286Y-64931009D02*
X62714286Y-65454819D01*
X61809524Y-65454819D02*
X61809524Y-64931009D01*
X61809524Y-64931009D02*
X61857143Y-64835771D01*
X61857143Y-64835771D02*
X61952381Y-64788152D01*
X61952381Y-64788152D02*
X62142857Y-64788152D01*
X62142857Y-64788152D02*
X62238095Y-64835771D01*
X61809524Y-65407200D02*
X61904762Y-65454819D01*
X61904762Y-65454819D02*
X62142857Y-65454819D01*
X62142857Y-65454819D02*
X62238095Y-65407200D01*
X62238095Y-65407200D02*
X62285714Y-65311961D01*
X62285714Y-65311961D02*
X62285714Y-65216723D01*
X62285714Y-65216723D02*
X62238095Y-65121485D01*
X62238095Y-65121485D02*
X62142857Y-65073866D01*
X62142857Y-65073866D02*
X61904762Y-65073866D01*
X61904762Y-65073866D02*
X61809524Y-65026247D01*
X60142857Y-65407200D02*
X60238095Y-65454819D01*
X60238095Y-65454819D02*
X60428571Y-65454819D01*
X60428571Y-65454819D02*
X60523809Y-65407200D01*
X60523809Y-65407200D02*
X60571428Y-65359580D01*
X60571428Y-65359580D02*
X60619047Y-65264342D01*
X60619047Y-65264342D02*
X60619047Y-64978628D01*
X60619047Y-64978628D02*
X60571428Y-64883390D01*
X60571428Y-64883390D02*
X60523809Y-64835771D01*
X60523809Y-64835771D02*
X60428571Y-64788152D01*
X60428571Y-64788152D02*
X60238095Y-64788152D01*
X60238095Y-64788152D02*
X60142857Y-64835771D01*
X59571428Y-65454819D02*
X59666666Y-65407200D01*
X59666666Y-65407200D02*
X59714285Y-65311961D01*
X59714285Y-65311961D02*
X59714285Y-64454819D01*
X58809523Y-65407200D02*
X58904761Y-65454819D01*
X58904761Y-65454819D02*
X59095237Y-65454819D01*
X59095237Y-65454819D02*
X59190475Y-65407200D01*
X59190475Y-65407200D02*
X59238094Y-65311961D01*
X59238094Y-65311961D02*
X59238094Y-64931009D01*
X59238094Y-64931009D02*
X59190475Y-64835771D01*
X59190475Y-64835771D02*
X59095237Y-64788152D01*
X59095237Y-64788152D02*
X58904761Y-64788152D01*
X58904761Y-64788152D02*
X58809523Y-64835771D01*
X58809523Y-64835771D02*
X58761904Y-64931009D01*
X58761904Y-64931009D02*
X58761904Y-65026247D01*
X58761904Y-65026247D02*
X59238094Y-65121485D01*
X57904761Y-65454819D02*
X57904761Y-64931009D01*
X57904761Y-64931009D02*
X57952380Y-64835771D01*
X57952380Y-64835771D02*
X58047618Y-64788152D01*
X58047618Y-64788152D02*
X58238094Y-64788152D01*
X58238094Y-64788152D02*
X58333332Y-64835771D01*
X57904761Y-65407200D02*
X57999999Y-65454819D01*
X57999999Y-65454819D02*
X58238094Y-65454819D01*
X58238094Y-65454819D02*
X58333332Y-65407200D01*
X58333332Y-65407200D02*
X58380951Y-65311961D01*
X58380951Y-65311961D02*
X58380951Y-65216723D01*
X58380951Y-65216723D02*
X58333332Y-65121485D01*
X58333332Y-65121485D02*
X58238094Y-65073866D01*
X58238094Y-65073866D02*
X57999999Y-65073866D01*
X57999999Y-65073866D02*
X57904761Y-65026247D01*
X57428570Y-65454819D02*
X57428570Y-64788152D01*
X57428570Y-64978628D02*
X57380951Y-64883390D01*
X57380951Y-64883390D02*
X57333332Y-64835771D01*
X57333332Y-64835771D02*
X57238094Y-64788152D01*
X57238094Y-64788152D02*
X57142856Y-64788152D01*
X56380951Y-65454819D02*
X56380951Y-64931009D01*
X56380951Y-64931009D02*
X56428570Y-64835771D01*
X56428570Y-64835771D02*
X56523808Y-64788152D01*
X56523808Y-64788152D02*
X56714284Y-64788152D01*
X56714284Y-64788152D02*
X56809522Y-64835771D01*
X56380951Y-65407200D02*
X56476189Y-65454819D01*
X56476189Y-65454819D02*
X56714284Y-65454819D01*
X56714284Y-65454819D02*
X56809522Y-65407200D01*
X56809522Y-65407200D02*
X56857141Y-65311961D01*
X56857141Y-65311961D02*
X56857141Y-65216723D01*
X56857141Y-65216723D02*
X56809522Y-65121485D01*
X56809522Y-65121485D02*
X56714284Y-65073866D01*
X56714284Y-65073866D02*
X56476189Y-65073866D01*
X56476189Y-65073866D02*
X56380951Y-65026247D01*
X55904760Y-64788152D02*
X55904760Y-65454819D01*
X55904760Y-64883390D02*
X55857141Y-64835771D01*
X55857141Y-64835771D02*
X55761903Y-64788152D01*
X55761903Y-64788152D02*
X55619046Y-64788152D01*
X55619046Y-64788152D02*
X55523808Y-64835771D01*
X55523808Y-64835771D02*
X55476189Y-64931009D01*
X55476189Y-64931009D02*
X55476189Y-65454819D01*
X54571427Y-65407200D02*
X54666665Y-65454819D01*
X54666665Y-65454819D02*
X54857141Y-65454819D01*
X54857141Y-65454819D02*
X54952379Y-65407200D01*
X54952379Y-65407200D02*
X54999998Y-65359580D01*
X54999998Y-65359580D02*
X55047617Y-65264342D01*
X55047617Y-65264342D02*
X55047617Y-64978628D01*
X55047617Y-64978628D02*
X54999998Y-64883390D01*
X54999998Y-64883390D02*
X54952379Y-64835771D01*
X54952379Y-64835771D02*
X54857141Y-64788152D01*
X54857141Y-64788152D02*
X54666665Y-64788152D01*
X54666665Y-64788152D02*
X54571427Y-64835771D01*
X53761903Y-65407200D02*
X53857141Y-65454819D01*
X53857141Y-65454819D02*
X54047617Y-65454819D01*
X54047617Y-65454819D02*
X54142855Y-65407200D01*
X54142855Y-65407200D02*
X54190474Y-65311961D01*
X54190474Y-65311961D02*
X54190474Y-64931009D01*
X54190474Y-64931009D02*
X54142855Y-64835771D01*
X54142855Y-64835771D02*
X54047617Y-64788152D01*
X54047617Y-64788152D02*
X53857141Y-64788152D01*
X53857141Y-64788152D02*
X53761903Y-64835771D01*
X53761903Y-64835771D02*
X53714284Y-64931009D01*
X53714284Y-64931009D02*
X53714284Y-65026247D01*
X53714284Y-65026247D02*
X54190474Y-65121485D01*
X70690476Y-67954819D02*
X71166666Y-67954819D01*
X71166666Y-67954819D02*
X71214285Y-68431009D01*
X71214285Y-68431009D02*
X71166666Y-68383390D01*
X71166666Y-68383390D02*
X71071428Y-68335771D01*
X71071428Y-68335771D02*
X70833333Y-68335771D01*
X70833333Y-68335771D02*
X70738095Y-68383390D01*
X70738095Y-68383390D02*
X70690476Y-68431009D01*
X70690476Y-68431009D02*
X70642857Y-68526247D01*
X70642857Y-68526247D02*
X70642857Y-68764342D01*
X70642857Y-68764342D02*
X70690476Y-68859580D01*
X70690476Y-68859580D02*
X70738095Y-68907200D01*
X70738095Y-68907200D02*
X70833333Y-68954819D01*
X70833333Y-68954819D02*
X71071428Y-68954819D01*
X71071428Y-68954819D02*
X71166666Y-68907200D01*
X71166666Y-68907200D02*
X71214285Y-68859580D01*
X70357142Y-67954819D02*
X70023809Y-68954819D01*
X70023809Y-68954819D02*
X69690476Y-67954819D01*
X74261904Y-68002438D02*
X74357142Y-67954819D01*
X74357142Y-67954819D02*
X74499999Y-67954819D01*
X74499999Y-67954819D02*
X74642856Y-68002438D01*
X74642856Y-68002438D02*
X74738094Y-68097676D01*
X74738094Y-68097676D02*
X74785713Y-68192914D01*
X74785713Y-68192914D02*
X74833332Y-68383390D01*
X74833332Y-68383390D02*
X74833332Y-68526247D01*
X74833332Y-68526247D02*
X74785713Y-68716723D01*
X74785713Y-68716723D02*
X74738094Y-68811961D01*
X74738094Y-68811961D02*
X74642856Y-68907200D01*
X74642856Y-68907200D02*
X74499999Y-68954819D01*
X74499999Y-68954819D02*
X74404761Y-68954819D01*
X74404761Y-68954819D02*
X74261904Y-68907200D01*
X74261904Y-68907200D02*
X74214285Y-68859580D01*
X74214285Y-68859580D02*
X74214285Y-68526247D01*
X74214285Y-68526247D02*
X74404761Y-68526247D01*
X73785713Y-68954819D02*
X73785713Y-67954819D01*
X73785713Y-67954819D02*
X73214285Y-68954819D01*
X73214285Y-68954819D02*
X73214285Y-67954819D01*
X72738094Y-68954819D02*
X72738094Y-67954819D01*
X72738094Y-67954819D02*
X72499999Y-67954819D01*
X72499999Y-67954819D02*
X72357142Y-68002438D01*
X72357142Y-68002438D02*
X72261904Y-68097676D01*
X72261904Y-68097676D02*
X72214285Y-68192914D01*
X72214285Y-68192914D02*
X72166666Y-68383390D01*
X72166666Y-68383390D02*
X72166666Y-68526247D01*
X72166666Y-68526247D02*
X72214285Y-68716723D01*
X72214285Y-68716723D02*
X72261904Y-68811961D01*
X72261904Y-68811961D02*
X72357142Y-68907200D01*
X72357142Y-68907200D02*
X72499999Y-68954819D01*
X72499999Y-68954819D02*
X72738094Y-68954819D01*
X77690475Y-68907200D02*
X77547618Y-68954819D01*
X77547618Y-68954819D02*
X77309523Y-68954819D01*
X77309523Y-68954819D02*
X77214285Y-68907200D01*
X77214285Y-68907200D02*
X77166666Y-68859580D01*
X77166666Y-68859580D02*
X77119047Y-68764342D01*
X77119047Y-68764342D02*
X77119047Y-68669104D01*
X77119047Y-68669104D02*
X77166666Y-68573866D01*
X77166666Y-68573866D02*
X77214285Y-68526247D01*
X77214285Y-68526247D02*
X77309523Y-68478628D01*
X77309523Y-68478628D02*
X77499999Y-68431009D01*
X77499999Y-68431009D02*
X77595237Y-68383390D01*
X77595237Y-68383390D02*
X77642856Y-68335771D01*
X77642856Y-68335771D02*
X77690475Y-68240533D01*
X77690475Y-68240533D02*
X77690475Y-68145295D01*
X77690475Y-68145295D02*
X77642856Y-68050057D01*
X77642856Y-68050057D02*
X77595237Y-68002438D01*
X77595237Y-68002438D02*
X77499999Y-67954819D01*
X77499999Y-67954819D02*
X77261904Y-67954819D01*
X77261904Y-67954819D02*
X77119047Y-68002438D01*
X76119047Y-68859580D02*
X76166666Y-68907200D01*
X76166666Y-68907200D02*
X76309523Y-68954819D01*
X76309523Y-68954819D02*
X76404761Y-68954819D01*
X76404761Y-68954819D02*
X76547618Y-68907200D01*
X76547618Y-68907200D02*
X76642856Y-68811961D01*
X76642856Y-68811961D02*
X76690475Y-68716723D01*
X76690475Y-68716723D02*
X76738094Y-68526247D01*
X76738094Y-68526247D02*
X76738094Y-68383390D01*
X76738094Y-68383390D02*
X76690475Y-68192914D01*
X76690475Y-68192914D02*
X76642856Y-68097676D01*
X76642856Y-68097676D02*
X76547618Y-68002438D01*
X76547618Y-68002438D02*
X76404761Y-67954819D01*
X76404761Y-67954819D02*
X76309523Y-67954819D01*
X76309523Y-67954819D02*
X76166666Y-68002438D01*
X76166666Y-68002438D02*
X76119047Y-68050057D01*
X75214285Y-68954819D02*
X75690475Y-68954819D01*
X75690475Y-68954819D02*
X75690475Y-67954819D01*
X80714285Y-68907200D02*
X80571428Y-68954819D01*
X80571428Y-68954819D02*
X80333333Y-68954819D01*
X80333333Y-68954819D02*
X80238095Y-68907200D01*
X80238095Y-68907200D02*
X80190476Y-68859580D01*
X80190476Y-68859580D02*
X80142857Y-68764342D01*
X80142857Y-68764342D02*
X80142857Y-68669104D01*
X80142857Y-68669104D02*
X80190476Y-68573866D01*
X80190476Y-68573866D02*
X80238095Y-68526247D01*
X80238095Y-68526247D02*
X80333333Y-68478628D01*
X80333333Y-68478628D02*
X80523809Y-68431009D01*
X80523809Y-68431009D02*
X80619047Y-68383390D01*
X80619047Y-68383390D02*
X80666666Y-68335771D01*
X80666666Y-68335771D02*
X80714285Y-68240533D01*
X80714285Y-68240533D02*
X80714285Y-68145295D01*
X80714285Y-68145295D02*
X80666666Y-68050057D01*
X80666666Y-68050057D02*
X80619047Y-68002438D01*
X80619047Y-68002438D02*
X80523809Y-67954819D01*
X80523809Y-67954819D02*
X80285714Y-67954819D01*
X80285714Y-67954819D02*
X80142857Y-68002438D01*
X79714285Y-68954819D02*
X79714285Y-67954819D01*
X79714285Y-67954819D02*
X79476190Y-67954819D01*
X79476190Y-67954819D02*
X79333333Y-68002438D01*
X79333333Y-68002438D02*
X79238095Y-68097676D01*
X79238095Y-68097676D02*
X79190476Y-68192914D01*
X79190476Y-68192914D02*
X79142857Y-68383390D01*
X79142857Y-68383390D02*
X79142857Y-68526247D01*
X79142857Y-68526247D02*
X79190476Y-68716723D01*
X79190476Y-68716723D02*
X79238095Y-68811961D01*
X79238095Y-68811961D02*
X79333333Y-68907200D01*
X79333333Y-68907200D02*
X79476190Y-68954819D01*
X79476190Y-68954819D02*
X79714285Y-68954819D01*
X78761904Y-68669104D02*
X78285714Y-68669104D01*
X78857142Y-68954819D02*
X78523809Y-67954819D01*
X78523809Y-67954819D02*
X78190476Y-68954819D01*
X84833334Y-61454819D02*
X84833334Y-60454819D01*
X84833334Y-60454819D02*
X84595239Y-60454819D01*
X84595239Y-60454819D02*
X84452382Y-60502438D01*
X84452382Y-60502438D02*
X84357144Y-60597676D01*
X84357144Y-60597676D02*
X84309525Y-60692914D01*
X84309525Y-60692914D02*
X84261906Y-60883390D01*
X84261906Y-60883390D02*
X84261906Y-61026247D01*
X84261906Y-61026247D02*
X84309525Y-61216723D01*
X84309525Y-61216723D02*
X84357144Y-61311961D01*
X84357144Y-61311961D02*
X84452382Y-61407200D01*
X84452382Y-61407200D02*
X84595239Y-61454819D01*
X84595239Y-61454819D02*
X84833334Y-61454819D01*
X83833334Y-61454819D02*
X83833334Y-60454819D01*
X83833334Y-60454819D02*
X83595239Y-60454819D01*
X83595239Y-60454819D02*
X83452382Y-60502438D01*
X83452382Y-60502438D02*
X83357144Y-60597676D01*
X83357144Y-60597676D02*
X83309525Y-60692914D01*
X83309525Y-60692914D02*
X83261906Y-60883390D01*
X83261906Y-60883390D02*
X83261906Y-61026247D01*
X83261906Y-61026247D02*
X83309525Y-61216723D01*
X83309525Y-61216723D02*
X83357144Y-61311961D01*
X83357144Y-61311961D02*
X83452382Y-61407200D01*
X83452382Y-61407200D02*
X83595239Y-61454819D01*
X83595239Y-61454819D02*
X83833334Y-61454819D01*
X82261906Y-61359580D02*
X82309525Y-61407200D01*
X82309525Y-61407200D02*
X82452382Y-61454819D01*
X82452382Y-61454819D02*
X82547620Y-61454819D01*
X82547620Y-61454819D02*
X82690477Y-61407200D01*
X82690477Y-61407200D02*
X82785715Y-61311961D01*
X82785715Y-61311961D02*
X82833334Y-61216723D01*
X82833334Y-61216723D02*
X82880953Y-61026247D01*
X82880953Y-61026247D02*
X82880953Y-60883390D01*
X82880953Y-60883390D02*
X82833334Y-60692914D01*
X82833334Y-60692914D02*
X82785715Y-60597676D01*
X82785715Y-60597676D02*
X82690477Y-60502438D01*
X82690477Y-60502438D02*
X82547620Y-60454819D01*
X82547620Y-60454819D02*
X82452382Y-60454819D01*
X82452382Y-60454819D02*
X82309525Y-60502438D01*
X82309525Y-60502438D02*
X82261906Y-60550057D01*
X80642858Y-61407200D02*
X80738096Y-61454819D01*
X80738096Y-61454819D02*
X80928572Y-61454819D01*
X80928572Y-61454819D02*
X81023810Y-61407200D01*
X81023810Y-61407200D02*
X81071429Y-61359580D01*
X81071429Y-61359580D02*
X81119048Y-61264342D01*
X81119048Y-61264342D02*
X81119048Y-60978628D01*
X81119048Y-60978628D02*
X81071429Y-60883390D01*
X81071429Y-60883390D02*
X81023810Y-60835771D01*
X81023810Y-60835771D02*
X80928572Y-60788152D01*
X80928572Y-60788152D02*
X80738096Y-60788152D01*
X80738096Y-60788152D02*
X80642858Y-60835771D01*
X80071429Y-61454819D02*
X80166667Y-61407200D01*
X80166667Y-61407200D02*
X80214286Y-61359580D01*
X80214286Y-61359580D02*
X80261905Y-61264342D01*
X80261905Y-61264342D02*
X80261905Y-60978628D01*
X80261905Y-60978628D02*
X80214286Y-60883390D01*
X80214286Y-60883390D02*
X80166667Y-60835771D01*
X80166667Y-60835771D02*
X80071429Y-60788152D01*
X80071429Y-60788152D02*
X79928572Y-60788152D01*
X79928572Y-60788152D02*
X79833334Y-60835771D01*
X79833334Y-60835771D02*
X79785715Y-60883390D01*
X79785715Y-60883390D02*
X79738096Y-60978628D01*
X79738096Y-60978628D02*
X79738096Y-61264342D01*
X79738096Y-61264342D02*
X79785715Y-61359580D01*
X79785715Y-61359580D02*
X79833334Y-61407200D01*
X79833334Y-61407200D02*
X79928572Y-61454819D01*
X79928572Y-61454819D02*
X80071429Y-61454819D01*
X79309524Y-60788152D02*
X79309524Y-61454819D01*
X79309524Y-60883390D02*
X79261905Y-60835771D01*
X79261905Y-60835771D02*
X79166667Y-60788152D01*
X79166667Y-60788152D02*
X79023810Y-60788152D01*
X79023810Y-60788152D02*
X78928572Y-60835771D01*
X78928572Y-60835771D02*
X78880953Y-60931009D01*
X78880953Y-60931009D02*
X78880953Y-61454819D01*
X78547619Y-60788152D02*
X78166667Y-60788152D01*
X78404762Y-60454819D02*
X78404762Y-61311961D01*
X78404762Y-61311961D02*
X78357143Y-61407200D01*
X78357143Y-61407200D02*
X78261905Y-61454819D01*
X78261905Y-61454819D02*
X78166667Y-61454819D01*
X77833333Y-61454819D02*
X77833333Y-60788152D01*
X77833333Y-60978628D02*
X77785714Y-60883390D01*
X77785714Y-60883390D02*
X77738095Y-60835771D01*
X77738095Y-60835771D02*
X77642857Y-60788152D01*
X77642857Y-60788152D02*
X77547619Y-60788152D01*
X77071428Y-61454819D02*
X77166666Y-61407200D01*
X77166666Y-61407200D02*
X77214285Y-61359580D01*
X77214285Y-61359580D02*
X77261904Y-61264342D01*
X77261904Y-61264342D02*
X77261904Y-60978628D01*
X77261904Y-60978628D02*
X77214285Y-60883390D01*
X77214285Y-60883390D02*
X77166666Y-60835771D01*
X77166666Y-60835771D02*
X77071428Y-60788152D01*
X77071428Y-60788152D02*
X76928571Y-60788152D01*
X76928571Y-60788152D02*
X76833333Y-60835771D01*
X76833333Y-60835771D02*
X76785714Y-60883390D01*
X76785714Y-60883390D02*
X76738095Y-60978628D01*
X76738095Y-60978628D02*
X76738095Y-61264342D01*
X76738095Y-61264342D02*
X76785714Y-61359580D01*
X76785714Y-61359580D02*
X76833333Y-61407200D01*
X76833333Y-61407200D02*
X76928571Y-61454819D01*
X76928571Y-61454819D02*
X77071428Y-61454819D01*
X76166666Y-61454819D02*
X76261904Y-61407200D01*
X76261904Y-61407200D02*
X76309523Y-61311961D01*
X76309523Y-61311961D02*
X76309523Y-60454819D01*
X74880951Y-61454819D02*
X74976189Y-61407200D01*
X74976189Y-61407200D02*
X75023808Y-61359580D01*
X75023808Y-61359580D02*
X75071427Y-61264342D01*
X75071427Y-61264342D02*
X75071427Y-60978628D01*
X75071427Y-60978628D02*
X75023808Y-60883390D01*
X75023808Y-60883390D02*
X74976189Y-60835771D01*
X74976189Y-60835771D02*
X74880951Y-60788152D01*
X74880951Y-60788152D02*
X74738094Y-60788152D01*
X74738094Y-60788152D02*
X74642856Y-60835771D01*
X74642856Y-60835771D02*
X74595237Y-60883390D01*
X74595237Y-60883390D02*
X74547618Y-60978628D01*
X74547618Y-60978628D02*
X74547618Y-61264342D01*
X74547618Y-61264342D02*
X74595237Y-61359580D01*
X74595237Y-61359580D02*
X74642856Y-61407200D01*
X74642856Y-61407200D02*
X74738094Y-61454819D01*
X74738094Y-61454819D02*
X74880951Y-61454819D01*
X74119046Y-60788152D02*
X74119046Y-61454819D01*
X74119046Y-60883390D02*
X74071427Y-60835771D01*
X74071427Y-60835771D02*
X73976189Y-60788152D01*
X73976189Y-60788152D02*
X73833332Y-60788152D01*
X73833332Y-60788152D02*
X73738094Y-60835771D01*
X73738094Y-60835771D02*
X73690475Y-60931009D01*
X73690475Y-60931009D02*
X73690475Y-61454819D01*
X73071427Y-61454819D02*
X73166665Y-61407200D01*
X73166665Y-61407200D02*
X73214284Y-61311961D01*
X73214284Y-61311961D02*
X73214284Y-60454819D01*
X72785712Y-60788152D02*
X72547617Y-61454819D01*
X72309522Y-60788152D02*
X72547617Y-61454819D01*
X72547617Y-61454819D02*
X72642855Y-61692914D01*
X72642855Y-61692914D02*
X72690474Y-61740533D01*
X72690474Y-61740533D02*
X72785712Y-61788152D01*
X71166664Y-61073866D02*
X70404760Y-61073866D01*
X69166664Y-60788152D02*
X69166664Y-61454819D01*
X69166664Y-60883390D02*
X69119045Y-60835771D01*
X69119045Y-60835771D02*
X69023807Y-60788152D01*
X69023807Y-60788152D02*
X68880950Y-60788152D01*
X68880950Y-60788152D02*
X68785712Y-60835771D01*
X68785712Y-60835771D02*
X68738093Y-60931009D01*
X68738093Y-60931009D02*
X68738093Y-61454819D01*
X68119045Y-61454819D02*
X68214283Y-61407200D01*
X68214283Y-61407200D02*
X68261902Y-61359580D01*
X68261902Y-61359580D02*
X68309521Y-61264342D01*
X68309521Y-61264342D02*
X68309521Y-60978628D01*
X68309521Y-60978628D02*
X68261902Y-60883390D01*
X68261902Y-60883390D02*
X68214283Y-60835771D01*
X68214283Y-60835771D02*
X68119045Y-60788152D01*
X68119045Y-60788152D02*
X67976188Y-60788152D01*
X67976188Y-60788152D02*
X67880950Y-60835771D01*
X67880950Y-60835771D02*
X67833331Y-60883390D01*
X67833331Y-60883390D02*
X67785712Y-60978628D01*
X67785712Y-60978628D02*
X67785712Y-61264342D01*
X67785712Y-61264342D02*
X67833331Y-61359580D01*
X67833331Y-61359580D02*
X67880950Y-61407200D01*
X67880950Y-61407200D02*
X67976188Y-61454819D01*
X67976188Y-61454819D02*
X68119045Y-61454819D01*
X66690473Y-60788152D02*
X66452378Y-61454819D01*
X66452378Y-61454819D02*
X66214283Y-60788152D01*
X65833330Y-61454819D02*
X65833330Y-60788152D01*
X65833330Y-60454819D02*
X65880949Y-60502438D01*
X65880949Y-60502438D02*
X65833330Y-60550057D01*
X65833330Y-60550057D02*
X65785711Y-60502438D01*
X65785711Y-60502438D02*
X65833330Y-60454819D01*
X65833330Y-60454819D02*
X65833330Y-60550057D01*
X64928569Y-61454819D02*
X64928569Y-60454819D01*
X64928569Y-61407200D02*
X65023807Y-61454819D01*
X65023807Y-61454819D02*
X65214283Y-61454819D01*
X65214283Y-61454819D02*
X65309521Y-61407200D01*
X65309521Y-61407200D02*
X65357140Y-61359580D01*
X65357140Y-61359580D02*
X65404759Y-61264342D01*
X65404759Y-61264342D02*
X65404759Y-60978628D01*
X65404759Y-60978628D02*
X65357140Y-60883390D01*
X65357140Y-60883390D02*
X65309521Y-60835771D01*
X65309521Y-60835771D02*
X65214283Y-60788152D01*
X65214283Y-60788152D02*
X65023807Y-60788152D01*
X65023807Y-60788152D02*
X64928569Y-60835771D01*
X64071426Y-61407200D02*
X64166664Y-61454819D01*
X64166664Y-61454819D02*
X64357140Y-61454819D01*
X64357140Y-61454819D02*
X64452378Y-61407200D01*
X64452378Y-61407200D02*
X64499997Y-61311961D01*
X64499997Y-61311961D02*
X64499997Y-60931009D01*
X64499997Y-60931009D02*
X64452378Y-60835771D01*
X64452378Y-60835771D02*
X64357140Y-60788152D01*
X64357140Y-60788152D02*
X64166664Y-60788152D01*
X64166664Y-60788152D02*
X64071426Y-60835771D01*
X64071426Y-60835771D02*
X64023807Y-60931009D01*
X64023807Y-60931009D02*
X64023807Y-61026247D01*
X64023807Y-61026247D02*
X64499997Y-61121485D01*
X63452378Y-61454819D02*
X63547616Y-61407200D01*
X63547616Y-61407200D02*
X63595235Y-61359580D01*
X63595235Y-61359580D02*
X63642854Y-61264342D01*
X63642854Y-61264342D02*
X63642854Y-60978628D01*
X63642854Y-60978628D02*
X63595235Y-60883390D01*
X63595235Y-60883390D02*
X63547616Y-60835771D01*
X63547616Y-60835771D02*
X63452378Y-60788152D01*
X63452378Y-60788152D02*
X63309521Y-60788152D01*
X63309521Y-60788152D02*
X63214283Y-60835771D01*
X63214283Y-60835771D02*
X63166664Y-60883390D01*
X63166664Y-60883390D02*
X63119045Y-60978628D01*
X63119045Y-60978628D02*
X63119045Y-61264342D01*
X63119045Y-61264342D02*
X63166664Y-61359580D01*
X63166664Y-61359580D02*
X63214283Y-61407200D01*
X63214283Y-61407200D02*
X63309521Y-61454819D01*
X63309521Y-61454819D02*
X63452378Y-61454819D01*
X80547619Y-63454819D02*
X80547619Y-62454819D01*
X80547619Y-62454819D02*
X80309524Y-62454819D01*
X80309524Y-62454819D02*
X80166667Y-62502438D01*
X80166667Y-62502438D02*
X80071429Y-62597676D01*
X80071429Y-62597676D02*
X80023810Y-62692914D01*
X80023810Y-62692914D02*
X79976191Y-62883390D01*
X79976191Y-62883390D02*
X79976191Y-63026247D01*
X79976191Y-63026247D02*
X80023810Y-63216723D01*
X80023810Y-63216723D02*
X80071429Y-63311961D01*
X80071429Y-63311961D02*
X80166667Y-63407200D01*
X80166667Y-63407200D02*
X80309524Y-63454819D01*
X80309524Y-63454819D02*
X80547619Y-63454819D01*
X79119048Y-62788152D02*
X79119048Y-63454819D01*
X79357143Y-62407200D02*
X79595238Y-63121485D01*
X79595238Y-63121485D02*
X78976191Y-63121485D01*
X77880952Y-63407200D02*
X77738095Y-63454819D01*
X77738095Y-63454819D02*
X77500000Y-63454819D01*
X77500000Y-63454819D02*
X77404762Y-63407200D01*
X77404762Y-63407200D02*
X77357143Y-63359580D01*
X77357143Y-63359580D02*
X77309524Y-63264342D01*
X77309524Y-63264342D02*
X77309524Y-63169104D01*
X77309524Y-63169104D02*
X77357143Y-63073866D01*
X77357143Y-63073866D02*
X77404762Y-63026247D01*
X77404762Y-63026247D02*
X77500000Y-62978628D01*
X77500000Y-62978628D02*
X77690476Y-62931009D01*
X77690476Y-62931009D02*
X77785714Y-62883390D01*
X77785714Y-62883390D02*
X77833333Y-62835771D01*
X77833333Y-62835771D02*
X77880952Y-62740533D01*
X77880952Y-62740533D02*
X77880952Y-62645295D01*
X77880952Y-62645295D02*
X77833333Y-62550057D01*
X77833333Y-62550057D02*
X77785714Y-62502438D01*
X77785714Y-62502438D02*
X77690476Y-62454819D01*
X77690476Y-62454819D02*
X77452381Y-62454819D01*
X77452381Y-62454819D02*
X77309524Y-62502438D01*
X76880952Y-63454819D02*
X76880952Y-62454819D01*
X76880952Y-62454819D02*
X76642857Y-62454819D01*
X76642857Y-62454819D02*
X76500000Y-62502438D01*
X76500000Y-62502438D02*
X76404762Y-62597676D01*
X76404762Y-62597676D02*
X76357143Y-62692914D01*
X76357143Y-62692914D02*
X76309524Y-62883390D01*
X76309524Y-62883390D02*
X76309524Y-63026247D01*
X76309524Y-63026247D02*
X76357143Y-63216723D01*
X76357143Y-63216723D02*
X76404762Y-63311961D01*
X76404762Y-63311961D02*
X76500000Y-63407200D01*
X76500000Y-63407200D02*
X76642857Y-63454819D01*
X76642857Y-63454819D02*
X76880952Y-63454819D01*
X75928571Y-63169104D02*
X75452381Y-63169104D01*
X76023809Y-63454819D02*
X75690476Y-62454819D01*
X75690476Y-62454819D02*
X75357143Y-63454819D01*
X73547619Y-62407200D02*
X74404761Y-63692914D01*
X72452380Y-63454819D02*
X72452380Y-62454819D01*
X72452380Y-62454819D02*
X72214285Y-62454819D01*
X72214285Y-62454819D02*
X72071428Y-62502438D01*
X72071428Y-62502438D02*
X71976190Y-62597676D01*
X71976190Y-62597676D02*
X71928571Y-62692914D01*
X71928571Y-62692914D02*
X71880952Y-62883390D01*
X71880952Y-62883390D02*
X71880952Y-63026247D01*
X71880952Y-63026247D02*
X71928571Y-63216723D01*
X71928571Y-63216723D02*
X71976190Y-63311961D01*
X71976190Y-63311961D02*
X72071428Y-63407200D01*
X72071428Y-63407200D02*
X72214285Y-63454819D01*
X72214285Y-63454819D02*
X72452380Y-63454819D01*
X70976190Y-62454819D02*
X71452380Y-62454819D01*
X71452380Y-62454819D02*
X71499999Y-62931009D01*
X71499999Y-62931009D02*
X71452380Y-62883390D01*
X71452380Y-62883390D02*
X71357142Y-62835771D01*
X71357142Y-62835771D02*
X71119047Y-62835771D01*
X71119047Y-62835771D02*
X71023809Y-62883390D01*
X71023809Y-62883390D02*
X70976190Y-62931009D01*
X70976190Y-62931009D02*
X70928571Y-63026247D01*
X70928571Y-63026247D02*
X70928571Y-63264342D01*
X70928571Y-63264342D02*
X70976190Y-63359580D01*
X70976190Y-63359580D02*
X71023809Y-63407200D01*
X71023809Y-63407200D02*
X71119047Y-63454819D01*
X71119047Y-63454819D02*
X71357142Y-63454819D01*
X71357142Y-63454819D02*
X71452380Y-63407200D01*
X71452380Y-63407200D02*
X71499999Y-63359580D01*
X69785713Y-63407200D02*
X69642856Y-63454819D01*
X69642856Y-63454819D02*
X69404761Y-63454819D01*
X69404761Y-63454819D02*
X69309523Y-63407200D01*
X69309523Y-63407200D02*
X69261904Y-63359580D01*
X69261904Y-63359580D02*
X69214285Y-63264342D01*
X69214285Y-63264342D02*
X69214285Y-63169104D01*
X69214285Y-63169104D02*
X69261904Y-63073866D01*
X69261904Y-63073866D02*
X69309523Y-63026247D01*
X69309523Y-63026247D02*
X69404761Y-62978628D01*
X69404761Y-62978628D02*
X69595237Y-62931009D01*
X69595237Y-62931009D02*
X69690475Y-62883390D01*
X69690475Y-62883390D02*
X69738094Y-62835771D01*
X69738094Y-62835771D02*
X69785713Y-62740533D01*
X69785713Y-62740533D02*
X69785713Y-62645295D01*
X69785713Y-62645295D02*
X69738094Y-62550057D01*
X69738094Y-62550057D02*
X69690475Y-62502438D01*
X69690475Y-62502438D02*
X69595237Y-62454819D01*
X69595237Y-62454819D02*
X69357142Y-62454819D01*
X69357142Y-62454819D02*
X69214285Y-62502438D01*
X68214285Y-63359580D02*
X68261904Y-63407200D01*
X68261904Y-63407200D02*
X68404761Y-63454819D01*
X68404761Y-63454819D02*
X68499999Y-63454819D01*
X68499999Y-63454819D02*
X68642856Y-63407200D01*
X68642856Y-63407200D02*
X68738094Y-63311961D01*
X68738094Y-63311961D02*
X68785713Y-63216723D01*
X68785713Y-63216723D02*
X68833332Y-63026247D01*
X68833332Y-63026247D02*
X68833332Y-62883390D01*
X68833332Y-62883390D02*
X68785713Y-62692914D01*
X68785713Y-62692914D02*
X68738094Y-62597676D01*
X68738094Y-62597676D02*
X68642856Y-62502438D01*
X68642856Y-62502438D02*
X68499999Y-62454819D01*
X68499999Y-62454819D02*
X68404761Y-62454819D01*
X68404761Y-62454819D02*
X68261904Y-62502438D01*
X68261904Y-62502438D02*
X68214285Y-62550057D01*
X67309523Y-63454819D02*
X67785713Y-63454819D01*
X67785713Y-63454819D02*
X67785713Y-62454819D01*
X85214285Y-58454819D02*
X84547619Y-59454819D01*
X84547619Y-58454819D02*
X85214285Y-59454819D01*
X84166666Y-59454819D02*
X84166666Y-58454819D01*
X83738095Y-59169104D02*
X83261905Y-59169104D01*
X83833333Y-59454819D02*
X83500000Y-58454819D01*
X83500000Y-58454819D02*
X83166667Y-59454819D01*
X82642857Y-58454819D02*
X82452381Y-58454819D01*
X82452381Y-58454819D02*
X82357143Y-58502438D01*
X82357143Y-58502438D02*
X82261905Y-58597676D01*
X82261905Y-58597676D02*
X82214286Y-58788152D01*
X82214286Y-58788152D02*
X82214286Y-59121485D01*
X82214286Y-59121485D02*
X82261905Y-59311961D01*
X82261905Y-59311961D02*
X82357143Y-59407200D01*
X82357143Y-59407200D02*
X82452381Y-59454819D01*
X82452381Y-59454819D02*
X82642857Y-59454819D01*
X82642857Y-59454819D02*
X82738095Y-59407200D01*
X82738095Y-59407200D02*
X82833333Y-59311961D01*
X82833333Y-59311961D02*
X82880952Y-59121485D01*
X82880952Y-59121485D02*
X82880952Y-58788152D01*
X82880952Y-58788152D02*
X82833333Y-58597676D01*
X82833333Y-58597676D02*
X82738095Y-58502438D01*
X82738095Y-58502438D02*
X82642857Y-58454819D01*
X81023809Y-58931009D02*
X80690476Y-58931009D01*
X80547619Y-59454819D02*
X81023809Y-59454819D01*
X81023809Y-59454819D02*
X81023809Y-58454819D01*
X81023809Y-58454819D02*
X80547619Y-58454819D01*
X80166666Y-59407200D02*
X80023809Y-59454819D01*
X80023809Y-59454819D02*
X79785714Y-59454819D01*
X79785714Y-59454819D02*
X79690476Y-59407200D01*
X79690476Y-59407200D02*
X79642857Y-59359580D01*
X79642857Y-59359580D02*
X79595238Y-59264342D01*
X79595238Y-59264342D02*
X79595238Y-59169104D01*
X79595238Y-59169104D02*
X79642857Y-59073866D01*
X79642857Y-59073866D02*
X79690476Y-59026247D01*
X79690476Y-59026247D02*
X79785714Y-58978628D01*
X79785714Y-58978628D02*
X79976190Y-58931009D01*
X79976190Y-58931009D02*
X80071428Y-58883390D01*
X80071428Y-58883390D02*
X80119047Y-58835771D01*
X80119047Y-58835771D02*
X80166666Y-58740533D01*
X80166666Y-58740533D02*
X80166666Y-58645295D01*
X80166666Y-58645295D02*
X80119047Y-58550057D01*
X80119047Y-58550057D02*
X80071428Y-58502438D01*
X80071428Y-58502438D02*
X79976190Y-58454819D01*
X79976190Y-58454819D02*
X79738095Y-58454819D01*
X79738095Y-58454819D02*
X79595238Y-58502438D01*
X79166666Y-59454819D02*
X79166666Y-58454819D01*
X79166666Y-58454819D02*
X78785714Y-58454819D01*
X78785714Y-58454819D02*
X78690476Y-58502438D01*
X78690476Y-58502438D02*
X78642857Y-58550057D01*
X78642857Y-58550057D02*
X78595238Y-58645295D01*
X78595238Y-58645295D02*
X78595238Y-58788152D01*
X78595238Y-58788152D02*
X78642857Y-58883390D01*
X78642857Y-58883390D02*
X78690476Y-58931009D01*
X78690476Y-58931009D02*
X78785714Y-58978628D01*
X78785714Y-58978628D02*
X79166666Y-58978628D01*
X78261904Y-58454819D02*
X77642857Y-58454819D01*
X77642857Y-58454819D02*
X77976190Y-58835771D01*
X77976190Y-58835771D02*
X77833333Y-58835771D01*
X77833333Y-58835771D02*
X77738095Y-58883390D01*
X77738095Y-58883390D02*
X77690476Y-58931009D01*
X77690476Y-58931009D02*
X77642857Y-59026247D01*
X77642857Y-59026247D02*
X77642857Y-59264342D01*
X77642857Y-59264342D02*
X77690476Y-59359580D01*
X77690476Y-59359580D02*
X77738095Y-59407200D01*
X77738095Y-59407200D02*
X77833333Y-59454819D01*
X77833333Y-59454819D02*
X78119047Y-59454819D01*
X78119047Y-59454819D02*
X78214285Y-59407200D01*
X78214285Y-59407200D02*
X78261904Y-59359580D01*
X77261904Y-58550057D02*
X77214285Y-58502438D01*
X77214285Y-58502438D02*
X77119047Y-58454819D01*
X77119047Y-58454819D02*
X76880952Y-58454819D01*
X76880952Y-58454819D02*
X76785714Y-58502438D01*
X76785714Y-58502438D02*
X76738095Y-58550057D01*
X76738095Y-58550057D02*
X76690476Y-58645295D01*
X76690476Y-58645295D02*
X76690476Y-58740533D01*
X76690476Y-58740533D02*
X76738095Y-58883390D01*
X76738095Y-58883390D02*
X77309523Y-59454819D01*
X77309523Y-59454819D02*
X76690476Y-59454819D01*
X76261904Y-59073866D02*
X75500000Y-59073866D01*
X74452381Y-59359580D02*
X74500000Y-59407200D01*
X74500000Y-59407200D02*
X74642857Y-59454819D01*
X74642857Y-59454819D02*
X74738095Y-59454819D01*
X74738095Y-59454819D02*
X74880952Y-59407200D01*
X74880952Y-59407200D02*
X74976190Y-59311961D01*
X74976190Y-59311961D02*
X75023809Y-59216723D01*
X75023809Y-59216723D02*
X75071428Y-59026247D01*
X75071428Y-59026247D02*
X75071428Y-58883390D01*
X75071428Y-58883390D02*
X75023809Y-58692914D01*
X75023809Y-58692914D02*
X74976190Y-58597676D01*
X74976190Y-58597676D02*
X74880952Y-58502438D01*
X74880952Y-58502438D02*
X74738095Y-58454819D01*
X74738095Y-58454819D02*
X74642857Y-58454819D01*
X74642857Y-58454819D02*
X74500000Y-58502438D01*
X74500000Y-58502438D02*
X74452381Y-58550057D01*
X73595238Y-58454819D02*
X73785714Y-58454819D01*
X73785714Y-58454819D02*
X73880952Y-58502438D01*
X73880952Y-58502438D02*
X73928571Y-58550057D01*
X73928571Y-58550057D02*
X74023809Y-58692914D01*
X74023809Y-58692914D02*
X74071428Y-58883390D01*
X74071428Y-58883390D02*
X74071428Y-59264342D01*
X74071428Y-59264342D02*
X74023809Y-59359580D01*
X74023809Y-59359580D02*
X73976190Y-59407200D01*
X73976190Y-59407200D02*
X73880952Y-59454819D01*
X73880952Y-59454819D02*
X73690476Y-59454819D01*
X73690476Y-59454819D02*
X73595238Y-59407200D01*
X73595238Y-59407200D02*
X73547619Y-59359580D01*
X73547619Y-59359580D02*
X73500000Y-59264342D01*
X73500000Y-59264342D02*
X73500000Y-59026247D01*
X73500000Y-59026247D02*
X73547619Y-58931009D01*
X73547619Y-58931009D02*
X73595238Y-58883390D01*
X73595238Y-58883390D02*
X73690476Y-58835771D01*
X73690476Y-58835771D02*
X73880952Y-58835771D01*
X73880952Y-58835771D02*
X73976190Y-58883390D01*
X73976190Y-58883390D02*
X74023809Y-58931009D01*
X74023809Y-58931009D02*
X74071428Y-59026247D01*
X71595238Y-58407200D02*
X72452380Y-59692914D01*
X70499999Y-58454819D02*
X70499999Y-59264342D01*
X70499999Y-59264342D02*
X70452380Y-59359580D01*
X70452380Y-59359580D02*
X70404761Y-59407200D01*
X70404761Y-59407200D02*
X70309523Y-59454819D01*
X70309523Y-59454819D02*
X70119047Y-59454819D01*
X70119047Y-59454819D02*
X70023809Y-59407200D01*
X70023809Y-59407200D02*
X69976190Y-59359580D01*
X69976190Y-59359580D02*
X69928571Y-59264342D01*
X69928571Y-59264342D02*
X69928571Y-58454819D01*
X69499999Y-59407200D02*
X69357142Y-59454819D01*
X69357142Y-59454819D02*
X69119047Y-59454819D01*
X69119047Y-59454819D02*
X69023809Y-59407200D01*
X69023809Y-59407200D02*
X68976190Y-59359580D01*
X68976190Y-59359580D02*
X68928571Y-59264342D01*
X68928571Y-59264342D02*
X68928571Y-59169104D01*
X68928571Y-59169104D02*
X68976190Y-59073866D01*
X68976190Y-59073866D02*
X69023809Y-59026247D01*
X69023809Y-59026247D02*
X69119047Y-58978628D01*
X69119047Y-58978628D02*
X69309523Y-58931009D01*
X69309523Y-58931009D02*
X69404761Y-58883390D01*
X69404761Y-58883390D02*
X69452380Y-58835771D01*
X69452380Y-58835771D02*
X69499999Y-58740533D01*
X69499999Y-58740533D02*
X69499999Y-58645295D01*
X69499999Y-58645295D02*
X69452380Y-58550057D01*
X69452380Y-58550057D02*
X69404761Y-58502438D01*
X69404761Y-58502438D02*
X69309523Y-58454819D01*
X69309523Y-58454819D02*
X69071428Y-58454819D01*
X69071428Y-58454819D02*
X68928571Y-58502438D01*
X68166666Y-58931009D02*
X68023809Y-58978628D01*
X68023809Y-58978628D02*
X67976190Y-59026247D01*
X67976190Y-59026247D02*
X67928571Y-59121485D01*
X67928571Y-59121485D02*
X67928571Y-59264342D01*
X67928571Y-59264342D02*
X67976190Y-59359580D01*
X67976190Y-59359580D02*
X68023809Y-59407200D01*
X68023809Y-59407200D02*
X68119047Y-59454819D01*
X68119047Y-59454819D02*
X68499999Y-59454819D01*
X68499999Y-59454819D02*
X68499999Y-58454819D01*
X68499999Y-58454819D02*
X68166666Y-58454819D01*
X68166666Y-58454819D02*
X68071428Y-58502438D01*
X68071428Y-58502438D02*
X68023809Y-58550057D01*
X68023809Y-58550057D02*
X67976190Y-58645295D01*
X67976190Y-58645295D02*
X67976190Y-58740533D01*
X67976190Y-58740533D02*
X68023809Y-58835771D01*
X68023809Y-58835771D02*
X68071428Y-58883390D01*
X68071428Y-58883390D02*
X68166666Y-58931009D01*
X68166666Y-58931009D02*
X68499999Y-58931009D01*
X66738094Y-58788152D02*
X66738094Y-59788152D01*
X66738094Y-58835771D02*
X66642856Y-58788152D01*
X66642856Y-58788152D02*
X66452380Y-58788152D01*
X66452380Y-58788152D02*
X66357142Y-58835771D01*
X66357142Y-58835771D02*
X66309523Y-58883390D01*
X66309523Y-58883390D02*
X66261904Y-58978628D01*
X66261904Y-58978628D02*
X66261904Y-59264342D01*
X66261904Y-59264342D02*
X66309523Y-59359580D01*
X66309523Y-59359580D02*
X66357142Y-59407200D01*
X66357142Y-59407200D02*
X66452380Y-59454819D01*
X66452380Y-59454819D02*
X66642856Y-59454819D01*
X66642856Y-59454819D02*
X66738094Y-59407200D01*
X65690475Y-59454819D02*
X65785713Y-59407200D01*
X65785713Y-59407200D02*
X65833332Y-59359580D01*
X65833332Y-59359580D02*
X65880951Y-59264342D01*
X65880951Y-59264342D02*
X65880951Y-58978628D01*
X65880951Y-58978628D02*
X65833332Y-58883390D01*
X65833332Y-58883390D02*
X65785713Y-58835771D01*
X65785713Y-58835771D02*
X65690475Y-58788152D01*
X65690475Y-58788152D02*
X65547618Y-58788152D01*
X65547618Y-58788152D02*
X65452380Y-58835771D01*
X65452380Y-58835771D02*
X65404761Y-58883390D01*
X65404761Y-58883390D02*
X65357142Y-58978628D01*
X65357142Y-58978628D02*
X65357142Y-59264342D01*
X65357142Y-59264342D02*
X65404761Y-59359580D01*
X65404761Y-59359580D02*
X65452380Y-59407200D01*
X65452380Y-59407200D02*
X65547618Y-59454819D01*
X65547618Y-59454819D02*
X65690475Y-59454819D01*
X65023808Y-58788152D02*
X64833332Y-59454819D01*
X64833332Y-59454819D02*
X64642856Y-58978628D01*
X64642856Y-58978628D02*
X64452380Y-59454819D01*
X64452380Y-59454819D02*
X64261904Y-58788152D01*
X63499999Y-59407200D02*
X63595237Y-59454819D01*
X63595237Y-59454819D02*
X63785713Y-59454819D01*
X63785713Y-59454819D02*
X63880951Y-59407200D01*
X63880951Y-59407200D02*
X63928570Y-59311961D01*
X63928570Y-59311961D02*
X63928570Y-58931009D01*
X63928570Y-58931009D02*
X63880951Y-58835771D01*
X63880951Y-58835771D02*
X63785713Y-58788152D01*
X63785713Y-58788152D02*
X63595237Y-58788152D01*
X63595237Y-58788152D02*
X63499999Y-58835771D01*
X63499999Y-58835771D02*
X63452380Y-58931009D01*
X63452380Y-58931009D02*
X63452380Y-59026247D01*
X63452380Y-59026247D02*
X63928570Y-59121485D01*
X63023808Y-59454819D02*
X63023808Y-58788152D01*
X63023808Y-58978628D02*
X62976189Y-58883390D01*
X62976189Y-58883390D02*
X62928570Y-58835771D01*
X62928570Y-58835771D02*
X62833332Y-58788152D01*
X62833332Y-58788152D02*
X62738094Y-58788152D01*
X77761904Y-71204819D02*
X77190476Y-71204819D01*
X77476190Y-72204819D02*
X77476190Y-71204819D01*
X76857142Y-72204819D02*
X76857142Y-71204819D01*
X76857142Y-71204819D02*
X76476190Y-71204819D01*
X76476190Y-71204819D02*
X76380952Y-71252438D01*
X76380952Y-71252438D02*
X76333333Y-71300057D01*
X76333333Y-71300057D02*
X76285714Y-71395295D01*
X76285714Y-71395295D02*
X76285714Y-71538152D01*
X76285714Y-71538152D02*
X76333333Y-71633390D01*
X76333333Y-71633390D02*
X76380952Y-71681009D01*
X76380952Y-71681009D02*
X76476190Y-71728628D01*
X76476190Y-71728628D02*
X76857142Y-71728628D01*
X75952380Y-71204819D02*
X75333333Y-71204819D01*
X75333333Y-71204819D02*
X75666666Y-71585771D01*
X75666666Y-71585771D02*
X75523809Y-71585771D01*
X75523809Y-71585771D02*
X75428571Y-71633390D01*
X75428571Y-71633390D02*
X75380952Y-71681009D01*
X75380952Y-71681009D02*
X75333333Y-71776247D01*
X75333333Y-71776247D02*
X75333333Y-72014342D01*
X75333333Y-72014342D02*
X75380952Y-72109580D01*
X75380952Y-72109580D02*
X75428571Y-72157200D01*
X75428571Y-72157200D02*
X75523809Y-72204819D01*
X75523809Y-72204819D02*
X75809523Y-72204819D01*
X75809523Y-72204819D02*
X75904761Y-72157200D01*
X75904761Y-72157200D02*
X75952380Y-72109580D01*
X80761904Y-71204819D02*
X80190476Y-71204819D01*
X80476190Y-72204819D02*
X80476190Y-71204819D01*
X79857142Y-72204819D02*
X79857142Y-71204819D01*
X79857142Y-71204819D02*
X79476190Y-71204819D01*
X79476190Y-71204819D02*
X79380952Y-71252438D01*
X79380952Y-71252438D02*
X79333333Y-71300057D01*
X79333333Y-71300057D02*
X79285714Y-71395295D01*
X79285714Y-71395295D02*
X79285714Y-71538152D01*
X79285714Y-71538152D02*
X79333333Y-71633390D01*
X79333333Y-71633390D02*
X79380952Y-71681009D01*
X79380952Y-71681009D02*
X79476190Y-71728628D01*
X79476190Y-71728628D02*
X79857142Y-71728628D01*
X78428571Y-71538152D02*
X78428571Y-72204819D01*
X78666666Y-71157200D02*
X78904761Y-71871485D01*
X78904761Y-71871485D02*
X78285714Y-71871485D01*
X71761904Y-71204819D02*
X71190476Y-71204819D01*
X71476190Y-72204819D02*
X71476190Y-71204819D01*
X70857142Y-72204819D02*
X70857142Y-71204819D01*
X70857142Y-71204819D02*
X70476190Y-71204819D01*
X70476190Y-71204819D02*
X70380952Y-71252438D01*
X70380952Y-71252438D02*
X70333333Y-71300057D01*
X70333333Y-71300057D02*
X70285714Y-71395295D01*
X70285714Y-71395295D02*
X70285714Y-71538152D01*
X70285714Y-71538152D02*
X70333333Y-71633390D01*
X70333333Y-71633390D02*
X70380952Y-71681009D01*
X70380952Y-71681009D02*
X70476190Y-71728628D01*
X70476190Y-71728628D02*
X70857142Y-71728628D01*
X69333333Y-72204819D02*
X69904761Y-72204819D01*
X69619047Y-72204819D02*
X69619047Y-71204819D01*
X69619047Y-71204819D02*
X69714285Y-71347676D01*
X69714285Y-71347676D02*
X69809523Y-71442914D01*
X69809523Y-71442914D02*
X69904761Y-71490533D01*
X74761904Y-71204819D02*
X74190476Y-71204819D01*
X74476190Y-72204819D02*
X74476190Y-71204819D01*
X73857142Y-72204819D02*
X73857142Y-71204819D01*
X73857142Y-71204819D02*
X73476190Y-71204819D01*
X73476190Y-71204819D02*
X73380952Y-71252438D01*
X73380952Y-71252438D02*
X73333333Y-71300057D01*
X73333333Y-71300057D02*
X73285714Y-71395295D01*
X73285714Y-71395295D02*
X73285714Y-71538152D01*
X73285714Y-71538152D02*
X73333333Y-71633390D01*
X73333333Y-71633390D02*
X73380952Y-71681009D01*
X73380952Y-71681009D02*
X73476190Y-71728628D01*
X73476190Y-71728628D02*
X73857142Y-71728628D01*
X72904761Y-71300057D02*
X72857142Y-71252438D01*
X72857142Y-71252438D02*
X72761904Y-71204819D01*
X72761904Y-71204819D02*
X72523809Y-71204819D01*
X72523809Y-71204819D02*
X72428571Y-71252438D01*
X72428571Y-71252438D02*
X72380952Y-71300057D01*
X72380952Y-71300057D02*
X72333333Y-71395295D01*
X72333333Y-71395295D02*
X72333333Y-71490533D01*
X72333333Y-71490533D02*
X72380952Y-71633390D01*
X72380952Y-71633390D02*
X72952380Y-72204819D01*
X72952380Y-72204819D02*
X72333333Y-72204819D01*
%TO.C,TP3*%
X77200000Y-70000000D02*
G75*
G02*
X75800000Y-70000000I-700000J0D01*
G01*
X75800000Y-70000000D02*
G75*
G02*
X77200000Y-70000000I700000J0D01*
G01*
%TO.C,TP4*%
X80200000Y-70000000D02*
G75*
G02*
X78800000Y-70000000I-700000J0D01*
G01*
X78800000Y-70000000D02*
G75*
G02*
X80200000Y-70000000I700000J0D01*
G01*
%TO.C,TP1*%
X71200000Y-70000000D02*
G75*
G02*
X69800000Y-70000000I-700000J0D01*
G01*
X69800000Y-70000000D02*
G75*
G02*
X71200000Y-70000000I700000J0D01*
G01*
%TO.C,TP2*%
X74200000Y-70000000D02*
G75*
G02*
X72800000Y-70000000I-700000J0D01*
G01*
X72800000Y-70000000D02*
G75*
G02*
X74200000Y-70000000I700000J0D01*
G01*
%TD*%
M02*
