M48
; DRILL file KiCad 10.0.6-1.fc44 date 2026-09-12T21:49:49
; FORMAT={-:-/ absolute / metric / decimal}
; #@! TF.CreationDate,2026-09-12T21:49:49+02:00
; #@! TF.GenerationSoftware,Kicad,Pcbnew,10.0.6-1.fc44
; #@! TF.FileFunction,Plated,1,2,PTH
FMAT,2
METRIC
; #@! TA.AperFunction,Plated,PTH,ViaDrill
T1C0.300
; #@! TA.AperFunction,Plated,PTH,ComponentDrill
T2C0.900
%
G90
G05
T1
X50.944Y-57.997
X50.954Y-55.457
X51.162Y-64.484
X51.18Y-61.888
X51.425Y-51.507
X70.896Y-59.688
X70.907Y-64.984
X70.935Y-67.531
X71.2Y-61.675
X71.325Y-53.768
X71.348Y-57.006
X71.681Y-60.29
X72.634Y-57.427
X74.177Y-59.904
X74.203Y-61.023
X74.266Y-52.0
X74.313Y-64.925
X74.4Y-68.5
X74.485Y-66.421
X74.882Y-53.703
X75.5Y-56.658
X75.733Y-63.749
X75.741Y-64.837
X76.5Y-68.97
X77.825Y-67.037
X79.8Y-61.675
X79.8Y-64.925
X79.9Y-54.925
X79.95Y-68.5
X80.32Y-51.824
X80.682Y-64.5
X81.856Y-67.144
X84.319Y-65.0
T2
G00X82.45Y-54.75
M15
G01X84.25Y-54.75
M16
G05
G00X82.45Y-69.25
M15
G01X84.25Y-69.25
M16
G05
G00X88.75Y-54.75
M15
G01X89.95Y-54.75
M16
G05
G00X88.75Y-69.25
M15
G01X89.95Y-69.25
M16
G05
M30
