%TF.GenerationSoftware,KiCad,Pcbnew,10.0.6-1.fc44*%
%TF.CreationDate,2026-09-13T07:26:35+02:00*%
%TF.ProjectId,hdmi2c,68646d69-3263-42e6-9b69-6361645f7063,rev2*%
%TF.SameCoordinates,Original*%
%TF.FileFunction,Soldermask,Bot*%
%TF.FilePolarity,Negative*%
%FSLAX46Y46*%
G04 Gerber Fmt 4.6, Leading zero omitted, Abs format (unit mm)*
G04 Created by KiCad (PCBNEW 10.0.6-1.fc44) date 2026-09-13 07:26:35*
%MOMM*%
%LPD*%
G01*
G04 APERTURE LIST*
G04 APERTURE END LIST*
G36*
X70691342Y-69538060D02*
G01*
X70804381Y-69603323D01*
X70896677Y-69695619D01*
X70961940Y-69808658D01*
X70995722Y-69934737D01*
X70995722Y-70065263D01*
X70961940Y-70191342D01*
X70896677Y-70304381D01*
X70804381Y-70396677D01*
X70691342Y-70461940D01*
X70565263Y-70495722D01*
X70434737Y-70495722D01*
X70308658Y-70461940D01*
X70195619Y-70396677D01*
X70103323Y-70304381D01*
X70038060Y-70191342D01*
X70004278Y-70065263D01*
X70004278Y-69934737D01*
X70038060Y-69808658D01*
X70103323Y-69695619D01*
X70195619Y-69603323D01*
X70308658Y-69538060D01*
X70434737Y-69504278D01*
X70565263Y-69504278D01*
X70691342Y-69538060D01*
G37*
G36*
X73691342Y-69538060D02*
G01*
X73804381Y-69603323D01*
X73896677Y-69695619D01*
X73961940Y-69808658D01*
X73995722Y-69934737D01*
X73995722Y-70065263D01*
X73961940Y-70191342D01*
X73896677Y-70304381D01*
X73804381Y-70396677D01*
X73691342Y-70461940D01*
X73565263Y-70495722D01*
X73434737Y-70495722D01*
X73308658Y-70461940D01*
X73195619Y-70396677D01*
X73103323Y-70304381D01*
X73038060Y-70191342D01*
X73004278Y-70065263D01*
X73004278Y-69934737D01*
X73038060Y-69808658D01*
X73103323Y-69695619D01*
X73195619Y-69603323D01*
X73308658Y-69538060D01*
X73434737Y-69504278D01*
X73565263Y-69504278D01*
X73691342Y-69538060D01*
G37*
G36*
X76691342Y-69538060D02*
G01*
X76804381Y-69603323D01*
X76896677Y-69695619D01*
X76961940Y-69808658D01*
X76995722Y-69934737D01*
X76995722Y-70065263D01*
X76961940Y-70191342D01*
X76896677Y-70304381D01*
X76804381Y-70396677D01*
X76691342Y-70461940D01*
X76565263Y-70495722D01*
X76434737Y-70495722D01*
X76308658Y-70461940D01*
X76195619Y-70396677D01*
X76103323Y-70304381D01*
X76038060Y-70191342D01*
X76004278Y-70065263D01*
X76004278Y-69934737D01*
X76038060Y-69808658D01*
X76103323Y-69695619D01*
X76195619Y-69603323D01*
X76308658Y-69538060D01*
X76434737Y-69504278D01*
X76565263Y-69504278D01*
X76691342Y-69538060D01*
G37*
G36*
X79691342Y-69538060D02*
G01*
X79804381Y-69603323D01*
X79896677Y-69695619D01*
X79961940Y-69808658D01*
X79995722Y-69934737D01*
X79995722Y-70065263D01*
X79961940Y-70191342D01*
X79896677Y-70304381D01*
X79804381Y-70396677D01*
X79691342Y-70461940D01*
X79565263Y-70495722D01*
X79434737Y-70495722D01*
X79308658Y-70461940D01*
X79195619Y-70396677D01*
X79103323Y-70304381D01*
X79038060Y-70191342D01*
X79004278Y-70065263D01*
X79004278Y-69934737D01*
X79038060Y-69808658D01*
X79103323Y-69695619D01*
X79195619Y-69603323D01*
X79308658Y-69538060D01*
X79434737Y-69504278D01*
X79565263Y-69504278D01*
X79691342Y-69538060D01*
G37*
G36*
X84323513Y-68503611D02*
G01*
X84467714Y-68532295D01*
X84603548Y-68588559D01*
X84725795Y-68670242D01*
X84829758Y-68774205D01*
X84911441Y-68896452D01*
X84967705Y-69032286D01*
X84996389Y-69176487D01*
X84996389Y-69323513D01*
X84967705Y-69467714D01*
X84911441Y-69603548D01*
X84829758Y-69725795D01*
X84725795Y-69829758D01*
X84603548Y-69911441D01*
X84467714Y-69967705D01*
X84323513Y-69996389D01*
X84250000Y-70000000D01*
X84248522Y-70000000D01*
X82451478Y-70000000D01*
X82450000Y-70000000D01*
X82376487Y-69996389D01*
X82232286Y-69967705D01*
X82096452Y-69911441D01*
X81974205Y-69829758D01*
X81870242Y-69725795D01*
X81788559Y-69603548D01*
X81732295Y-69467714D01*
X81703611Y-69323513D01*
X81703611Y-69176487D01*
X81732295Y-69032286D01*
X81788559Y-68896452D01*
X81870242Y-68774205D01*
X81974205Y-68670242D01*
X82096452Y-68588559D01*
X82232286Y-68532295D01*
X82376487Y-68503611D01*
X82450000Y-68500000D01*
X84250000Y-68500000D01*
X84323513Y-68503611D01*
G37*
G36*
X90023513Y-68503611D02*
G01*
X90167714Y-68532295D01*
X90303548Y-68588559D01*
X90425795Y-68670242D01*
X90529758Y-68774205D01*
X90611441Y-68896452D01*
X90667705Y-69032286D01*
X90696389Y-69176487D01*
X90696389Y-69323513D01*
X90667705Y-69467714D01*
X90611441Y-69603548D01*
X90529758Y-69725795D01*
X90425795Y-69829758D01*
X90303548Y-69911441D01*
X90167714Y-69967705D01*
X90023513Y-69996389D01*
X89950000Y-70000000D01*
X89948522Y-70000000D01*
X88751478Y-70000000D01*
X88750000Y-70000000D01*
X88676487Y-69996389D01*
X88532286Y-69967705D01*
X88396452Y-69911441D01*
X88274205Y-69829758D01*
X88170242Y-69725795D01*
X88088559Y-69603548D01*
X88032295Y-69467714D01*
X88003611Y-69323513D01*
X88003611Y-69176487D01*
X88032295Y-69032286D01*
X88088559Y-68896452D01*
X88170242Y-68774205D01*
X88274205Y-68670242D01*
X88396452Y-68588559D01*
X88532286Y-68532295D01*
X88676487Y-68503611D01*
X88750000Y-68500000D01*
X89950000Y-68500000D01*
X90023513Y-68503611D01*
G37*
G36*
X84323513Y-54003611D02*
G01*
X84467714Y-54032295D01*
X84603548Y-54088559D01*
X84725795Y-54170242D01*
X84829758Y-54274205D01*
X84911441Y-54396452D01*
X84967705Y-54532286D01*
X84996389Y-54676487D01*
X84996389Y-54823513D01*
X84967705Y-54967714D01*
X84911441Y-55103548D01*
X84829758Y-55225795D01*
X84725795Y-55329758D01*
X84603548Y-55411441D01*
X84467714Y-55467705D01*
X84323513Y-55496389D01*
X84250000Y-55500000D01*
X84248522Y-55500000D01*
X82451478Y-55500000D01*
X82450000Y-55500000D01*
X82376487Y-55496389D01*
X82232286Y-55467705D01*
X82096452Y-55411441D01*
X81974205Y-55329758D01*
X81870242Y-55225795D01*
X81788559Y-55103548D01*
X81732295Y-54967714D01*
X81703611Y-54823513D01*
X81703611Y-54676487D01*
X81732295Y-54532286D01*
X81788559Y-54396452D01*
X81870242Y-54274205D01*
X81974205Y-54170242D01*
X82096452Y-54088559D01*
X82232286Y-54032295D01*
X82376487Y-54003611D01*
X82450000Y-54000000D01*
X84250000Y-54000000D01*
X84323513Y-54003611D01*
G37*
G36*
X90023513Y-54003611D02*
G01*
X90167714Y-54032295D01*
X90303548Y-54088559D01*
X90425795Y-54170242D01*
X90529758Y-54274205D01*
X90611441Y-54396452D01*
X90667705Y-54532286D01*
X90696389Y-54676487D01*
X90696389Y-54823513D01*
X90667705Y-54967714D01*
X90611441Y-55103548D01*
X90529758Y-55225795D01*
X90425795Y-55329758D01*
X90303548Y-55411441D01*
X90167714Y-55467705D01*
X90023513Y-55496389D01*
X89950000Y-55500000D01*
X89948522Y-55500000D01*
X88751478Y-55500000D01*
X88750000Y-55500000D01*
X88676487Y-55496389D01*
X88532286Y-55467705D01*
X88396452Y-55411441D01*
X88274205Y-55329758D01*
X88170242Y-55225795D01*
X88088559Y-55103548D01*
X88032295Y-54967714D01*
X88003611Y-54823513D01*
X88003611Y-54676487D01*
X88032295Y-54532286D01*
X88088559Y-54396452D01*
X88170242Y-54274205D01*
X88274205Y-54170242D01*
X88396452Y-54088559D01*
X88532286Y-54032295D01*
X88676487Y-54003611D01*
X88750000Y-54000000D01*
X89950000Y-54000000D01*
X90023513Y-54003611D01*
G37*
M02*
