%TF.GenerationSoftware,KiCad,Pcbnew,10.0.6-1.fc44*%
%TF.CreationDate,2026-09-12T15:31:02+02:00*%
%TF.ProjectId,hdmi2c,68646d69-3263-42e6-9b69-6361645f7063,rev2*%
%TF.SameCoordinates,Original*%
%TF.FileFunction,Legend,Bot*%
%TF.FilePolarity,Positive*%
%FSLAX46Y46*%
G04 Gerber Fmt 4.6, Leading zero omitted, Abs format (unit mm)*
G04 Created by KiCad (PCBNEW 10.0.6-1.fc44) date 2026-09-12 15:31:02*
%MOMM*%
%LPD*%
G01*
G04 APERTURE LIST*
%ADD10C,0.130000*%
%ADD11C,0.120000*%
G04 APERTURE END LIST*
D10*
X65928572Y-65134763D02*
X65547619Y-65134763D01*
X66004762Y-65363335D02*
X65738095Y-64563335D01*
X65738095Y-64563335D02*
X65471429Y-65363335D01*
X65204762Y-64830001D02*
X65204762Y-65363335D01*
X65204762Y-64906192D02*
X65166667Y-64868097D01*
X65166667Y-64868097D02*
X65090477Y-64830001D01*
X65090477Y-64830001D02*
X64976191Y-64830001D01*
X64976191Y-64830001D02*
X64900000Y-64868097D01*
X64900000Y-64868097D02*
X64861905Y-64944287D01*
X64861905Y-64944287D02*
X64861905Y-65363335D01*
X64595238Y-64830001D02*
X64290476Y-64830001D01*
X64480952Y-64563335D02*
X64480952Y-65249049D01*
X64480952Y-65249049D02*
X64442857Y-65325240D01*
X64442857Y-65325240D02*
X64366667Y-65363335D01*
X64366667Y-65363335D02*
X64290476Y-65363335D01*
X63719047Y-65325240D02*
X63795238Y-65363335D01*
X63795238Y-65363335D02*
X63947619Y-65363335D01*
X63947619Y-65363335D02*
X64023809Y-65325240D01*
X64023809Y-65325240D02*
X64061905Y-65249049D01*
X64061905Y-65249049D02*
X64061905Y-64944287D01*
X64061905Y-64944287D02*
X64023809Y-64868097D01*
X64023809Y-64868097D02*
X63947619Y-64830001D01*
X63947619Y-64830001D02*
X63795238Y-64830001D01*
X63795238Y-64830001D02*
X63719047Y-64868097D01*
X63719047Y-64868097D02*
X63680952Y-64944287D01*
X63680952Y-64944287D02*
X63680952Y-65020478D01*
X63680952Y-65020478D02*
X64061905Y-65096668D01*
X63338095Y-64830001D02*
X63338095Y-65363335D01*
X63338095Y-64906192D02*
X63300000Y-64868097D01*
X63300000Y-64868097D02*
X63223810Y-64830001D01*
X63223810Y-64830001D02*
X63109524Y-64830001D01*
X63109524Y-64830001D02*
X63033333Y-64868097D01*
X63033333Y-64868097D02*
X62995238Y-64944287D01*
X62995238Y-64944287D02*
X62995238Y-65363335D01*
X62614285Y-64830001D02*
X62614285Y-65363335D01*
X62614285Y-64906192D02*
X62576190Y-64868097D01*
X62576190Y-64868097D02*
X62500000Y-64830001D01*
X62500000Y-64830001D02*
X62385714Y-64830001D01*
X62385714Y-64830001D02*
X62309523Y-64868097D01*
X62309523Y-64868097D02*
X62271428Y-64944287D01*
X62271428Y-64944287D02*
X62271428Y-65363335D01*
X61547618Y-65363335D02*
X61547618Y-64944287D01*
X61547618Y-64944287D02*
X61585713Y-64868097D01*
X61585713Y-64868097D02*
X61661904Y-64830001D01*
X61661904Y-64830001D02*
X61814285Y-64830001D01*
X61814285Y-64830001D02*
X61890475Y-64868097D01*
X61547618Y-65325240D02*
X61623809Y-65363335D01*
X61623809Y-65363335D02*
X61814285Y-65363335D01*
X61814285Y-65363335D02*
X61890475Y-65325240D01*
X61890475Y-65325240D02*
X61928571Y-65249049D01*
X61928571Y-65249049D02*
X61928571Y-65172859D01*
X61928571Y-65172859D02*
X61890475Y-65096668D01*
X61890475Y-65096668D02*
X61814285Y-65058573D01*
X61814285Y-65058573D02*
X61623809Y-65058573D01*
X61623809Y-65058573D02*
X61547618Y-65020478D01*
X60214284Y-65325240D02*
X60290475Y-65363335D01*
X60290475Y-65363335D02*
X60442856Y-65363335D01*
X60442856Y-65363335D02*
X60519046Y-65325240D01*
X60519046Y-65325240D02*
X60557141Y-65287144D01*
X60557141Y-65287144D02*
X60595237Y-65210954D01*
X60595237Y-65210954D02*
X60595237Y-64982382D01*
X60595237Y-64982382D02*
X60557141Y-64906192D01*
X60557141Y-64906192D02*
X60519046Y-64868097D01*
X60519046Y-64868097D02*
X60442856Y-64830001D01*
X60442856Y-64830001D02*
X60290475Y-64830001D01*
X60290475Y-64830001D02*
X60214284Y-64868097D01*
X59757142Y-65363335D02*
X59833332Y-65325240D01*
X59833332Y-65325240D02*
X59871427Y-65249049D01*
X59871427Y-65249049D02*
X59871427Y-64563335D01*
X59147617Y-65325240D02*
X59223808Y-65363335D01*
X59223808Y-65363335D02*
X59376189Y-65363335D01*
X59376189Y-65363335D02*
X59452379Y-65325240D01*
X59452379Y-65325240D02*
X59490475Y-65249049D01*
X59490475Y-65249049D02*
X59490475Y-64944287D01*
X59490475Y-64944287D02*
X59452379Y-64868097D01*
X59452379Y-64868097D02*
X59376189Y-64830001D01*
X59376189Y-64830001D02*
X59223808Y-64830001D01*
X59223808Y-64830001D02*
X59147617Y-64868097D01*
X59147617Y-64868097D02*
X59109522Y-64944287D01*
X59109522Y-64944287D02*
X59109522Y-65020478D01*
X59109522Y-65020478D02*
X59490475Y-65096668D01*
X58423808Y-65363335D02*
X58423808Y-64944287D01*
X58423808Y-64944287D02*
X58461903Y-64868097D01*
X58461903Y-64868097D02*
X58538094Y-64830001D01*
X58538094Y-64830001D02*
X58690475Y-64830001D01*
X58690475Y-64830001D02*
X58766665Y-64868097D01*
X58423808Y-65325240D02*
X58499999Y-65363335D01*
X58499999Y-65363335D02*
X58690475Y-65363335D01*
X58690475Y-65363335D02*
X58766665Y-65325240D01*
X58766665Y-65325240D02*
X58804761Y-65249049D01*
X58804761Y-65249049D02*
X58804761Y-65172859D01*
X58804761Y-65172859D02*
X58766665Y-65096668D01*
X58766665Y-65096668D02*
X58690475Y-65058573D01*
X58690475Y-65058573D02*
X58499999Y-65058573D01*
X58499999Y-65058573D02*
X58423808Y-65020478D01*
X58042855Y-65363335D02*
X58042855Y-64830001D01*
X58042855Y-64982382D02*
X58004760Y-64906192D01*
X58004760Y-64906192D02*
X57966665Y-64868097D01*
X57966665Y-64868097D02*
X57890474Y-64830001D01*
X57890474Y-64830001D02*
X57814284Y-64830001D01*
X57204760Y-65363335D02*
X57204760Y-64944287D01*
X57204760Y-64944287D02*
X57242855Y-64868097D01*
X57242855Y-64868097D02*
X57319046Y-64830001D01*
X57319046Y-64830001D02*
X57471427Y-64830001D01*
X57471427Y-64830001D02*
X57547617Y-64868097D01*
X57204760Y-65325240D02*
X57280951Y-65363335D01*
X57280951Y-65363335D02*
X57471427Y-65363335D01*
X57471427Y-65363335D02*
X57547617Y-65325240D01*
X57547617Y-65325240D02*
X57585713Y-65249049D01*
X57585713Y-65249049D02*
X57585713Y-65172859D01*
X57585713Y-65172859D02*
X57547617Y-65096668D01*
X57547617Y-65096668D02*
X57471427Y-65058573D01*
X57471427Y-65058573D02*
X57280951Y-65058573D01*
X57280951Y-65058573D02*
X57204760Y-65020478D01*
X56823807Y-64830001D02*
X56823807Y-65363335D01*
X56823807Y-64906192D02*
X56785712Y-64868097D01*
X56785712Y-64868097D02*
X56709522Y-64830001D01*
X56709522Y-64830001D02*
X56595236Y-64830001D01*
X56595236Y-64830001D02*
X56519045Y-64868097D01*
X56519045Y-64868097D02*
X56480950Y-64944287D01*
X56480950Y-64944287D02*
X56480950Y-65363335D01*
X55757140Y-65325240D02*
X55833331Y-65363335D01*
X55833331Y-65363335D02*
X55985712Y-65363335D01*
X55985712Y-65363335D02*
X56061902Y-65325240D01*
X56061902Y-65325240D02*
X56099997Y-65287144D01*
X56099997Y-65287144D02*
X56138093Y-65210954D01*
X56138093Y-65210954D02*
X56138093Y-64982382D01*
X56138093Y-64982382D02*
X56099997Y-64906192D01*
X56099997Y-64906192D02*
X56061902Y-64868097D01*
X56061902Y-64868097D02*
X55985712Y-64830001D01*
X55985712Y-64830001D02*
X55833331Y-64830001D01*
X55833331Y-64830001D02*
X55757140Y-64868097D01*
X55109521Y-65325240D02*
X55185712Y-65363335D01*
X55185712Y-65363335D02*
X55338093Y-65363335D01*
X55338093Y-65363335D02*
X55414283Y-65325240D01*
X55414283Y-65325240D02*
X55452379Y-65249049D01*
X55452379Y-65249049D02*
X55452379Y-64944287D01*
X55452379Y-64944287D02*
X55414283Y-64868097D01*
X55414283Y-64868097D02*
X55338093Y-64830001D01*
X55338093Y-64830001D02*
X55185712Y-64830001D01*
X55185712Y-64830001D02*
X55109521Y-64868097D01*
X55109521Y-64868097D02*
X55071426Y-64944287D01*
X55071426Y-64944287D02*
X55071426Y-65020478D01*
X55071426Y-65020478D02*
X55452379Y-65096668D01*
X70652380Y-68063335D02*
X71033332Y-68063335D01*
X71033332Y-68063335D02*
X71071428Y-68444287D01*
X71071428Y-68444287D02*
X71033332Y-68406192D01*
X71033332Y-68406192D02*
X70957142Y-68368097D01*
X70957142Y-68368097D02*
X70766666Y-68368097D01*
X70766666Y-68368097D02*
X70690475Y-68406192D01*
X70690475Y-68406192D02*
X70652380Y-68444287D01*
X70652380Y-68444287D02*
X70614285Y-68520478D01*
X70614285Y-68520478D02*
X70614285Y-68710954D01*
X70614285Y-68710954D02*
X70652380Y-68787144D01*
X70652380Y-68787144D02*
X70690475Y-68825240D01*
X70690475Y-68825240D02*
X70766666Y-68863335D01*
X70766666Y-68863335D02*
X70957142Y-68863335D01*
X70957142Y-68863335D02*
X71033332Y-68825240D01*
X71033332Y-68825240D02*
X71071428Y-68787144D01*
X70385713Y-68063335D02*
X70119046Y-68863335D01*
X70119046Y-68863335D02*
X69852380Y-68063335D01*
X74109523Y-68101430D02*
X74185713Y-68063335D01*
X74185713Y-68063335D02*
X74299999Y-68063335D01*
X74299999Y-68063335D02*
X74414285Y-68101430D01*
X74414285Y-68101430D02*
X74490475Y-68177620D01*
X74490475Y-68177620D02*
X74528570Y-68253811D01*
X74528570Y-68253811D02*
X74566666Y-68406192D01*
X74566666Y-68406192D02*
X74566666Y-68520478D01*
X74566666Y-68520478D02*
X74528570Y-68672859D01*
X74528570Y-68672859D02*
X74490475Y-68749049D01*
X74490475Y-68749049D02*
X74414285Y-68825240D01*
X74414285Y-68825240D02*
X74299999Y-68863335D01*
X74299999Y-68863335D02*
X74223808Y-68863335D01*
X74223808Y-68863335D02*
X74109523Y-68825240D01*
X74109523Y-68825240D02*
X74071427Y-68787144D01*
X74071427Y-68787144D02*
X74071427Y-68520478D01*
X74071427Y-68520478D02*
X74223808Y-68520478D01*
X73728570Y-68863335D02*
X73728570Y-68063335D01*
X73728570Y-68063335D02*
X73271427Y-68863335D01*
X73271427Y-68863335D02*
X73271427Y-68063335D01*
X72890475Y-68863335D02*
X72890475Y-68063335D01*
X72890475Y-68063335D02*
X72699999Y-68063335D01*
X72699999Y-68063335D02*
X72585713Y-68101430D01*
X72585713Y-68101430D02*
X72509523Y-68177620D01*
X72509523Y-68177620D02*
X72471428Y-68253811D01*
X72471428Y-68253811D02*
X72433332Y-68406192D01*
X72433332Y-68406192D02*
X72433332Y-68520478D01*
X72433332Y-68520478D02*
X72471428Y-68672859D01*
X72471428Y-68672859D02*
X72509523Y-68749049D01*
X72509523Y-68749049D02*
X72585713Y-68825240D01*
X72585713Y-68825240D02*
X72699999Y-68863335D01*
X72699999Y-68863335D02*
X72890475Y-68863335D01*
X77452381Y-68825240D02*
X77338095Y-68863335D01*
X77338095Y-68863335D02*
X77147619Y-68863335D01*
X77147619Y-68863335D02*
X77071428Y-68825240D01*
X77071428Y-68825240D02*
X77033333Y-68787144D01*
X77033333Y-68787144D02*
X76995238Y-68710954D01*
X76995238Y-68710954D02*
X76995238Y-68634763D01*
X76995238Y-68634763D02*
X77033333Y-68558573D01*
X77033333Y-68558573D02*
X77071428Y-68520478D01*
X77071428Y-68520478D02*
X77147619Y-68482382D01*
X77147619Y-68482382D02*
X77300000Y-68444287D01*
X77300000Y-68444287D02*
X77376190Y-68406192D01*
X77376190Y-68406192D02*
X77414285Y-68368097D01*
X77414285Y-68368097D02*
X77452381Y-68291906D01*
X77452381Y-68291906D02*
X77452381Y-68215716D01*
X77452381Y-68215716D02*
X77414285Y-68139525D01*
X77414285Y-68139525D02*
X77376190Y-68101430D01*
X77376190Y-68101430D02*
X77300000Y-68063335D01*
X77300000Y-68063335D02*
X77109523Y-68063335D01*
X77109523Y-68063335D02*
X76995238Y-68101430D01*
X76195237Y-68787144D02*
X76233333Y-68825240D01*
X76233333Y-68825240D02*
X76347618Y-68863335D01*
X76347618Y-68863335D02*
X76423809Y-68863335D01*
X76423809Y-68863335D02*
X76538095Y-68825240D01*
X76538095Y-68825240D02*
X76614285Y-68749049D01*
X76614285Y-68749049D02*
X76652380Y-68672859D01*
X76652380Y-68672859D02*
X76690476Y-68520478D01*
X76690476Y-68520478D02*
X76690476Y-68406192D01*
X76690476Y-68406192D02*
X76652380Y-68253811D01*
X76652380Y-68253811D02*
X76614285Y-68177620D01*
X76614285Y-68177620D02*
X76538095Y-68101430D01*
X76538095Y-68101430D02*
X76423809Y-68063335D01*
X76423809Y-68063335D02*
X76347618Y-68063335D01*
X76347618Y-68063335D02*
X76233333Y-68101430D01*
X76233333Y-68101430D02*
X76195237Y-68139525D01*
X75471428Y-68863335D02*
X75852380Y-68863335D01*
X75852380Y-68863335D02*
X75852380Y-68063335D01*
X80471428Y-68825240D02*
X80357142Y-68863335D01*
X80357142Y-68863335D02*
X80166666Y-68863335D01*
X80166666Y-68863335D02*
X80090475Y-68825240D01*
X80090475Y-68825240D02*
X80052380Y-68787144D01*
X80052380Y-68787144D02*
X80014285Y-68710954D01*
X80014285Y-68710954D02*
X80014285Y-68634763D01*
X80014285Y-68634763D02*
X80052380Y-68558573D01*
X80052380Y-68558573D02*
X80090475Y-68520478D01*
X80090475Y-68520478D02*
X80166666Y-68482382D01*
X80166666Y-68482382D02*
X80319047Y-68444287D01*
X80319047Y-68444287D02*
X80395237Y-68406192D01*
X80395237Y-68406192D02*
X80433332Y-68368097D01*
X80433332Y-68368097D02*
X80471428Y-68291906D01*
X80471428Y-68291906D02*
X80471428Y-68215716D01*
X80471428Y-68215716D02*
X80433332Y-68139525D01*
X80433332Y-68139525D02*
X80395237Y-68101430D01*
X80395237Y-68101430D02*
X80319047Y-68063335D01*
X80319047Y-68063335D02*
X80128570Y-68063335D01*
X80128570Y-68063335D02*
X80014285Y-68101430D01*
X79671427Y-68863335D02*
X79671427Y-68063335D01*
X79671427Y-68063335D02*
X79480951Y-68063335D01*
X79480951Y-68063335D02*
X79366665Y-68101430D01*
X79366665Y-68101430D02*
X79290475Y-68177620D01*
X79290475Y-68177620D02*
X79252380Y-68253811D01*
X79252380Y-68253811D02*
X79214284Y-68406192D01*
X79214284Y-68406192D02*
X79214284Y-68520478D01*
X79214284Y-68520478D02*
X79252380Y-68672859D01*
X79252380Y-68672859D02*
X79290475Y-68749049D01*
X79290475Y-68749049D02*
X79366665Y-68825240D01*
X79366665Y-68825240D02*
X79480951Y-68863335D01*
X79480951Y-68863335D02*
X79671427Y-68863335D01*
X78909523Y-68634763D02*
X78528570Y-68634763D01*
X78985713Y-68863335D02*
X78719046Y-68063335D01*
X78719046Y-68063335D02*
X78452380Y-68863335D01*
X83750001Y-61409597D02*
X83750001Y-60509597D01*
X83750001Y-60509597D02*
X83535715Y-60509597D01*
X83535715Y-60509597D02*
X83407144Y-60552454D01*
X83407144Y-60552454D02*
X83321429Y-60638168D01*
X83321429Y-60638168D02*
X83278572Y-60723882D01*
X83278572Y-60723882D02*
X83235715Y-60895311D01*
X83235715Y-60895311D02*
X83235715Y-61023882D01*
X83235715Y-61023882D02*
X83278572Y-61195311D01*
X83278572Y-61195311D02*
X83321429Y-61281025D01*
X83321429Y-61281025D02*
X83407144Y-61366740D01*
X83407144Y-61366740D02*
X83535715Y-61409597D01*
X83535715Y-61409597D02*
X83750001Y-61409597D01*
X82850001Y-61409597D02*
X82850001Y-60509597D01*
X82850001Y-60509597D02*
X82635715Y-60509597D01*
X82635715Y-60509597D02*
X82507144Y-60552454D01*
X82507144Y-60552454D02*
X82421429Y-60638168D01*
X82421429Y-60638168D02*
X82378572Y-60723882D01*
X82378572Y-60723882D02*
X82335715Y-60895311D01*
X82335715Y-60895311D02*
X82335715Y-61023882D01*
X82335715Y-61023882D02*
X82378572Y-61195311D01*
X82378572Y-61195311D02*
X82421429Y-61281025D01*
X82421429Y-61281025D02*
X82507144Y-61366740D01*
X82507144Y-61366740D02*
X82635715Y-61409597D01*
X82635715Y-61409597D02*
X82850001Y-61409597D01*
X81435715Y-61323882D02*
X81478572Y-61366740D01*
X81478572Y-61366740D02*
X81607144Y-61409597D01*
X81607144Y-61409597D02*
X81692858Y-61409597D01*
X81692858Y-61409597D02*
X81821429Y-61366740D01*
X81821429Y-61366740D02*
X81907144Y-61281025D01*
X81907144Y-61281025D02*
X81950001Y-61195311D01*
X81950001Y-61195311D02*
X81992858Y-61023882D01*
X81992858Y-61023882D02*
X81992858Y-60895311D01*
X81992858Y-60895311D02*
X81950001Y-60723882D01*
X81950001Y-60723882D02*
X81907144Y-60638168D01*
X81907144Y-60638168D02*
X81821429Y-60552454D01*
X81821429Y-60552454D02*
X81692858Y-60509597D01*
X81692858Y-60509597D02*
X81607144Y-60509597D01*
X81607144Y-60509597D02*
X81478572Y-60552454D01*
X81478572Y-60552454D02*
X81435715Y-60595311D01*
X79978573Y-61366740D02*
X80064287Y-61409597D01*
X80064287Y-61409597D02*
X80235715Y-61409597D01*
X80235715Y-61409597D02*
X80321430Y-61366740D01*
X80321430Y-61366740D02*
X80364287Y-61323882D01*
X80364287Y-61323882D02*
X80407144Y-61238168D01*
X80407144Y-61238168D02*
X80407144Y-60981025D01*
X80407144Y-60981025D02*
X80364287Y-60895311D01*
X80364287Y-60895311D02*
X80321430Y-60852454D01*
X80321430Y-60852454D02*
X80235715Y-60809597D01*
X80235715Y-60809597D02*
X80064287Y-60809597D01*
X80064287Y-60809597D02*
X79978573Y-60852454D01*
X79464286Y-61409597D02*
X79550001Y-61366740D01*
X79550001Y-61366740D02*
X79592858Y-61323882D01*
X79592858Y-61323882D02*
X79635715Y-61238168D01*
X79635715Y-61238168D02*
X79635715Y-60981025D01*
X79635715Y-60981025D02*
X79592858Y-60895311D01*
X79592858Y-60895311D02*
X79550001Y-60852454D01*
X79550001Y-60852454D02*
X79464286Y-60809597D01*
X79464286Y-60809597D02*
X79335715Y-60809597D01*
X79335715Y-60809597D02*
X79250001Y-60852454D01*
X79250001Y-60852454D02*
X79207144Y-60895311D01*
X79207144Y-60895311D02*
X79164286Y-60981025D01*
X79164286Y-60981025D02*
X79164286Y-61238168D01*
X79164286Y-61238168D02*
X79207144Y-61323882D01*
X79207144Y-61323882D02*
X79250001Y-61366740D01*
X79250001Y-61366740D02*
X79335715Y-61409597D01*
X79335715Y-61409597D02*
X79464286Y-61409597D01*
X78778572Y-60809597D02*
X78778572Y-61409597D01*
X78778572Y-60895311D02*
X78735715Y-60852454D01*
X78735715Y-60852454D02*
X78650000Y-60809597D01*
X78650000Y-60809597D02*
X78521429Y-60809597D01*
X78521429Y-60809597D02*
X78435715Y-60852454D01*
X78435715Y-60852454D02*
X78392858Y-60938168D01*
X78392858Y-60938168D02*
X78392858Y-61409597D01*
X78092857Y-60809597D02*
X77750000Y-60809597D01*
X77964286Y-60509597D02*
X77964286Y-61281025D01*
X77964286Y-61281025D02*
X77921429Y-61366740D01*
X77921429Y-61366740D02*
X77835714Y-61409597D01*
X77835714Y-61409597D02*
X77750000Y-61409597D01*
X77450000Y-61409597D02*
X77450000Y-60809597D01*
X77450000Y-60981025D02*
X77407143Y-60895311D01*
X77407143Y-60895311D02*
X77364286Y-60852454D01*
X77364286Y-60852454D02*
X77278571Y-60809597D01*
X77278571Y-60809597D02*
X77192857Y-60809597D01*
X76764285Y-61409597D02*
X76850000Y-61366740D01*
X76850000Y-61366740D02*
X76892857Y-61323882D01*
X76892857Y-61323882D02*
X76935714Y-61238168D01*
X76935714Y-61238168D02*
X76935714Y-60981025D01*
X76935714Y-60981025D02*
X76892857Y-60895311D01*
X76892857Y-60895311D02*
X76850000Y-60852454D01*
X76850000Y-60852454D02*
X76764285Y-60809597D01*
X76764285Y-60809597D02*
X76635714Y-60809597D01*
X76635714Y-60809597D02*
X76550000Y-60852454D01*
X76550000Y-60852454D02*
X76507143Y-60895311D01*
X76507143Y-60895311D02*
X76464285Y-60981025D01*
X76464285Y-60981025D02*
X76464285Y-61238168D01*
X76464285Y-61238168D02*
X76507143Y-61323882D01*
X76507143Y-61323882D02*
X76550000Y-61366740D01*
X76550000Y-61366740D02*
X76635714Y-61409597D01*
X76635714Y-61409597D02*
X76764285Y-61409597D01*
X75949999Y-61409597D02*
X76035714Y-61366740D01*
X76035714Y-61366740D02*
X76078571Y-61281025D01*
X76078571Y-61281025D02*
X76078571Y-60509597D01*
X74792856Y-61409597D02*
X74878571Y-61366740D01*
X74878571Y-61366740D02*
X74921428Y-61323882D01*
X74921428Y-61323882D02*
X74964285Y-61238168D01*
X74964285Y-61238168D02*
X74964285Y-60981025D01*
X74964285Y-60981025D02*
X74921428Y-60895311D01*
X74921428Y-60895311D02*
X74878571Y-60852454D01*
X74878571Y-60852454D02*
X74792856Y-60809597D01*
X74792856Y-60809597D02*
X74664285Y-60809597D01*
X74664285Y-60809597D02*
X74578571Y-60852454D01*
X74578571Y-60852454D02*
X74535714Y-60895311D01*
X74535714Y-60895311D02*
X74492856Y-60981025D01*
X74492856Y-60981025D02*
X74492856Y-61238168D01*
X74492856Y-61238168D02*
X74535714Y-61323882D01*
X74535714Y-61323882D02*
X74578571Y-61366740D01*
X74578571Y-61366740D02*
X74664285Y-61409597D01*
X74664285Y-61409597D02*
X74792856Y-61409597D01*
X74107142Y-60809597D02*
X74107142Y-61409597D01*
X74107142Y-60895311D02*
X74064285Y-60852454D01*
X74064285Y-60852454D02*
X73978570Y-60809597D01*
X73978570Y-60809597D02*
X73849999Y-60809597D01*
X73849999Y-60809597D02*
X73764285Y-60852454D01*
X73764285Y-60852454D02*
X73721428Y-60938168D01*
X73721428Y-60938168D02*
X73721428Y-61409597D01*
X73164284Y-61409597D02*
X73249999Y-61366740D01*
X73249999Y-61366740D02*
X73292856Y-61281025D01*
X73292856Y-61281025D02*
X73292856Y-60509597D01*
X72907141Y-60809597D02*
X72692855Y-61409597D01*
X72478570Y-60809597D02*
X72692855Y-61409597D01*
X72692855Y-61409597D02*
X72778570Y-61623882D01*
X72778570Y-61623882D02*
X72821427Y-61666740D01*
X72821427Y-61666740D02*
X72907141Y-61709597D01*
X71449999Y-61066740D02*
X70764285Y-61066740D01*
X69649999Y-60809597D02*
X69649999Y-61409597D01*
X69649999Y-60895311D02*
X69607142Y-60852454D01*
X69607142Y-60852454D02*
X69521427Y-60809597D01*
X69521427Y-60809597D02*
X69392856Y-60809597D01*
X69392856Y-60809597D02*
X69307142Y-60852454D01*
X69307142Y-60852454D02*
X69264285Y-60938168D01*
X69264285Y-60938168D02*
X69264285Y-61409597D01*
X68707141Y-61409597D02*
X68792856Y-61366740D01*
X68792856Y-61366740D02*
X68835713Y-61323882D01*
X68835713Y-61323882D02*
X68878570Y-61238168D01*
X68878570Y-61238168D02*
X68878570Y-60981025D01*
X68878570Y-60981025D02*
X68835713Y-60895311D01*
X68835713Y-60895311D02*
X68792856Y-60852454D01*
X68792856Y-60852454D02*
X68707141Y-60809597D01*
X68707141Y-60809597D02*
X68578570Y-60809597D01*
X68578570Y-60809597D02*
X68492856Y-60852454D01*
X68492856Y-60852454D02*
X68449999Y-60895311D01*
X68449999Y-60895311D02*
X68407141Y-60981025D01*
X68407141Y-60981025D02*
X68407141Y-61238168D01*
X68407141Y-61238168D02*
X68449999Y-61323882D01*
X68449999Y-61323882D02*
X68492856Y-61366740D01*
X68492856Y-61366740D02*
X68578570Y-61409597D01*
X68578570Y-61409597D02*
X68707141Y-61409597D01*
X67421427Y-60809597D02*
X67207141Y-61409597D01*
X67207141Y-61409597D02*
X66992856Y-60809597D01*
X66649999Y-61409597D02*
X66649999Y-60809597D01*
X66649999Y-60509597D02*
X66692856Y-60552454D01*
X66692856Y-60552454D02*
X66649999Y-60595311D01*
X66649999Y-60595311D02*
X66607142Y-60552454D01*
X66607142Y-60552454D02*
X66649999Y-60509597D01*
X66649999Y-60509597D02*
X66649999Y-60595311D01*
X65835714Y-61409597D02*
X65835714Y-60509597D01*
X65835714Y-61366740D02*
X65921428Y-61409597D01*
X65921428Y-61409597D02*
X66092856Y-61409597D01*
X66092856Y-61409597D02*
X66178571Y-61366740D01*
X66178571Y-61366740D02*
X66221428Y-61323882D01*
X66221428Y-61323882D02*
X66264285Y-61238168D01*
X66264285Y-61238168D02*
X66264285Y-60981025D01*
X66264285Y-60981025D02*
X66221428Y-60895311D01*
X66221428Y-60895311D02*
X66178571Y-60852454D01*
X66178571Y-60852454D02*
X66092856Y-60809597D01*
X66092856Y-60809597D02*
X65921428Y-60809597D01*
X65921428Y-60809597D02*
X65835714Y-60852454D01*
X65064285Y-61366740D02*
X65149999Y-61409597D01*
X65149999Y-61409597D02*
X65321428Y-61409597D01*
X65321428Y-61409597D02*
X65407142Y-61366740D01*
X65407142Y-61366740D02*
X65449999Y-61281025D01*
X65449999Y-61281025D02*
X65449999Y-60938168D01*
X65449999Y-60938168D02*
X65407142Y-60852454D01*
X65407142Y-60852454D02*
X65321428Y-60809597D01*
X65321428Y-60809597D02*
X65149999Y-60809597D01*
X65149999Y-60809597D02*
X65064285Y-60852454D01*
X65064285Y-60852454D02*
X65021428Y-60938168D01*
X65021428Y-60938168D02*
X65021428Y-61023882D01*
X65021428Y-61023882D02*
X65449999Y-61109597D01*
X64507141Y-61409597D02*
X64592856Y-61366740D01*
X64592856Y-61366740D02*
X64635713Y-61323882D01*
X64635713Y-61323882D02*
X64678570Y-61238168D01*
X64678570Y-61238168D02*
X64678570Y-60981025D01*
X64678570Y-60981025D02*
X64635713Y-60895311D01*
X64635713Y-60895311D02*
X64592856Y-60852454D01*
X64592856Y-60852454D02*
X64507141Y-60809597D01*
X64507141Y-60809597D02*
X64378570Y-60809597D01*
X64378570Y-60809597D02*
X64292856Y-60852454D01*
X64292856Y-60852454D02*
X64249999Y-60895311D01*
X64249999Y-60895311D02*
X64207141Y-60981025D01*
X64207141Y-60981025D02*
X64207141Y-61238168D01*
X64207141Y-61238168D02*
X64249999Y-61323882D01*
X64249999Y-61323882D02*
X64292856Y-61366740D01*
X64292856Y-61366740D02*
X64378570Y-61409597D01*
X64378570Y-61409597D02*
X64507141Y-61409597D01*
X79892856Y-63409597D02*
X79892856Y-62509597D01*
X79892856Y-62509597D02*
X79678570Y-62509597D01*
X79678570Y-62509597D02*
X79549999Y-62552454D01*
X79549999Y-62552454D02*
X79464284Y-62638168D01*
X79464284Y-62638168D02*
X79421427Y-62723882D01*
X79421427Y-62723882D02*
X79378570Y-62895311D01*
X79378570Y-62895311D02*
X79378570Y-63023882D01*
X79378570Y-63023882D02*
X79421427Y-63195311D01*
X79421427Y-63195311D02*
X79464284Y-63281025D01*
X79464284Y-63281025D02*
X79549999Y-63366740D01*
X79549999Y-63366740D02*
X79678570Y-63409597D01*
X79678570Y-63409597D02*
X79892856Y-63409597D01*
X78607142Y-62809597D02*
X78607142Y-63409597D01*
X78821427Y-62466740D02*
X79035713Y-63109597D01*
X79035713Y-63109597D02*
X78478570Y-63109597D01*
X77492856Y-63366740D02*
X77364285Y-63409597D01*
X77364285Y-63409597D02*
X77149999Y-63409597D01*
X77149999Y-63409597D02*
X77064285Y-63366740D01*
X77064285Y-63366740D02*
X77021427Y-63323882D01*
X77021427Y-63323882D02*
X76978570Y-63238168D01*
X76978570Y-63238168D02*
X76978570Y-63152454D01*
X76978570Y-63152454D02*
X77021427Y-63066740D01*
X77021427Y-63066740D02*
X77064285Y-63023882D01*
X77064285Y-63023882D02*
X77149999Y-62981025D01*
X77149999Y-62981025D02*
X77321427Y-62938168D01*
X77321427Y-62938168D02*
X77407142Y-62895311D01*
X77407142Y-62895311D02*
X77449999Y-62852454D01*
X77449999Y-62852454D02*
X77492856Y-62766740D01*
X77492856Y-62766740D02*
X77492856Y-62681025D01*
X77492856Y-62681025D02*
X77449999Y-62595311D01*
X77449999Y-62595311D02*
X77407142Y-62552454D01*
X77407142Y-62552454D02*
X77321427Y-62509597D01*
X77321427Y-62509597D02*
X77107142Y-62509597D01*
X77107142Y-62509597D02*
X76978570Y-62552454D01*
X76592856Y-63409597D02*
X76592856Y-62509597D01*
X76592856Y-62509597D02*
X76378570Y-62509597D01*
X76378570Y-62509597D02*
X76249999Y-62552454D01*
X76249999Y-62552454D02*
X76164284Y-62638168D01*
X76164284Y-62638168D02*
X76121427Y-62723882D01*
X76121427Y-62723882D02*
X76078570Y-62895311D01*
X76078570Y-62895311D02*
X76078570Y-63023882D01*
X76078570Y-63023882D02*
X76121427Y-63195311D01*
X76121427Y-63195311D02*
X76164284Y-63281025D01*
X76164284Y-63281025D02*
X76249999Y-63366740D01*
X76249999Y-63366740D02*
X76378570Y-63409597D01*
X76378570Y-63409597D02*
X76592856Y-63409597D01*
X75735713Y-63152454D02*
X75307142Y-63152454D01*
X75821427Y-63409597D02*
X75521427Y-62509597D01*
X75521427Y-62509597D02*
X75221427Y-63409597D01*
X73592856Y-62466740D02*
X74364284Y-63623882D01*
X72607142Y-63409597D02*
X72607142Y-62509597D01*
X72607142Y-62509597D02*
X72392856Y-62509597D01*
X72392856Y-62509597D02*
X72264285Y-62552454D01*
X72264285Y-62552454D02*
X72178570Y-62638168D01*
X72178570Y-62638168D02*
X72135713Y-62723882D01*
X72135713Y-62723882D02*
X72092856Y-62895311D01*
X72092856Y-62895311D02*
X72092856Y-63023882D01*
X72092856Y-63023882D02*
X72135713Y-63195311D01*
X72135713Y-63195311D02*
X72178570Y-63281025D01*
X72178570Y-63281025D02*
X72264285Y-63366740D01*
X72264285Y-63366740D02*
X72392856Y-63409597D01*
X72392856Y-63409597D02*
X72607142Y-63409597D01*
X71278570Y-62509597D02*
X71707142Y-62509597D01*
X71707142Y-62509597D02*
X71749999Y-62938168D01*
X71749999Y-62938168D02*
X71707142Y-62895311D01*
X71707142Y-62895311D02*
X71621428Y-62852454D01*
X71621428Y-62852454D02*
X71407142Y-62852454D01*
X71407142Y-62852454D02*
X71321428Y-62895311D01*
X71321428Y-62895311D02*
X71278570Y-62938168D01*
X71278570Y-62938168D02*
X71235713Y-63023882D01*
X71235713Y-63023882D02*
X71235713Y-63238168D01*
X71235713Y-63238168D02*
X71278570Y-63323882D01*
X71278570Y-63323882D02*
X71321428Y-63366740D01*
X71321428Y-63366740D02*
X71407142Y-63409597D01*
X71407142Y-63409597D02*
X71621428Y-63409597D01*
X71621428Y-63409597D02*
X71707142Y-63366740D01*
X71707142Y-63366740D02*
X71749999Y-63323882D01*
X70207142Y-63366740D02*
X70078571Y-63409597D01*
X70078571Y-63409597D02*
X69864285Y-63409597D01*
X69864285Y-63409597D02*
X69778571Y-63366740D01*
X69778571Y-63366740D02*
X69735713Y-63323882D01*
X69735713Y-63323882D02*
X69692856Y-63238168D01*
X69692856Y-63238168D02*
X69692856Y-63152454D01*
X69692856Y-63152454D02*
X69735713Y-63066740D01*
X69735713Y-63066740D02*
X69778571Y-63023882D01*
X69778571Y-63023882D02*
X69864285Y-62981025D01*
X69864285Y-62981025D02*
X70035713Y-62938168D01*
X70035713Y-62938168D02*
X70121428Y-62895311D01*
X70121428Y-62895311D02*
X70164285Y-62852454D01*
X70164285Y-62852454D02*
X70207142Y-62766740D01*
X70207142Y-62766740D02*
X70207142Y-62681025D01*
X70207142Y-62681025D02*
X70164285Y-62595311D01*
X70164285Y-62595311D02*
X70121428Y-62552454D01*
X70121428Y-62552454D02*
X70035713Y-62509597D01*
X70035713Y-62509597D02*
X69821428Y-62509597D01*
X69821428Y-62509597D02*
X69692856Y-62552454D01*
X68792856Y-63323882D02*
X68835713Y-63366740D01*
X68835713Y-63366740D02*
X68964285Y-63409597D01*
X68964285Y-63409597D02*
X69049999Y-63409597D01*
X69049999Y-63409597D02*
X69178570Y-63366740D01*
X69178570Y-63366740D02*
X69264285Y-63281025D01*
X69264285Y-63281025D02*
X69307142Y-63195311D01*
X69307142Y-63195311D02*
X69349999Y-63023882D01*
X69349999Y-63023882D02*
X69349999Y-62895311D01*
X69349999Y-62895311D02*
X69307142Y-62723882D01*
X69307142Y-62723882D02*
X69264285Y-62638168D01*
X69264285Y-62638168D02*
X69178570Y-62552454D01*
X69178570Y-62552454D02*
X69049999Y-62509597D01*
X69049999Y-62509597D02*
X68964285Y-62509597D01*
X68964285Y-62509597D02*
X68835713Y-62552454D01*
X68835713Y-62552454D02*
X68792856Y-62595311D01*
X67978570Y-63409597D02*
X68407142Y-63409597D01*
X68407142Y-63409597D02*
X68407142Y-62509597D01*
X85214285Y-58455859D02*
X84547619Y-59455859D01*
X84547619Y-58455859D02*
X85214285Y-59455859D01*
X84166666Y-59455859D02*
X84166666Y-58455859D01*
X83738095Y-59170144D02*
X83261905Y-59170144D01*
X83833333Y-59455859D02*
X83500000Y-58455859D01*
X83500000Y-58455859D02*
X83166667Y-59455859D01*
X82642857Y-58455859D02*
X82452381Y-58455859D01*
X82452381Y-58455859D02*
X82357143Y-58503478D01*
X82357143Y-58503478D02*
X82261905Y-58598716D01*
X82261905Y-58598716D02*
X82214286Y-58789192D01*
X82214286Y-58789192D02*
X82214286Y-59122525D01*
X82214286Y-59122525D02*
X82261905Y-59313001D01*
X82261905Y-59313001D02*
X82357143Y-59408240D01*
X82357143Y-59408240D02*
X82452381Y-59455859D01*
X82452381Y-59455859D02*
X82642857Y-59455859D01*
X82642857Y-59455859D02*
X82738095Y-59408240D01*
X82738095Y-59408240D02*
X82833333Y-59313001D01*
X82833333Y-59313001D02*
X82880952Y-59122525D01*
X82880952Y-59122525D02*
X82880952Y-58789192D01*
X82880952Y-58789192D02*
X82833333Y-58598716D01*
X82833333Y-58598716D02*
X82738095Y-58503478D01*
X82738095Y-58503478D02*
X82642857Y-58455859D01*
X81023809Y-58932049D02*
X80690476Y-58932049D01*
X80547619Y-59455859D02*
X81023809Y-59455859D01*
X81023809Y-59455859D02*
X81023809Y-58455859D01*
X81023809Y-58455859D02*
X80547619Y-58455859D01*
X80166666Y-59408240D02*
X80023809Y-59455859D01*
X80023809Y-59455859D02*
X79785714Y-59455859D01*
X79785714Y-59455859D02*
X79690476Y-59408240D01*
X79690476Y-59408240D02*
X79642857Y-59360620D01*
X79642857Y-59360620D02*
X79595238Y-59265382D01*
X79595238Y-59265382D02*
X79595238Y-59170144D01*
X79595238Y-59170144D02*
X79642857Y-59074906D01*
X79642857Y-59074906D02*
X79690476Y-59027287D01*
X79690476Y-59027287D02*
X79785714Y-58979668D01*
X79785714Y-58979668D02*
X79976190Y-58932049D01*
X79976190Y-58932049D02*
X80071428Y-58884430D01*
X80071428Y-58884430D02*
X80119047Y-58836811D01*
X80119047Y-58836811D02*
X80166666Y-58741573D01*
X80166666Y-58741573D02*
X80166666Y-58646335D01*
X80166666Y-58646335D02*
X80119047Y-58551097D01*
X80119047Y-58551097D02*
X80071428Y-58503478D01*
X80071428Y-58503478D02*
X79976190Y-58455859D01*
X79976190Y-58455859D02*
X79738095Y-58455859D01*
X79738095Y-58455859D02*
X79595238Y-58503478D01*
X79166666Y-59455859D02*
X79166666Y-58455859D01*
X79166666Y-58455859D02*
X78785714Y-58455859D01*
X78785714Y-58455859D02*
X78690476Y-58503478D01*
X78690476Y-58503478D02*
X78642857Y-58551097D01*
X78642857Y-58551097D02*
X78595238Y-58646335D01*
X78595238Y-58646335D02*
X78595238Y-58789192D01*
X78595238Y-58789192D02*
X78642857Y-58884430D01*
X78642857Y-58884430D02*
X78690476Y-58932049D01*
X78690476Y-58932049D02*
X78785714Y-58979668D01*
X78785714Y-58979668D02*
X79166666Y-58979668D01*
X78261904Y-58455859D02*
X77642857Y-58455859D01*
X77642857Y-58455859D02*
X77976190Y-58836811D01*
X77976190Y-58836811D02*
X77833333Y-58836811D01*
X77833333Y-58836811D02*
X77738095Y-58884430D01*
X77738095Y-58884430D02*
X77690476Y-58932049D01*
X77690476Y-58932049D02*
X77642857Y-59027287D01*
X77642857Y-59027287D02*
X77642857Y-59265382D01*
X77642857Y-59265382D02*
X77690476Y-59360620D01*
X77690476Y-59360620D02*
X77738095Y-59408240D01*
X77738095Y-59408240D02*
X77833333Y-59455859D01*
X77833333Y-59455859D02*
X78119047Y-59455859D01*
X78119047Y-59455859D02*
X78214285Y-59408240D01*
X78214285Y-59408240D02*
X78261904Y-59360620D01*
X77261904Y-58551097D02*
X77214285Y-58503478D01*
X77214285Y-58503478D02*
X77119047Y-58455859D01*
X77119047Y-58455859D02*
X76880952Y-58455859D01*
X76880952Y-58455859D02*
X76785714Y-58503478D01*
X76785714Y-58503478D02*
X76738095Y-58551097D01*
X76738095Y-58551097D02*
X76690476Y-58646335D01*
X76690476Y-58646335D02*
X76690476Y-58741573D01*
X76690476Y-58741573D02*
X76738095Y-58884430D01*
X76738095Y-58884430D02*
X77309523Y-59455859D01*
X77309523Y-59455859D02*
X76690476Y-59455859D01*
X76261904Y-59074906D02*
X75500000Y-59074906D01*
X74452381Y-59360620D02*
X74500000Y-59408240D01*
X74500000Y-59408240D02*
X74642857Y-59455859D01*
X74642857Y-59455859D02*
X74738095Y-59455859D01*
X74738095Y-59455859D02*
X74880952Y-59408240D01*
X74880952Y-59408240D02*
X74976190Y-59313001D01*
X74976190Y-59313001D02*
X75023809Y-59217763D01*
X75023809Y-59217763D02*
X75071428Y-59027287D01*
X75071428Y-59027287D02*
X75071428Y-58884430D01*
X75071428Y-58884430D02*
X75023809Y-58693954D01*
X75023809Y-58693954D02*
X74976190Y-58598716D01*
X74976190Y-58598716D02*
X74880952Y-58503478D01*
X74880952Y-58503478D02*
X74738095Y-58455859D01*
X74738095Y-58455859D02*
X74642857Y-58455859D01*
X74642857Y-58455859D02*
X74500000Y-58503478D01*
X74500000Y-58503478D02*
X74452381Y-58551097D01*
X73595238Y-58455859D02*
X73785714Y-58455859D01*
X73785714Y-58455859D02*
X73880952Y-58503478D01*
X73880952Y-58503478D02*
X73928571Y-58551097D01*
X73928571Y-58551097D02*
X74023809Y-58693954D01*
X74023809Y-58693954D02*
X74071428Y-58884430D01*
X74071428Y-58884430D02*
X74071428Y-59265382D01*
X74071428Y-59265382D02*
X74023809Y-59360620D01*
X74023809Y-59360620D02*
X73976190Y-59408240D01*
X73976190Y-59408240D02*
X73880952Y-59455859D01*
X73880952Y-59455859D02*
X73690476Y-59455859D01*
X73690476Y-59455859D02*
X73595238Y-59408240D01*
X73595238Y-59408240D02*
X73547619Y-59360620D01*
X73547619Y-59360620D02*
X73500000Y-59265382D01*
X73500000Y-59265382D02*
X73500000Y-59027287D01*
X73500000Y-59027287D02*
X73547619Y-58932049D01*
X73547619Y-58932049D02*
X73595238Y-58884430D01*
X73595238Y-58884430D02*
X73690476Y-58836811D01*
X73690476Y-58836811D02*
X73880952Y-58836811D01*
X73880952Y-58836811D02*
X73976190Y-58884430D01*
X73976190Y-58884430D02*
X74023809Y-58932049D01*
X74023809Y-58932049D02*
X74071428Y-59027287D01*
X71595238Y-58408240D02*
X72452380Y-59693954D01*
X70499999Y-58455859D02*
X70499999Y-59265382D01*
X70499999Y-59265382D02*
X70452380Y-59360620D01*
X70452380Y-59360620D02*
X70404761Y-59408240D01*
X70404761Y-59408240D02*
X70309523Y-59455859D01*
X70309523Y-59455859D02*
X70119047Y-59455859D01*
X70119047Y-59455859D02*
X70023809Y-59408240D01*
X70023809Y-59408240D02*
X69976190Y-59360620D01*
X69976190Y-59360620D02*
X69928571Y-59265382D01*
X69928571Y-59265382D02*
X69928571Y-58455859D01*
X69499999Y-59408240D02*
X69357142Y-59455859D01*
X69357142Y-59455859D02*
X69119047Y-59455859D01*
X69119047Y-59455859D02*
X69023809Y-59408240D01*
X69023809Y-59408240D02*
X68976190Y-59360620D01*
X68976190Y-59360620D02*
X68928571Y-59265382D01*
X68928571Y-59265382D02*
X68928571Y-59170144D01*
X68928571Y-59170144D02*
X68976190Y-59074906D01*
X68976190Y-59074906D02*
X69023809Y-59027287D01*
X69023809Y-59027287D02*
X69119047Y-58979668D01*
X69119047Y-58979668D02*
X69309523Y-58932049D01*
X69309523Y-58932049D02*
X69404761Y-58884430D01*
X69404761Y-58884430D02*
X69452380Y-58836811D01*
X69452380Y-58836811D02*
X69499999Y-58741573D01*
X69499999Y-58741573D02*
X69499999Y-58646335D01*
X69499999Y-58646335D02*
X69452380Y-58551097D01*
X69452380Y-58551097D02*
X69404761Y-58503478D01*
X69404761Y-58503478D02*
X69309523Y-58455859D01*
X69309523Y-58455859D02*
X69071428Y-58455859D01*
X69071428Y-58455859D02*
X68928571Y-58503478D01*
X68166666Y-58932049D02*
X68023809Y-58979668D01*
X68023809Y-58979668D02*
X67976190Y-59027287D01*
X67976190Y-59027287D02*
X67928571Y-59122525D01*
X67928571Y-59122525D02*
X67928571Y-59265382D01*
X67928571Y-59265382D02*
X67976190Y-59360620D01*
X67976190Y-59360620D02*
X68023809Y-59408240D01*
X68023809Y-59408240D02*
X68119047Y-59455859D01*
X68119047Y-59455859D02*
X68499999Y-59455859D01*
X68499999Y-59455859D02*
X68499999Y-58455859D01*
X68499999Y-58455859D02*
X68166666Y-58455859D01*
X68166666Y-58455859D02*
X68071428Y-58503478D01*
X68071428Y-58503478D02*
X68023809Y-58551097D01*
X68023809Y-58551097D02*
X67976190Y-58646335D01*
X67976190Y-58646335D02*
X67976190Y-58741573D01*
X67976190Y-58741573D02*
X68023809Y-58836811D01*
X68023809Y-58836811D02*
X68071428Y-58884430D01*
X68071428Y-58884430D02*
X68166666Y-58932049D01*
X68166666Y-58932049D02*
X68499999Y-58932049D01*
X66738094Y-58789192D02*
X66738094Y-59789192D01*
X66738094Y-58836811D02*
X66642856Y-58789192D01*
X66642856Y-58789192D02*
X66452380Y-58789192D01*
X66452380Y-58789192D02*
X66357142Y-58836811D01*
X66357142Y-58836811D02*
X66309523Y-58884430D01*
X66309523Y-58884430D02*
X66261904Y-58979668D01*
X66261904Y-58979668D02*
X66261904Y-59265382D01*
X66261904Y-59265382D02*
X66309523Y-59360620D01*
X66309523Y-59360620D02*
X66357142Y-59408240D01*
X66357142Y-59408240D02*
X66452380Y-59455859D01*
X66452380Y-59455859D02*
X66642856Y-59455859D01*
X66642856Y-59455859D02*
X66738094Y-59408240D01*
X65690475Y-59455859D02*
X65785713Y-59408240D01*
X65785713Y-59408240D02*
X65833332Y-59360620D01*
X65833332Y-59360620D02*
X65880951Y-59265382D01*
X65880951Y-59265382D02*
X65880951Y-58979668D01*
X65880951Y-58979668D02*
X65833332Y-58884430D01*
X65833332Y-58884430D02*
X65785713Y-58836811D01*
X65785713Y-58836811D02*
X65690475Y-58789192D01*
X65690475Y-58789192D02*
X65547618Y-58789192D01*
X65547618Y-58789192D02*
X65452380Y-58836811D01*
X65452380Y-58836811D02*
X65404761Y-58884430D01*
X65404761Y-58884430D02*
X65357142Y-58979668D01*
X65357142Y-58979668D02*
X65357142Y-59265382D01*
X65357142Y-59265382D02*
X65404761Y-59360620D01*
X65404761Y-59360620D02*
X65452380Y-59408240D01*
X65452380Y-59408240D02*
X65547618Y-59455859D01*
X65547618Y-59455859D02*
X65690475Y-59455859D01*
X65023808Y-58789192D02*
X64833332Y-59455859D01*
X64833332Y-59455859D02*
X64642856Y-58979668D01*
X64642856Y-58979668D02*
X64452380Y-59455859D01*
X64452380Y-59455859D02*
X64261904Y-58789192D01*
X63499999Y-59408240D02*
X63595237Y-59455859D01*
X63595237Y-59455859D02*
X63785713Y-59455859D01*
X63785713Y-59455859D02*
X63880951Y-59408240D01*
X63880951Y-59408240D02*
X63928570Y-59313001D01*
X63928570Y-59313001D02*
X63928570Y-58932049D01*
X63928570Y-58932049D02*
X63880951Y-58836811D01*
X63880951Y-58836811D02*
X63785713Y-58789192D01*
X63785713Y-58789192D02*
X63595237Y-58789192D01*
X63595237Y-58789192D02*
X63499999Y-58836811D01*
X63499999Y-58836811D02*
X63452380Y-58932049D01*
X63452380Y-58932049D02*
X63452380Y-59027287D01*
X63452380Y-59027287D02*
X63928570Y-59122525D01*
X63023808Y-59455859D02*
X63023808Y-58789192D01*
X63023808Y-58979668D02*
X62976189Y-58884430D01*
X62976189Y-58884430D02*
X62928570Y-58836811D01*
X62928570Y-58836811D02*
X62833332Y-58789192D01*
X62833332Y-58789192D02*
X62738094Y-58789192D01*
D11*
X77509523Y-70863855D02*
X77052380Y-70863855D01*
X77280952Y-71663855D02*
X77280952Y-70863855D01*
X76785713Y-71663855D02*
X76785713Y-70863855D01*
X76785713Y-70863855D02*
X76480951Y-70863855D01*
X76480951Y-70863855D02*
X76404761Y-70901950D01*
X76404761Y-70901950D02*
X76366666Y-70940045D01*
X76366666Y-70940045D02*
X76328570Y-71016236D01*
X76328570Y-71016236D02*
X76328570Y-71130521D01*
X76328570Y-71130521D02*
X76366666Y-71206712D01*
X76366666Y-71206712D02*
X76404761Y-71244807D01*
X76404761Y-71244807D02*
X76480951Y-71282902D01*
X76480951Y-71282902D02*
X76785713Y-71282902D01*
X76061904Y-70863855D02*
X75566666Y-70863855D01*
X75566666Y-70863855D02*
X75833332Y-71168617D01*
X75833332Y-71168617D02*
X75719047Y-71168617D01*
X75719047Y-71168617D02*
X75642856Y-71206712D01*
X75642856Y-71206712D02*
X75604761Y-71244807D01*
X75604761Y-71244807D02*
X75566666Y-71320998D01*
X75566666Y-71320998D02*
X75566666Y-71511474D01*
X75566666Y-71511474D02*
X75604761Y-71587664D01*
X75604761Y-71587664D02*
X75642856Y-71625760D01*
X75642856Y-71625760D02*
X75719047Y-71663855D01*
X75719047Y-71663855D02*
X75947618Y-71663855D01*
X75947618Y-71663855D02*
X76023809Y-71625760D01*
X76023809Y-71625760D02*
X76061904Y-71587664D01*
X80509523Y-70863855D02*
X80052380Y-70863855D01*
X80280952Y-71663855D02*
X80280952Y-70863855D01*
X79785713Y-71663855D02*
X79785713Y-70863855D01*
X79785713Y-70863855D02*
X79480951Y-70863855D01*
X79480951Y-70863855D02*
X79404761Y-70901950D01*
X79404761Y-70901950D02*
X79366666Y-70940045D01*
X79366666Y-70940045D02*
X79328570Y-71016236D01*
X79328570Y-71016236D02*
X79328570Y-71130521D01*
X79328570Y-71130521D02*
X79366666Y-71206712D01*
X79366666Y-71206712D02*
X79404761Y-71244807D01*
X79404761Y-71244807D02*
X79480951Y-71282902D01*
X79480951Y-71282902D02*
X79785713Y-71282902D01*
X78642856Y-71130521D02*
X78642856Y-71663855D01*
X78833332Y-70825760D02*
X79023809Y-71397188D01*
X79023809Y-71397188D02*
X78528570Y-71397188D01*
X71509523Y-70863855D02*
X71052380Y-70863855D01*
X71280952Y-71663855D02*
X71280952Y-70863855D01*
X70785713Y-71663855D02*
X70785713Y-70863855D01*
X70785713Y-70863855D02*
X70480951Y-70863855D01*
X70480951Y-70863855D02*
X70404761Y-70901950D01*
X70404761Y-70901950D02*
X70366666Y-70940045D01*
X70366666Y-70940045D02*
X70328570Y-71016236D01*
X70328570Y-71016236D02*
X70328570Y-71130521D01*
X70328570Y-71130521D02*
X70366666Y-71206712D01*
X70366666Y-71206712D02*
X70404761Y-71244807D01*
X70404761Y-71244807D02*
X70480951Y-71282902D01*
X70480951Y-71282902D02*
X70785713Y-71282902D01*
X69566666Y-71663855D02*
X70023809Y-71663855D01*
X69795237Y-71663855D02*
X69795237Y-70863855D01*
X69795237Y-70863855D02*
X69871428Y-70978140D01*
X69871428Y-70978140D02*
X69947618Y-71054331D01*
X69947618Y-71054331D02*
X70023809Y-71092426D01*
X74509523Y-70863855D02*
X74052380Y-70863855D01*
X74280952Y-71663855D02*
X74280952Y-70863855D01*
X73785713Y-71663855D02*
X73785713Y-70863855D01*
X73785713Y-70863855D02*
X73480951Y-70863855D01*
X73480951Y-70863855D02*
X73404761Y-70901950D01*
X73404761Y-70901950D02*
X73366666Y-70940045D01*
X73366666Y-70940045D02*
X73328570Y-71016236D01*
X73328570Y-71016236D02*
X73328570Y-71130521D01*
X73328570Y-71130521D02*
X73366666Y-71206712D01*
X73366666Y-71206712D02*
X73404761Y-71244807D01*
X73404761Y-71244807D02*
X73480951Y-71282902D01*
X73480951Y-71282902D02*
X73785713Y-71282902D01*
X73023809Y-70940045D02*
X72985713Y-70901950D01*
X72985713Y-70901950D02*
X72909523Y-70863855D01*
X72909523Y-70863855D02*
X72719047Y-70863855D01*
X72719047Y-70863855D02*
X72642856Y-70901950D01*
X72642856Y-70901950D02*
X72604761Y-70940045D01*
X72604761Y-70940045D02*
X72566666Y-71016236D01*
X72566666Y-71016236D02*
X72566666Y-71092426D01*
X72566666Y-71092426D02*
X72604761Y-71206712D01*
X72604761Y-71206712D02*
X73061904Y-71663855D01*
X73061904Y-71663855D02*
X72566666Y-71663855D01*
%TO.C,TP3*%
X77200000Y-70000000D02*
G75*
G02*
X75800000Y-70000000I-700000J0D01*
G01*
X75800000Y-70000000D02*
G75*
G02*
X77200000Y-70000000I700000J0D01*
G01*
%TO.C,TP4*%
X80200000Y-70000000D02*
G75*
G02*
X78800000Y-70000000I-700000J0D01*
G01*
X78800000Y-70000000D02*
G75*
G02*
X80200000Y-70000000I700000J0D01*
G01*
%TO.C,TP1*%
X71200000Y-70000000D02*
G75*
G02*
X69800000Y-70000000I-700000J0D01*
G01*
X69800000Y-70000000D02*
G75*
G02*
X71200000Y-70000000I700000J0D01*
G01*
%TO.C,TP2*%
X74200000Y-70000000D02*
G75*
G02*
X72800000Y-70000000I-700000J0D01*
G01*
X72800000Y-70000000D02*
G75*
G02*
X74200000Y-70000000I700000J0D01*
G01*
%TD*%
M02*
